<svg width="105" height="112" viewBox="0 0 105 112" fill="none" xmlns="http://www.w3.org/2000/svg">
<path fill-rule="evenodd" clip-rule="evenodd" d="M27.4457 0.373361C24.5249 1.3916 24.0533 2.50526 23.9159 8.71296L23.8068 13.6368L14.3187 13.7462C6.03363 13.8418 4.7476 13.9015 4.17613 14.2178C0.985917 15.9835 0.715449 23.125 3.88079 22.0179C4.75676 21.7116 4.93954 21.2496 4.93954 19.3409C4.93954 16.6144 4.17307 16.8099 14.864 16.8099H23.9159V27.2339C23.9159 42.7948 23.3065 42.0471 36.076 42.1523L44.201 42.2193V43.2062C44.201 44.1908 43.9139 45.0055 43.4594 45.3099C43.3274 45.3983 37.6738 45.4723 30.8957 45.4742C16.7646 45.4786 17.6291 45.3609 16.2446 47.4694C14.6596 49.8838 11.7684 50.1897 10.1458 48.1147C9.86162 47.7514 9.39048 47.1446 9.09885 46.7662C8.50077 45.9905 7.45554 45.4773 6.47335 45.4773C4.91708 45.4773 4.93954 45.6178 4.93954 35.8781C4.93954 27.3838 4.92755 27.1389 4.48738 26.5776C3.91329 25.8454 2.79892 25.7891 2.19233 26.4618C1.55935 27.1636 1.5491 44.6895 2.18099 45.9647C2.82139 47.2569 4.06423 48.2412 5.4482 48.5519C6.49037 48.7859 6.74906 48.9533 7.33645 49.7739C10.0642 53.5847 15.7356 53.5972 18.4778 49.7984L19.1485 48.8693L31.5112 48.7598C45.4763 48.6362 44.9471 48.7047 46.303 46.847C46.6332 46.3947 46.9704 45.9428 47.0524 45.8432C47.1344 45.7434 47.7035 45.9169 48.3171 46.2288C50.9352 47.56 54.5186 47.2785 56.7544 45.5666C57.884 44.7013 57.9425 44.6847 57.9425 45.2278C57.9425 45.7049 58.8557 47.1162 59.5387 47.6943C60.7357 48.708 61.4315 48.7594 74.0684 48.7679L85.9707 48.7758L86.605 49.7794C88.227 52.3457 91.9538 53.346 94.9974 52.0323C96.0306 51.5865 98.2945 49.4868 98.2945 48.9745C98.2945 48.8712 98.7434 48.7191 99.2919 48.6366C100.602 48.4395 102.182 47.3464 102.751 46.2432C103.191 45.3887 103.203 45.0368 103.261 31.3745L103.321 17.3808L102.768 16.2481C102.414 15.5216 101.891 14.8896 101.31 14.4856L100.405 13.8556L92.5957 13.793C83.8853 13.7232 83.8986 13.721 83.8986 15.262C83.8986 16.753 84.1994 16.8099 92.0833 16.8099C98.6847 16.8099 99.1504 16.8357 99.6335 17.2281L100.148 17.6465L100.208 30.979C100.276 46.3356 100.41 45.3228 98.2847 45.5276C96.955 45.6559 96.1842 46.1776 95.4943 47.4166C94.0361 50.0352 90.5543 50.1659 88.9987 47.6604C87.5626 45.3473 88.463 45.4773 73.8717 45.4773C59.9308 45.4773 60.9961 45.6452 60.9961 43.4487V42.2206L68.5758 42.153C77.5625 42.0729 78.0796 41.9219 79.6754 38.9122C80.3579 37.6251 80.2997 4.41678 79.6128 3.12981C79.0169 2.01353 78.1433 1.1371 77.0307 0.539238L76.1554 0.068961L52.3804 0.0188477C29.7497 -0.0286395 28.5496 -0.0115704 27.4457 0.373361ZM76.2812 3.88173L76.9188 4.52139V21.0772V37.6329L76.2812 38.2726L75.6437 38.9122L67.3929 38.9179C57.6002 38.9247 58.0003 38.8409 56.4379 41.2159C55.2166 43.0723 53.7766 43.9485 51.9597 43.9406C49.9826 43.9321 48.9376 43.2012 46.9602 40.4441C45.8879 38.949 45.8183 38.9385 36.7195 38.9245C28.0168 38.9111 27.7585 38.8783 27.2302 37.7148C26.8701 36.9222 26.854 5.1908 27.2132 4.48593C27.8881 3.1622 26.0853 3.25236 52.0155 3.24689L75.6437 3.24207L76.2812 3.88173ZM32.8921 9.75243C32.1966 10.3431 32.101 11.1479 32.6441 11.8408L33.1085 12.4332H51.5239C69.6482 12.4332 69.946 12.4262 70.3752 11.9955C70.9648 11.404 70.9245 10.5573 70.276 9.90671L69.7407 9.36947H51.542C34.5272 9.36947 33.314 9.39441 32.8921 9.75243ZM32.6441 18.4964C32.101 19.1893 32.1966 19.9941 32.8921 20.5848C33.314 20.9428 34.5272 20.9677 51.542 20.9677H69.7407L70.276 20.4305C70.9245 19.7799 70.9648 18.9332 70.3752 18.3417C69.946 17.911 69.6482 17.904 51.5239 17.904H33.1085L32.6441 18.4964ZM32.8921 26.6028C32.1966 27.1934 32.101 27.9983 32.6441 28.6911L33.1085 29.2835H43.4197C53.1316 29.2835 53.7515 29.2603 54.0916 28.8832C54.6543 28.2593 54.5525 27.2059 53.8778 26.6734C53.0518 26.0213 33.6538 25.9561 32.8921 26.6028ZM48.5422 52.264C44.3624 52.9733 43.5032 54.9183 43.5915 63.4706L43.6557 69.6941L44.3155 70.7705C44.7011 71.3997 45.3987 72.1199 45.9941 72.5035L47.0127 73.16L47.0239 75.2389C47.0407 78.4155 46.7894 78.707 42.8831 80.0397C37.9464 81.7241 35.5416 84.8727 35.3096 89.9556C35.2504 91.2496 35.1604 92.3081 35.1093 92.3081C35.0585 92.3081 34.6539 92.0588 34.2105 91.7542C32.707 90.7215 31.3945 90.4909 27.9736 90.6578C24.2668 90.8386 25.3566 91.6339 19.3101 84.3361L14.4277 78.4431L14.1904 76.2392L13.9529 74.0353L14.999 73.0965C15.652 72.5105 16.3147 71.6082 16.7631 70.695L17.4814 69.2325L17.5514 64.5755C17.6286 59.4412 17.4759 58.6978 15.9794 56.9226C13.6471 54.1563 6.10801 54.1377 3.47836 56.892C0.829526 59.6662 0.978719 69.2573 3.71829 72.3288L4.6549 73.3788L4.33841 75.786L4.02191 78.1932L3.06808 79.0836C1.36697 80.6719 1.29456 80.9971 0.571055 90.279C-0.493584 103.943 -0.252999 105.9 2.87635 109.04C6.067 112.241 1.94717 111.996 52.4895 111.996C103.038 111.996 98.9015 112.243 102.144 109.031C105.243 105.961 105.502 103.779 104.421 89.8584C103.721 80.8299 103.643 80.4949 101.909 79.0694L100.983 78.3087L100.695 75.7978L100.407 73.2869L101.115 72.5669C104.201 69.4306 104.276 59.4696 101.234 56.657C98.5547 54.1786 91.7786 54.2174 89.279 56.7252C86.0914 59.9235 86.6011 69.9179 90.1174 73.16L91.0667 74.0353L90.8337 76.2237L90.6008 78.412L85.4538 84.6143L80.3069 90.8167L77.2109 90.6613C73.6826 90.4843 72.4903 90.6751 70.9341 91.6654L69.939 92.2985V90.6727C69.939 85.1036 67.2326 81.6186 61.4324 79.7189C58.5344 78.7696 57.9425 77.9348 57.9425 74.7967V73.3149L58.987 72.6427C61.4428 71.0616 61.6509 70.2994 61.6483 62.9019C61.6448 52.9569 58.6729 50.5447 48.5422 52.264ZM57.0922 55.8217C58.332 56.6526 59.4503 60.924 58.3242 60.5277C58.1743 60.475 56.2557 59.8541 54.061 59.1482L50.0705 57.8647L48.441 58.6737C46.4502 59.662 46.6001 59.6718 46.6011 58.5527C46.602 57.4251 47.2062 56.3569 48.1797 55.7615C49.3248 55.061 56.0248 55.1063 57.0922 55.8217ZM13.2246 58.7475C14.0787 59.4686 14.0984 59.4517 10.9378 60.7015C7.38858 62.1049 6.68449 62.8239 6.68449 65.0449C6.68449 65.9592 5.78104 67.142 5.08263 67.142C4.73713 67.142 4.93518 60.543 5.3038 59.7635C6.12153 58.035 11.5549 57.3377 13.2246 58.7475ZM98.6655 58.5987C99.8795 59.3412 100.039 59.939 100.039 63.7391C100.039 65.6108 99.9838 67.142 99.9158 67.142C99.2341 67.142 98.2945 65.9181 98.2945 65.03C98.2945 62.8172 97.5413 62.0445 94.076 60.703C90.8789 59.465 90.9836 59.5335 91.4641 58.9976C92.3252 58.0367 97.2968 57.7612 98.6655 58.5987ZM54.6161 62.6614L58.5968 63.9361L58.5959 66.1408C58.5942 70.9769 53.8885 73.6436 49.7397 71.1596C46.6214 69.2927 46.5745 69.2126 46.6485 65.8708L46.7093 63.1163L48.4543 62.1782C49.414 61.6619 50.2974 61.2728 50.4174 61.3131C50.5373 61.3534 52.4269 61.9602 54.6161 62.6614ZM14.498 65.6649C14.3481 70.9959 10.8111 73.6666 7.13382 71.2253C5.98564 70.4628 5.99567 70.425 7.67017 69.2262C9.43737 67.9609 9.72115 67.5309 9.91265 65.8264L10.0653 64.467L12.1375 63.6273C13.2771 63.1653 14.2929 62.7826 14.3946 62.7765C14.4964 62.7703 14.5429 64.07 14.498 65.6649ZM92.7447 63.5527C95.2155 64.5497 95.2408 64.5733 95.2408 65.8666C95.2408 67.3571 95.6535 68.0248 97.3062 69.2078C98.9826 70.4081 98.9966 70.4606 97.8451 71.2253C95.5542 72.7462 92.3793 71.8203 91.0425 69.2417C90.5419 68.276 90.1586 62.7653 90.592 62.7653C90.7031 62.7653 91.6715 63.1196 92.7447 63.5527ZM11.0022 76.0197L11.0667 76.8802H9.18632H7.30613L7.43155 76.251C7.50048 75.9051 7.55697 75.4897 7.55697 75.328C7.55697 75.1019 7.94697 75.0485 9.24739 75.0967L10.9378 75.1593L11.0022 76.0197ZM97.5062 75.7158C97.7402 76.8896 97.7542 76.8802 95.7861 76.8802C92.9462 76.8802 92.9331 75.1628 95.7726 75.0866L97.3723 75.0439L97.5062 75.7158ZM52.5985 75.5641C53.0784 75.5626 53.7899 75.4807 54.1799 75.3827L54.8888 75.2041V76.3014C54.8888 76.9049 54.9898 77.6651 55.113 77.9906C55.3994 78.7464 55.3988 78.7469 53.7611 78.9482C51.4685 79.2298 49.8066 79.0064 49.9669 78.4381C50.0389 78.1831 50.1589 77.364 50.2335 76.6182L50.3691 75.2621L51.0477 75.4146C51.4207 75.4985 52.1187 75.5659 52.5985 75.5641ZM11.5922 80.5354C12.2609 80.8564 13.5596 82.2824 17.1542 86.642C19.7335 89.7702 22.1515 92.6696 22.5276 93.0847L23.2114 93.8399H27.4392C32.252 93.8399 33.9494 94.4932 33.9494 96.3456C33.9494 96.4119 31.1215 96.466 27.6654 96.466H21.3814L19.111 94.1135C11.4048 86.1284 11.7374 86.3995 10.6462 87.2134C9.78571 87.855 9.76804 88.7951 10.5984 89.744L11.265 90.5058V93.4858V96.466H7.35172C5.19932 96.466 3.39875 96.3922 3.35033 96.3018C3.07724 95.7928 4.32576 82.5419 4.69525 82.0303C6.04715 80.1568 9.32439 79.4467 11.5922 80.5354ZM99.0686 80.9547C99.7013 81.3394 100.33 81.8994 100.466 82.1994C100.638 82.5782 101.715 94.2071 101.783 96.4112C101.784 96.4412 99.9685 96.466 97.7492 96.466H93.714V93.4432V90.4204L94.3683 89.7915C95.1813 89.0102 95.2561 87.9478 94.5452 87.2834C93.4429 86.2529 93.245 86.4076 86.2447 93.7852L83.701 96.466H77.3653C73.8806 96.466 71.0296 96.4038 71.0296 96.3277C71.0296 94.524 72.8175 93.8399 77.5322 93.8399C82.5208 93.8399 81.1946 94.7461 87.6926 86.8972C90.5137 83.4894 92.9119 80.7901 93.2952 80.5912C94.9983 79.7078 97.2512 79.8496 99.0686 80.9547ZM58.924 82.085C59.6438 82.3736 60.9372 82.8774 61.7981 83.2048C63.8463 83.9831 65.1426 85.1401 66.0593 87.0079L66.7763 88.4686V92.4127V96.3565L60.9034 96.415L55.0308 96.4732L56.3775 95.0661C58.0768 93.2906 58.0879 93.6058 56.1052 87.2749L54.4946 82.1322L55.837 81.7793C56.5751 81.5851 57.2772 81.4567 57.3972 81.4935C57.5171 81.5302 58.2042 81.7965 58.924 82.085ZM48.9086 81.8372C49.6184 81.976 50.2302 82.1139 50.2682 82.1434C50.3059 82.1732 49.6925 84.4744 48.9049 87.2571C47.1654 93.4027 47.173 93.2344 48.5614 94.8617C49.1601 95.5635 49.6509 96.2132 49.652 96.3055C49.6531 96.3979 47.1264 96.4471 44.0374 96.415L38.4208 96.3565L38.3604 92.8589C38.2505 86.4816 39.5166 84.4528 44.705 82.6933C45.7326 82.3449 46.7512 81.9558 46.9685 81.8291C47.466 81.5387 47.3787 81.5383 48.9086 81.8372ZM53.519 89.5179L54.4338 92.4175L53.4071 93.4445L52.3804 94.4715L51.5378 93.4883L50.6952 92.505L51.523 89.5617C52.5292 85.9842 52.4051 85.9868 53.519 89.5179ZM19.1173 99.8579C19.1343 104.142 22.239 105.972 29.2559 105.836C33.2784 105.757 33.7313 105.594 33.7313 104.217C33.7313 102.77 33.1646 102.594 28.5215 102.592C23.9863 102.592 23.4866 102.458 22.6061 101.009C21.6174 99.3817 18.6069 99.5296 52.7222 99.5296H83.2737L83.1269 100.022C82.3037 102.786 84.0646 102.593 59.7321 102.593L38.7281 102.593L38.1929 103.131C37.5505 103.775 37.5073 104.547 38.0744 105.25L38.4915 105.766H59.9409H81.3903L82.5417 105.244C84.7587 104.239 86.2857 101.884 86.308 99.436C86.318 98.3394 86.3429 98.2996 88.3757 96.1377L90.4335 93.9493L90.4378 97.4115L90.4422 100.874L89.7333 102.166C89.0606 103.391 89.0414 103.488 89.3584 104.062C90.5262 106.177 92.975 104.378 93.5552 100.979L93.8025 99.5296H97.7935H101.784L101.782 101.663C101.779 104.988 100.209 107.443 97.4909 108.372C95.8864 108.921 9.04171 108.903 7.43221 108.354C4.78271 107.45 3.19459 104.866 3.19459 101.46V99.5296H7.20645H11.2183L11.4484 100.84C12.0227 104.111 13.8973 105.885 15.3408 104.525C16.0169 103.887 15.9709 103.119 15.1872 101.959L14.5368 100.996L14.5475 97.4726L14.5584 93.9493L16.8355 96.3565C19.0992 98.7493 19.1129 98.7703 19.1173 99.8579Z" fill="#F5A16F"/>
</svg>
