<svg width="122" height="120" viewBox="0 0 122 120" fill="none" xmlns="http://www.w3.org/2000/svg">
<path fill-rule="evenodd" clip-rule="evenodd" d="M36.2188 0.311991C26.6994 1.62057 17.7589 7.20927 12.5033 15.1365L11.1139 17.2321L10.5749 16.0065C9.73093 14.0872 8.04294 13.7313 7.17155 15.2891C6.75789 16.0288 8.72109 22.0867 9.69924 23.0884C10.9693 24.3896 18.5859 21.5876 18.5859 19.8191C18.5859 18.4855 17.1505 17.8197 15.5116 18.3931C14.4148 18.7767 14.4263 18.6442 15.6498 16.7981C20.5939 9.3381 29.6879 4.22074 39.0686 3.61954C41.8241 3.44305 42.6523 3.00973 42.6523 1.74516C42.6523 0.0061303 41.0468 -0.351624 36.2188 0.311991ZM39.0526 8.91865C38.0032 9.49115 37.622 10.3604 37.4059 12.6729C37.2951 13.8567 37.1704 14.8477 37.1287 14.8754C36.8738 15.044 33.9184 16.2143 33.7492 16.2139C33.6358 16.2134 32.9388 15.6909 32.2004 15.0526C29.1427 12.4103 28.1782 12.6045 24.2427 16.6546C20.628 20.3747 20.4891 21.2274 23.0139 24.1959C24.5129 25.9579 24.466 25.734 23.7209 27.5723L23.1395 29.0071L21.0674 29.1841C17.1355 29.5201 16.6806 30.1923 16.6802 35.667C16.6794 41.2413 17.1034 41.8662 21.0884 42.1661L23.2922 42.3318L23.9108 43.8967C24.6078 45.6599 24.7036 45.3411 22.7916 47.6271C20.7784 50.0347 21.1201 51.1979 24.95 54.9739C28.6898 58.6608 29.5481 58.8098 32.3898 56.2648C34.0904 54.742 33.7988 54.8118 35.6628 55.4826C37.287 56.0671 37.4102 56.282 37.4102 58.5307V59.6563L33.0615 60.1006C30.6699 60.345 28.5428 60.5476 28.3347 60.5507C28.1267 60.554 25.9669 59.2842 23.5353 57.7293L19.1142 54.902L19.7974 53.7921C20.9287 51.9531 21.3624 46.3838 20.517 44.5513C18.7146 40.6444 11.9281 40.1341 9.70782 43.7384C8.53476 45.6425 8.04199 51.362 8.90147 53.0969L9.34372 53.9899L8.2269 55.2365C5.71613 58.0392 5.48047 59.1489 5.48047 68.1731V75.3133L3.09718 93.818C0.232801 116.058 0.0314531 114.144 5.21836 113.983C8.71919 113.875 7.91594 115.406 14.4189 96.4447C17.5315 87.3693 20.1505 79.8065 20.2389 79.6384C20.5341 79.0766 31.4536 90.7773 31.4515 91.653C31.4481 92.9544 24.1872 110.302 23.6082 110.391C22.9868 110.487 22.8471 111.391 24.7903 102.742C26.7576 93.9851 26.7881 94.583 24.2306 91.7717C22.0958 89.4247 21.4105 88.9943 20.414 89.3745C18.7604 90.0054 18.9872 91.3094 21.1653 93.6946L22.8033 95.4881L20.9285 103.858C18.5592 114.435 18.4875 114.146 23.4483 113.984C26.7094 113.878 26.123 114.741 30.9423 102.955C36.4997 89.3649 36.7925 91.3202 27.8 81.9767L21.4708 75.4004L21.4582 71.7535C21.451 69.7478 21.4942 68.1066 21.554 68.1066C21.6138 68.1066 22.7416 68.6695 24.0602 69.3577L26.458 70.6089L32.2318 69.8824C40.103 68.8919 41.8419 68.0112 43.5094 64.1696L44.1881 62.6063L45.8627 62.6059C49.024 62.6054 50.0145 61.6342 50.2928 58.2638C50.3936 57.0425 50.5654 56.0118 50.6746 55.9736C50.7837 55.9353 51.4092 55.6526 52.0645 55.3456L53.2559 54.7869L54.626 55.9702C55.7874 56.9732 55.9961 57.2757 55.9961 57.9555C55.9961 59.9887 56.9797 60.7444 59.8086 60.8843C62.3673 61.0108 62.4819 61.1323 61.335 62.4995C58.4804 65.9031 58.5433 66.5452 62.0592 69.8951C64.7057 72.4171 65.606 72.4388 68.2404 70.0443C70.0256 68.422 70.293 68.6597 70.293 71.8702C70.293 74.28 71.4949 75.0416 75.2969 75.0416C79.3779 75.0416 80.2827 74.3457 80.3175 71.1793C80.3456 68.6262 80.4342 68.5827 82.2768 70.2151C84.9268 72.563 85.7334 72.4307 88.9385 69.1236C91.7745 66.1975 91.7807 65.7895 89.0374 62.5203C87.9029 61.1686 88.0366 60.9324 89.9354 60.9324C91.9032 60.9324 92.7886 60.7411 93.3803 60.1879C93.8583 59.741 93.9119 59.7651 98.0651 62.299L102.266 64.8624L102.185 71.3438L102.104 77.8255L97.8268 83.787C89.9414 94.7793 90.6848 92.2906 91.8517 103.791C92.9852 114.962 92.6576 114.261 96.74 114.261C100.463 114.261 100.213 114.753 100.918 106.01C101.235 102.064 101.503 98.7823 101.512 98.7165C101.52 98.6508 101.711 98.9392 101.935 99.3577C102.942 101.24 114.22 114.016 115.005 114.163C122.106 115.5 122.445 114.113 117.374 104.456C115.337 100.576 113.668 97.2664 113.665 97.1016C113.663 96.9368 114.411 93.7204 115.328 89.9542C117.281 81.938 117.502 79.5934 116.411 78.4984C115.303 77.3862 113.422 78.1966 113.422 79.7857V80.4864L109.55 78.8841L105.678 77.2819L105.766 72.2757C105.865 66.6588 105.815 66.9678 106.549 67.4843C108.413 68.7943 110.517 66.4575 108.875 64.9014C108.558 64.601 104.868 62.2785 100.674 59.74C92.5835 54.8427 91.3492 53.9031 90.5464 52.0301C89.4996 49.588 89.3347 49.529 100.394 55.5634C114.706 63.3735 113.422 62.0728 113.422 68.7534C113.422 73.7508 113.563 74.1807 115.209 74.1807C117.663 74.1807 117.881 63.9714 115.494 60.8181C115.165 60.384 115.193 60.2793 115.833 59.5485C120.312 54.4282 120.106 49.2166 115.328 46.8114C111.038 44.6515 108.535 46.3828 105.418 53.6666C105.212 54.1475 104.855 53.9837 98.291 50.3987L91.3809 46.6244L91.2486 45.7075C91.0604 44.4008 90.8283 44.0675 88.5718 41.8609C85.7546 39.106 85.1641 39.1089 81.8668 41.8947C80.5288 43.0251 80.4933 42.9961 80.3675 40.6695C80.1621 36.8799 79.7451 36.5401 75.2969 36.5401C72.386 36.5401 71.9583 36.5929 71.4193 37.0183C70.5234 37.7257 70.5312 37.7492 70.5312 34.3596V31.2228L69.6315 30.3198C68.7837 29.4689 68.6219 29.4075 66.8317 29.2575C65.7866 29.17 64.7806 29.0779 64.5959 29.0528C64.4112 29.0277 63.9637 28.3077 63.6011 27.4527L62.942 25.8983L63.4603 25.2656C66.0008 22.1639 66.0039 22.1591 66.0039 21.2018C66.0039 19.812 65.611 19.2409 62.6244 16.2913C58.9775 12.6894 58.1199 12.5237 55.3627 14.8859C53.5599 16.4303 53.8349 16.3679 52.0473 15.638C50.4668 14.9926 50.3391 14.7673 50.3012 12.5586C50.2723 10.8889 49.8439 9.77405 48.9635 9.07911C48.133 8.42339 40.1961 8.29497 39.0526 8.91865ZM46.7899 13.0182C46.8733 13.6283 46.9431 14.6776 46.945 15.3498C46.9505 17.2747 47.2598 17.6468 49.5656 18.5024C50.6779 18.9152 51.9632 19.4831 52.4219 19.7649C53.7868 20.6028 54.2952 20.4564 56.3788 18.6268L58.2598 16.9748L60.3261 19.0216L62.3925 21.0684L60.7431 22.9469C58.9188 25.0243 58.7208 25.7061 59.5465 27.0658C59.7955 27.4759 60.2944 28.6723 60.6552 29.7246C61.5473 32.3274 61.5292 32.3137 64.523 32.5945L67.0762 32.8336V35.7033V38.5728L64.6798 38.7191C61.6148 38.9061 61.4017 39.0302 60.7686 40.9972C60.4863 41.8738 59.9404 43.2176 59.5555 43.9828C58.601 45.8804 58.637 46.0588 60.4043 48.1836C62.3077 50.4721 62.3334 50.1617 60.0533 52.4364L58.1535 54.3319L57.6109 53.8529C57.3126 53.5893 56.4431 52.8145 55.6789 52.131C54.0291 50.6553 53.7534 50.6271 51.434 51.6961C50.4701 52.1401 49.1882 52.6811 48.5853 52.898C47.3053 53.3583 46.9414 53.9674 46.9414 55.649C46.9414 56.2823 46.8733 57.2996 46.7899 57.9096L46.6383 59.0192H43.8316H41.0251L40.8762 57.1659C40.5786 53.4638 40.5331 53.3827 38.3633 52.6995C37.6425 52.4725 36.4191 51.9723 35.6445 51.5877C33.6365 50.5905 33.4004 50.6441 31.1927 52.5967L29.2609 54.3048L27.2236 52.2602L25.1863 50.2155L26.7495 48.4167C28.8082 46.0476 28.8134 46.021 27.6804 43.6497C27.1605 42.5616 26.6177 41.2334 26.474 40.6982C26.0527 39.1276 25.6181 38.8925 22.8231 38.722L20.373 38.5728L20.3063 35.6746L20.2398 32.7765L22.6393 32.6057C25.4842 32.4032 25.9445 32.1086 26.5796 30.0833C26.8064 29.3599 27.2989 28.1522 27.6737 27.3999C28.654 25.4325 28.5942 25.1656 26.6908 23.005C24.6781 20.7205 24.639 21.2458 26.997 18.8915L28.9743 16.9174L30.75 18.4792C33.0732 20.5229 33.1797 20.5421 35.6948 19.3734C36.8349 18.8437 38.2175 18.2898 38.7674 18.1428C40.1049 17.7855 40.7456 16.938 40.7482 15.5232C40.7492 14.9163 40.8178 13.8547 40.9005 13.1641L41.0509 11.9086H43.8445H46.6383L46.7899 13.0182ZM40.3079 22.9167C30.6778 25.4485 27.4662 37.5734 34.5443 44.6773C42.7105 52.8726 56.7193 47.0476 56.7016 35.4639C56.6974 32.5722 56.1565 31.5181 54.677 31.5181C53.3266 31.5181 53.0607 32.1102 53.0378 35.1676C52.9485 47.0563 36.2195 48.6738 34.3249 36.977C32.9762 28.6501 42.9016 22.724 49.4879 27.9236C51.2286 29.2977 53.3219 27.2308 51.9553 25.4872C50.1036 23.1245 44.3489 21.8545 40.3079 22.9167ZM77.5165 28.1718C76.5474 28.5638 76.168 30.0304 76.8083 30.9095C77.058 31.2522 77.7183 31.4165 79.8114 31.6566C85.4853 32.308 91.2005 35.1425 93.807 38.5979L94.367 39.3404L93.1994 39.2278C90.6303 38.98 90.1115 42.0817 92.6259 42.658C92.9895 42.7414 94.3253 43.0669 95.5939 43.3816C99.6323 44.3827 99.714 44.3284 100.771 39.9423C101.606 36.4753 101.543 35.8544 100.303 35.3389C99.2801 34.9137 98.3716 35.452 97.9705 36.7211L97.65 37.7355L96.5792 36.4301C92.9204 31.9699 86.8368 28.8397 80.5391 28.1773C77.9227 27.9023 78.1822 27.9028 77.5165 28.1718ZM76.8119 40.7848C76.8931 41.2781 76.9608 42.2536 76.9622 42.9528C76.9675 45.5183 80.6549 47.5826 82.4722 46.0373C82.8149 45.746 83.5972 45.0872 84.2107 44.5733L85.3266 43.6387L86.2688 44.562C87.4571 45.7266 87.4764 45.6071 85.7812 47.5788C84.1578 49.4673 84.1202 49.6631 84.9685 51.8264C85.6357 53.5279 86.0505 53.9973 86.8876 53.9973C87.2526 53.9973 87.6525 54.3252 88.1274 55.0136C88.5129 55.5728 89.116 56.2985 89.4675 56.6269L90.1065 57.2238L89.5523 57.3802C89.2475 57.4663 88.3981 57.5473 87.6649 57.5605C86.1187 57.5882 85.7986 57.846 84.9017 59.7869C83.9288 61.8923 83.9846 62.1051 86.1875 64.6967L87.1897 65.8756L86.1434 66.9061L85.0971 67.9365L83.4003 66.4673C81.4514 64.7796 81.0397 64.696 79.0424 65.5825C77.3983 66.3123 76.9656 66.9106 76.9622 68.4588C76.9608 69.12 76.8931 70.0647 76.8119 70.5578L76.6641 71.4545H75.2935C73.7221 71.4545 73.6556 71.3601 73.6084 69.0631C73.5631 66.8609 73.4321 66.6335 71.7207 65.7876C69.4399 64.6601 68.9677 64.7246 66.9952 66.4326C65.0308 68.1336 65.1494 68.1142 63.9909 66.9238L63.0728 65.9799L64.5382 64.2457C66.2103 62.2668 66.2722 61.9578 65.4194 59.8565C64.706 58.0988 64.1191 57.5851 62.8202 57.5818C62.2779 57.5803 61.4418 57.5141 60.9626 57.4345L60.0912 57.2898L63.0475 53.9248C66.632 49.8449 66.6137 49.9281 64.4677 47.4912L62.9313 45.747L63.974 44.6912L65.0167 43.6351L66.7492 45.1097C68.7677 46.8276 69.0932 46.8831 71.2887 45.884C73.2403 44.9961 73.4106 44.7739 73.5436 42.9459C73.7757 39.752 73.6985 39.888 75.2764 39.888H76.6641L76.8119 40.7848ZM70.0997 41.6837C69.9794 42.7175 69.6846 42.9285 69.1011 42.3985C68.6662 42.0037 68.6717 41.9767 69.2948 41.4259C70.144 40.6753 70.2143 40.698 70.0997 41.6837ZM16.9628 45.5659C17.5258 46.131 17.5506 46.4364 17.2875 49.5488C17.0445 52.4238 16.6487 52.8621 14.4887 52.6485C11.8802 52.3905 11.296 50.6015 12.4125 46.2929C12.8019 44.7914 15.7254 44.3243 16.9628 45.5659ZM73.8672 48.9699C65.559 50.7503 67.2079 63.2274 75.6614 62.5466C83.3558 61.9267 84.3137 51.0571 76.8459 49.105C75.325 48.7075 75.1327 48.6987 73.8672 48.9699ZM114.01 50.1168C116.06 51.246 116.124 51.6356 114.728 54.4916C113.181 57.6552 112.518 58.1045 110.729 57.1977C108.575 56.1053 108.455 55.3451 109.96 52.3369C111.483 49.2932 112 49.0098 114.01 50.1168ZM76.5969 52.7966C79.753 54.3299 78.6469 59.0219 75.1301 59.0183C71.7486 59.0149 70.6339 54.3897 73.6289 52.7899C74.7086 52.2131 75.3993 52.2147 76.5969 52.7966ZM14.8487 56.4248C15.1349 56.5764 17.889 58.3202 20.9688 60.3003C27.6228 64.5785 26.6923 64.3645 34.7891 63.4763C40.9517 62.8003 40.3746 62.7678 39.7522 63.7545C38.7777 65.2993 37.7871 65.6363 32.1465 66.342L27.0189 66.9836L21.6059 63.958C15.9956 60.8221 15.1473 60.5187 14.2561 61.3281C13.115 62.3643 13.7596 63.643 16.084 64.9549L17.752 65.8964V70.0505V74.2047L13.3304 74.2695L8.90886 74.3345L8.98463 69.3671C9.12522 60.1274 9.11974 60.1949 9.82481 58.9874C11.2354 56.5716 13.2163 55.5613 14.8487 56.4248ZM16.9218 77.9711C16.9237 78.1356 14.4398 85.5069 11.4022 94.3522L5.87911 110.434H5.17356C4.53354 110.434 4.47897 110.373 4.58739 109.777C4.65292 109.415 5.60223 102.1 6.69666 93.5217L8.68654 77.924L11.9086 77.8506C13.6809 77.8102 15.5331 77.7535 16.0244 77.7245C16.6068 77.6904 16.9192 77.7762 16.9218 77.9711ZM113.057 84.129C113.087 84.129 112.424 86.9539 111.583 90.4064C109.702 98.1342 109.567 97.1028 113.432 104.532C116.721 110.856 116.637 110.674 116.293 110.674C116.075 110.674 106.47 99.6331 105.337 98.0792L104.784 97.3226L105.058 90.4267C105.209 86.6342 105.39 82.9758 105.46 82.2971L105.587 81.0634L109.295 82.5961C111.334 83.4393 113.027 84.129 113.057 84.129ZM101.62 88.9716L101.446 93.3359L99.9704 94.9096C98.1392 96.8625 98.0472 97.1884 97.5809 103.38C97.0493 110.441 97.016 110.674 96.5363 110.674C96.1589 110.674 94.5731 97.9221 94.5929 95.0491C94.5969 94.4694 101.307 84.6072 101.697 84.6072C101.75 84.6072 101.716 86.5711 101.62 88.9716ZM0.493957 117.282C0.222316 117.629 0 118.098 0 118.326C0 118.554 0.222316 119.023 0.493957 119.37L0.987676 120H5.37872C10.2761 120 10.7227 119.86 10.7227 118.326C10.7227 116.792 10.2761 116.652 5.37872 116.652H0.987676L0.493957 117.282ZM18.9405 117.133C18.7017 117.398 18.5066 117.935 18.5066 118.326C18.5066 119.885 18.8721 120 23.8281 120C28.7841 120 29.1497 119.885 29.1497 118.326C29.1497 116.767 28.7841 116.652 23.8281 116.652C19.6677 116.652 19.3461 116.684 18.9405 117.133ZM90.326 117.282C90.0543 117.629 89.832 118.098 89.832 118.326C89.832 118.554 90.0543 119.023 90.326 119.37L90.8197 120H95.293C100.32 120 100.555 119.923 100.555 118.284C100.555 116.745 100.254 116.652 95.2515 116.652H90.8197L90.326 117.282ZM111.754 117.13C111.489 117.396 111.277 117.927 111.277 118.326C111.277 119.86 111.724 120 116.621 120H121.012L121.506 119.37C121.778 119.023 122 118.554 122 118.326C122 118.098 121.778 117.629 121.506 117.282L121.012 116.652H116.621C112.548 116.652 112.196 116.687 111.754 117.13Z" fill="#F5A16F"/>
</svg>
