<svg width="112" height="112" viewBox="0 0 112 112" fill="none" xmlns="http://www.w3.org/2000/svg">
<path fill-rule="evenodd" clip-rule="evenodd" d="M34.2744 0.323989C33.0137 0.773691 32.019 1.64444 31.4522 2.79473L30.9375 3.83959L30.8738 18.2756C30.7979 35.4635 30.7861 35.3774 33.3947 36.91L34.439 37.5235L40.632 37.5907C46.3264 37.6526 46.8166 37.6878 46.721 38.0281C46.6639 38.2318 46.5041 39.1366 46.3658 40.0389C46.0146 42.3318 45.9857 42.3974 45.262 42.5564C43.9934 42.8349 43.5366 44.3784 44.465 45.2503C45.2438 45.9815 66.5266 46.002 67.4545 45.2723C68.4793 44.4668 68.0456 42.8456 66.7277 42.5564C66.004 42.3974 65.9751 42.3318 65.6239 40.0389C65.4855 39.1366 65.3258 38.2318 65.2687 38.0281C65.173 37.6878 65.6632 37.6526 71.3577 37.5907L77.5507 37.5235L78.595 36.91C81.0206 35.485 81.1948 34.6328 81.115 24.579C81.0447 15.7532 81.046 15.7602 79.5282 15.7602C78.0195 15.7602 78.0006 15.8249 77.879 21.3745L77.7695 26.3684L73.4424 26.4277C70.0893 26.4737 69.0971 26.4244 69.0349 26.209C68.3222 23.7387 67.1094 22.2489 65.0102 21.2656L63.7637 20.6816H55.9948H48.226L46.9742 21.268C44.9252 22.2277 43.6518 23.7934 42.9548 26.209C42.8926 26.4244 41.9004 26.4737 38.5473 26.4277L34.2201 26.3684V15.2486V4.12896L34.7368 3.71076C35.5448 3.05698 76.4442 3.05676 77.2529 3.71054C77.7479 4.11081 77.7741 4.27573 77.879 7.66577C78.0004 11.593 78.0917 11.8231 79.5282 11.8231C80.8911 11.8231 81.0522 11.3522 81.0522 7.37027C81.0522 2.66852 80.3943 1.27939 77.7153 0.323989C76.5042 -0.107996 35.4855 -0.107996 34.2744 0.323989ZM53.2593 7.05968C50.273 8.11788 49.1701 15.0428 51.6445 17.1979C54.7089 19.8666 57.9406 19.8086 60.5211 17.0387C62.1771 15.2613 61.8221 8.99213 59.9937 7.71914C58.6883 6.81055 54.9858 6.4479 53.2593 7.05968ZM58.0583 10.4169C58.3194 10.6781 58.4021 11.2297 58.4021 12.7114V14.6622L57.2243 15.4437L56.0465 16.2254L54.9258 15.5362C53.6233 14.7352 53.5073 14.4327 53.6233 12.1396C53.6813 10.9924 53.8053 10.4265 54.0301 10.2844C54.5975 9.92588 57.6679 10.0269 58.0583 10.4169ZM63.8024 24.3094C64.6997 24.7433 65.6239 25.7221 65.6239 26.2381C65.6239 26.4083 62.8286 26.4778 55.9948 26.4778C45.3012 26.4778 45.666 26.5358 47.1331 25.0692C48.4525 23.7505 61.4254 23.1591 63.8024 24.3094ZM77.7695 31.5829C77.7695 34.6755 80.314 34.352 55.9948 34.352C31.8637 34.352 34.2869 34.6282 34.1471 31.8616C34.1009 30.9468 34.1201 30.0498 34.1897 29.8681C34.302 29.5761 36.8333 29.5444 56.043 29.5936L77.7695 29.6493V31.5829ZM61.9819 38.0156C62.0414 38.2263 62.2029 39.1366 62.3412 40.0389C62.4795 40.9411 62.641 41.8515 62.7006 42.0621C62.8017 42.4208 62.3791 42.4449 55.9948 42.4449C49.6106 42.4449 49.188 42.4208 49.2891 42.0621C49.3486 41.8515 49.5101 40.9411 49.6484 40.0389C49.7868 39.1366 49.9483 38.2263 50.0078 38.0156C50.1071 37.6633 50.5827 37.6329 55.9948 37.6329C61.407 37.6329 61.8825 37.6633 61.9819 38.0156ZM55.5572 49.8201C54.6347 50.153 54.463 50.5618 54.463 52.4227V54.2401L41.1684 54.3027L27.8737 54.3655L26.7795 54.8694C24.7417 55.8078 23.4459 57.5399 23.2319 59.6119C22.9417 62.4218 25.9173 62.8759 26.4252 60.0992C26.5305 59.5235 26.801 58.8454 27.0264 58.5926C28.0007 57.4994 26.9688 57.537 55.9948 57.537C85.0208 57.537 83.989 57.4994 84.9633 58.5926C85.1887 58.8454 85.4592 59.5235 85.5644 60.0992C86.0724 62.8759 89.048 62.4218 88.7578 59.6119C88.5437 57.5399 87.248 55.8078 85.2101 54.8694L84.1159 54.3655L70.8213 54.3027L57.5267 54.2401V52.4227C57.5267 50.2849 56.828 49.3617 55.5572 49.8201ZM3.14469 66.612C-0.00837171 67.7168 -0.0593616 68.0248 0.0167951 85.5513L0.0809156 100.333L0.743129 101.403C1.15324 102.066 1.81326 102.726 2.47613 103.136L3.54692 103.798L9.72021 103.868L15.8937 103.937L15.7217 104.742C15.627 105.185 15.4331 106.261 15.2908 107.133C15.0827 108.409 14.956 108.719 14.6437 108.719C13.2514 108.719 12.5809 110.684 13.6786 111.547C14.2445 111.991 14.459 112 25.1776 112H36.1002L36.6372 111.463C37.5859 110.515 37.1496 109.114 35.7969 108.764C35.0531 108.571 34.9813 108.363 34.4462 104.849L34.3066 103.933L40.3908 103.865C47.104 103.791 47.3883 103.736 48.8162 102.232C50.1242 100.855 50.0861 101.375 50.0861 84.9299V69.8758L49.3749 68.6919C48.8263 67.7787 48.3954 67.3684 47.4898 66.897L46.3159 66.2861L25.168 66.2957C7.60555 66.3036 3.87168 66.3574 3.14469 66.612ZM64.5905 66.8436C63.4766 67.3983 62.6769 68.247 62.1697 69.4132C61.7241 70.4375 61.7928 99.7194 62.2434 100.797C63.3637 103.478 64.2957 103.784 71.5984 103.868L77.6822 103.938L77.543 104.852C77.0084 108.363 76.9366 108.571 76.1928 108.764C74.8401 109.114 74.4038 110.515 75.3524 111.463L75.8895 112H86.8121C97.5307 112 97.7451 111.991 98.3111 111.547C99.4088 110.684 98.7382 108.719 97.346 108.719C97.0337 108.719 96.907 108.409 96.6989 107.133C96.5566 106.261 96.3627 105.185 96.268 104.742L96.096 103.937L102.269 103.868L108.443 103.798L109.514 103.136C110.176 102.726 110.836 102.066 111.247 101.403L111.909 100.333L111.973 85.5513C112.045 68.904 112.089 69.4325 110.501 67.7964C108.967 66.217 110.097 66.2887 86.7302 66.2874L65.7099 66.2861L64.5905 66.8436ZM46.1385 69.7811C46.9617 70.2214 47.0224 71.0567 47.0224 81.9576V92.5333H42.5361C38.6799 92.5333 38.0499 92.4869 38.0499 92.2028C38.0499 90.808 36.0639 88.435 34.1431 87.535L32.9071 86.9558L25.605 86.8875C15.799 86.7959 13.4849 87.5772 12.3846 91.3509L12.0717 92.4239L7.66289 92.4832L3.25411 92.5423V81.6311C3.25411 70.9235 3.26265 70.7088 3.70777 70.1433L4.16121 69.567H24.9496C38.0912 69.567 45.8853 69.6457 46.1385 69.7811ZM108.282 70.1433C108.727 70.7088 108.736 70.9235 108.736 81.6311V92.5423L104.327 92.4832L99.918 92.4239L99.6051 91.3509C99.109 89.6492 97.2138 87.8902 95.2272 87.2869C93.0847 86.6367 79.6855 86.6852 78.2072 87.3486C76.0799 88.3036 74.7064 89.7448 74.1477 91.6088L73.8705 92.5333H69.419H64.9673V81.9393C64.9673 71.2214 65.0216 70.4198 65.7849 69.8404C66.0672 69.6261 70.6515 69.567 86.9869 69.567H107.828L108.282 70.1433ZM21.9561 73.466C19.9902 74.3845 19.556 75.4031 19.5622 79.0816C19.5681 82.5325 19.8057 82.9861 22.4889 84.6633C27.452 87.7662 32.9342 81.0672 30.1451 75.3086C29.1472 73.2484 24.6078 72.2271 21.9561 73.466ZM84.1796 73.2827C80.1602 74.4938 80.1052 82.1018 84.0989 84.4951C88.6006 87.1929 92.7387 84.1471 92.4941 78.3161C92.3072 73.8564 88.9736 71.8385 84.1796 73.2827ZM26.9804 76.4803C27.2651 76.5894 27.3266 77.0133 27.3266 78.8655V81.118L26.3576 81.6856C25.1389 82.3993 25.0104 82.3951 23.7587 81.6018L22.731 80.9504V78.9114C22.731 76.4418 24.3964 75.4892 26.9804 76.4803ZM88.9961 76.61C89.1624 76.7762 89.2587 77.6137 89.2587 78.8961V80.9198L88.2892 81.5865C87.1088 82.3982 86.8644 82.4074 85.6321 81.6856L84.663 81.118V78.8603C84.663 77.259 84.7425 76.5706 84.9366 76.4923C85.5178 76.2581 88.7372 76.3512 88.9961 76.61ZM32.9458 90.5836C33.7466 90.9709 34.7672 91.9847 34.7672 92.3929C34.7672 92.4589 32.1488 92.5421 28.9483 92.5777C22.1261 92.6538 21.0695 93.1066 22.7454 95.2361L23.1975 95.8105L35.0552 95.8669L46.9129 95.9236V97.7473C46.9129 99.4746 46.8803 99.5991 46.2989 100.099L45.6848 100.626H25.0067H4.3284L3.79137 100.089C3.30467 99.603 3.25411 99.3762 3.25411 97.6832V95.8142H10.4759C18.5907 95.8142 18.573 95.8177 18.573 94.2077C18.573 93.2192 17.96 92.7131 16.6056 92.583C15.3713 92.4644 15.3241 92.39 15.9666 91.5735C17.0547 90.1912 17.3289 90.1477 25.0144 90.1369C31.6623 90.1278 32.049 90.1496 32.9458 90.5836ZM94.363 90.3314C95.093 90.609 96.4805 91.8513 96.4805 92.228C96.4805 92.4848 94.9442 92.5333 86.8313 92.5333H77.1822L77.5881 91.8386C78.5291 90.2281 79.0767 90.1273 86.8716 90.1273C90.6965 90.1273 94.0675 90.2192 94.363 90.3314ZM108.736 97.6832C108.736 99.3762 108.685 99.603 108.198 100.089L107.661 100.626H86.983H66.3049L65.6994 100.106C65.0892 99.5811 64.6791 97.0988 65.0455 96.1451C65.1577 95.8527 67.7094 95.8142 86.9541 95.8142H108.736V97.6832ZM31.2662 105.493C31.4085 106.365 31.6039 107.448 31.7004 107.899L31.8757 108.719H25.115C21.3965 108.719 18.3544 108.645 18.3548 108.555C18.3561 108.269 19.0221 104.466 19.121 104.181C19.1936 103.971 20.5914 103.907 25.1115 103.907H31.0073L31.2662 105.493ZM93.1228 105.438C93.2639 106.22 93.443 107.278 93.5209 107.79L93.6624 108.719H86.8882H80.114L80.2893 107.899C80.3858 107.448 80.5814 106.363 80.7241 105.489L80.9834 103.9L86.925 103.958L92.8663 104.016L93.1228 105.438Z" fill="#F5A16F"/>
</svg>
