<svg width="50" height="42" viewBox="0 0 50 42" fill="none" xmlns="http://www.w3.org/2000/svg">
<path d="M28.594 42V30.3779C28.594 24.2863 29.3049 19.2901 30.7267 15.3893C32.2012 11.4885 34.6761 8.17557 38.1517 5.45038C41.6272 2.72519 45.5766 0.908397 50 0V9.29771C46.8931 11.1145 45.129 13.5458 44.7077 16.5916H50V42H28.594ZM0 42V30.3779C0 24.2863 0.710901 19.2901 2.1327 15.3893C3.60716 11.4885 6.08215 8.17557 9.55766 5.45038C13.0858 2.72519 17.0353 0.908397 21.406 0V9.29771C18.2991 11.1145 16.535 13.5458 16.1137 16.5916H21.406V42H0Z" fill="#F5A16F"/>
</svg>
