<svg width="113" height="100" viewBox="0 0 113 100" fill="none" xmlns="http://www.w3.org/2000/svg">
<path d="M91.84 67.7773C92.2647 67.9439 92.4108 68.1132 92.4541 68.2159C92.488 68.2961 92.5072 68.4533 92.3236 68.7541C92.1383 69.0575 91.7872 69.4331 91.2333 69.8745C90.685 70.3115 89.9627 70.7935 89.0633 71.3158L89.0633 71.3158L86.5403 72.7812L85.9804 73.1064L86.4366 73.5659L91.1698 78.3326L95.9027 83.0992L95.9039 83.1003L98.5005 85.6981L98.5034 85.701L101.072 88.3133L101.428 87.9627L101.072 88.3133C101.337 88.5825 101.578 88.8236 101.797 89.0428C102.24 89.4844 102.593 89.837 102.868 90.1512C103.282 90.6242 103.416 90.9018 103.431 91.125C103.449 91.3998 103.295 91.7796 102.628 92.5442C102.15 93.0925 101.477 93.7676 100.573 94.6732C100.25 94.9965 99.8985 95.3491 99.5158 95.7358L99.8711 96.0876L99.5158 95.7358C98.9394 96.3181 98.4443 96.8462 98.0109 97.3093L97.9727 97.3501C97.5535 97.7981 97.1977 98.1783 96.8761 98.4945C96.1948 99.1642 95.7614 99.4447 95.3659 99.4925C95.1037 99.5242 94.788 99.4604 94.3363 99.1981C93.8781 98.9321 93.3219 98.4863 92.5955 97.8137C91.6776 96.9638 90.5356 95.7978 89.0329 94.2632C88.1523 93.3641 87.1478 92.3384 85.9919 91.1757L77.3126 82.4452L76.9008 82.0309L76.555 82.5017L76.1292 83.0816C75.2386 84.2941 74.5159 85.2302 73.9176 85.9215C73.312 86.6213 72.8637 87.0345 72.5249 87.2378C72.2053 87.4295 72.0778 87.3849 72.0017 87.3411C71.8578 87.2583 71.6637 87.027 71.4204 86.5048L71.4135 86.4899L71.4056 86.4755C71.3746 86.4191 71.3093 86.2355 71.2216 85.9094C71.1395 85.6042 71.0501 85.2233 70.9611 84.8151C70.7832 83.9998 70.6109 83.0949 70.5067 82.5112L70.5054 82.5039L70.5039 82.4965L68.5689 73.2595L68.5689 73.2595L68.5518 73.1778C67.6817 69.0245 67.1433 66.4546 66.9053 64.8558C66.785 64.0471 66.748 63.5255 66.7725 63.1878C66.7846 63.0219 66.8102 62.9246 66.8331 62.8696C66.853 62.822 66.8687 62.8105 66.8739 62.8067L66.874 62.8066C66.8879 62.7964 66.9338 62.7703 67.0707 62.7543C67.2085 62.7382 67.3774 62.7378 67.6164 62.7378C67.618 62.7382 67.6364 62.7399 67.6814 62.7464C67.7377 62.7545 67.8159 62.7671 67.9162 62.7844C68.1164 62.8188 68.3939 62.8697 68.7393 62.9353C69.4296 63.0662 70.3826 63.2539 71.5121 63.4804C73.7706 63.9333 76.7295 64.5403 79.6917 65.1565C82.6538 65.7726 85.6181 66.3976 87.8872 66.8864C89.0219 67.1309 89.9816 67.3411 90.6799 67.4989C91.0293 67.5779 91.3114 67.6434 91.5165 67.6933C91.6192 67.7183 91.7004 67.7388 91.76 67.7548C91.8055 67.7671 91.8289 67.7742 91.8375 67.7768C91.8417 67.7781 91.8423 67.7782 91.84 67.7773ZM91.84 67.7773C91.84 67.7773 91.8399 67.7773 91.8399 67.7773L92.0224 67.3118L91.84 67.7773ZM87.1156 69.0902L87.1147 69.0892C87.0595 69.0336 87.0035 69.0045 86.9914 68.9982L86.9904 68.9976C86.9699 68.9869 86.9527 68.9796 86.9435 68.9759C86.9246 68.9683 86.9081 68.9628 86.8993 68.96C86.88 68.9537 86.8596 68.948 86.8424 68.9434C86.8062 68.9336 86.7581 68.9216 86.7015 68.9079C86.587 68.8802 86.4228 68.8423 86.216 68.7955C85.8016 68.7018 85.208 68.571 84.4797 68.4126C83.0228 68.0959 81.023 67.6683 78.8319 67.2062C74.4449 66.281 70.671 65.4799 70.4345 65.4241C70.4166 65.4199 70.401 65.4159 70.3813 65.4108C70.3734 65.4087 70.3648 65.4065 70.3551 65.4041C70.3263 65.3967 70.2856 65.3865 70.2427 65.3787C70.1749 65.3663 69.9941 65.3365 69.8077 65.4286L69.8077 65.4286C69.595 65.5336 69.5073 65.7247 69.4725 65.863C69.4398 65.9933 69.4371 66.1363 69.4433 66.272C69.4559 66.5501 69.5158 66.9623 69.6231 67.5585C69.8188 68.6458 70.1897 70.437 70.7941 73.3565C70.8585 73.6676 70.9256 73.9914 70.9954 74.3286L71.485 74.2273L70.9954 74.3286C71.1527 75.089 71.2951 75.7826 71.4246 76.4139C71.7937 78.212 72.059 79.5048 72.272 80.3957C72.4149 80.9936 72.5415 81.443 72.67 81.7513C72.7338 81.9041 72.8108 82.0544 72.912 82.1756C73.0163 82.3004 73.1828 82.4356 73.4192 82.4555C73.6695 82.4766 73.8618 82.3565 73.9731 82.2677C74.0897 82.1747 74.1949 82.0538 74.2861 81.9393C74.3802 81.8212 74.4812 81.6819 74.5848 81.5386L74.6022 81.5144C74.703 81.3749 74.8103 81.2265 74.9294 81.0696C75.0404 80.9236 75.1418 80.7877 75.2363 80.6612C75.4645 80.3554 75.6521 80.1042 75.8346 79.8958C76.0905 79.6034 76.266 79.4822 76.4139 79.4407C76.5519 79.4019 76.769 79.4053 77.1804 79.6327C77.5968 79.863 78.1423 80.2845 78.8974 80.9692C80.2084 82.1579 82.0631 84.0572 84.8403 86.9011C85.2552 87.326 85.6907 87.7719 86.1481 88.2397C88.4376 90.5817 90.5421 92.7114 92.0885 94.2562C92.8615 95.0284 93.4964 95.6558 93.9457 96.0909C94.1699 96.308 94.3505 96.4798 94.48 96.5985C94.544 96.6571 94.6003 96.7072 94.6452 96.7444C94.6666 96.7622 94.6932 96.7835 94.7207 96.8027C94.7337 96.8118 94.7569 96.8274 94.786 96.8428C94.7896 96.8447 94.8891 96.9031 95.0252 96.9038C95.1172 96.9043 95.1882 96.8799 95.2179 96.8688C95.2545 96.8551 95.2848 96.8397 95.3057 96.8282C95.3474 96.8052 95.3865 96.7787 95.4182 96.7558C95.4835 96.7088 95.5598 96.6469 95.6409 96.5779C95.8051 96.4381 96.0193 96.2429 96.2629 96.0138C96.7516 95.5541 97.3764 94.9411 97.9912 94.3219C98.6061 93.7027 99.2149 93.0735 99.6716 92.5812C99.8992 92.3358 100.093 92.12 100.232 91.9546C100.301 91.8729 100.362 91.7961 100.409 91.7304C100.431 91.6984 100.458 91.6593 100.48 91.6176C100.492 91.5968 100.507 91.5668 100.52 91.5306C100.531 91.5011 100.555 91.4316 100.555 91.3417V91.139L100.414 90.9935L91.7347 82.0479L91.7347 82.0479L91.731 82.044C91.1486 81.4565 90.6006 80.9049 90.0857 80.3864C87.5722 77.8559 85.8451 76.1169 84.7367 74.8663C84.0674 74.1111 83.6508 73.5633 83.4234 73.1473C83.1962 72.7317 83.2023 72.5293 83.2382 72.417C83.2828 72.2773 83.4255 72.1012 83.8193 71.8383C84.0782 71.6654 84.3877 71.4904 84.7616 71.279C84.9517 71.1715 85.1585 71.0545 85.3837 70.9237C85.8538 70.6507 86.2767 70.3932 86.58 70.1974C86.7303 70.1005 86.8582 70.0142 86.9494 69.9466C86.9923 69.9149 87.0416 69.8766 87.0829 69.8374C87.0993 69.8218 87.1412 69.7814 87.1781 69.7242C87.1948 69.6982 87.2359 69.6308 87.2532 69.5344C87.2736 69.4205 87.2614 69.2378 87.1156 69.0902Z" fill="#F5A16F" stroke="#F5A16F"/>
<mask id="path-2-inside-1_330_274" fill="white">
<path d="M48.6528 50.3394C47.7656 50.7287 46.8374 51.8642 46.6765 52.7566C46.2735 54.9918 46.6767 76.6735 47.1327 77.2885C47.3357 77.5624 47.4351 77.7875 47.5835 77.9727C48.1879 78.7268 48.8074 78.789 61.3555 78.8201C63.095 78.3979 62.5433 75.9075 61.3555 75.7074C54.3942 75.6567 50.0135 75.643 49.9218 75.5507C49.6411 75.2679 49.5394 71.7857 49.8042 71.5191C49.858 71.4648 53.5898 71.3975 60.9141 71.3717C62.8743 71.241 62.5433 68.2589 60.9141 68.1752L49.7673 68.1469L49.7091 60.9475C49.6676 55.8202 49.723 53.6607 49.9015 53.4437C50.1626 53.1268 98.1549 52.9612 98.9648 53.2742C99.2736 53.3936 99.314 54.2687 99.314 60.8345V68.2601V71.3708V73.4592C99.314 75.1585 99.2489 75.5727 98.9648 75.6826C98.8819 75.7146 98.1791 75.7413 96.999 75.7631C95.6748 75.783 95.2334 78.428 96.999 78.92L99.8657 78.926L100.732 78.428C101.271 78.118 101.792 77.5593 102.111 76.9499L102.624 75.9698V64.4784V52.987L102.111 52.0069C101.792 51.3962 101.272 50.8401 100.732 50.5304L99.8657 50.0339L74.5958 50.039C54.0787 50.043 49.1993 50.0995 48.6528 50.3394Z"/>
<path d="M54.1453 57.025C53.1016 57.7614 53.2873 58.8266 54.69 60.1511L55.5055 60.921L54.69 61.691C52.9348 63.3483 53.2129 65.1454 55.2245 65.1454C56.0727 65.1454 59.5884 61.7421 59.5884 60.921C59.5884 59.272 55.3055 56.2064 54.1453 57.025Z"/>
<path d="M44.5809 84.0439C44.0129 84.6162 44.0166 85.6058 44.5896 86.2253L45.0396 86.712H64.0039C65.7695 86.3798 65.4385 83.8228 64.0039 83.6014C45.2169 83.6119 44.9479 83.6743 44.5809 84.0439Z"/>
<path fill-rule="evenodd" clip-rule="evenodd" d="M9.36972 7.43931C8.3757 8.44071 9.08944 10.2285 10.4831 10.2285C11.2189 10.2285 12.1384 9.30226 12.1384 8.56099C12.1384 7.81972 11.2189 6.89347 10.4831 6.89347C10.1686 6.89347 9.66767 7.13915 9.36972 7.43931ZM14.4855 9.76761C15.4555 10.5364 16.4382 10.3306 16.8825 9.26602C17.5748 7.60762 15.8757 6.2527 14.4855 7.35437C13.6813 7.99159 13.6813 9.13039 14.4855 9.76761ZM19.7324 7.10958C18.669 7.54292 18.5931 9.44055 19.6169 9.99261C21.3401 10.9218 23.0133 8.56277 21.4882 7.35437C20.8687 6.86324 20.4726 6.8081 19.7324 7.10958ZM98.4116 7.30946C96.7117 8.69617 98.0726 10.2285 101.004 10.2285C103.324 10.2285 104.169 9.78295 104.169 8.56099C104.169 6.99486 99.9273 6.07283 98.4116 7.30946ZM84.764 36.6053C83.5624 38.1443 84.5484 39.1321 87.286 39.1321C89.2535 39.1321 89.372 39.1046 89.8079 38.5463C91.0096 37.0073 90.0235 36.0194 87.286 36.0194C85.3184 36.0194 85.1999 36.047 84.764 36.6053ZM93.6836 36.467C93.4624 36.7131 93.2817 37.212 93.2817 37.5758C93.2817 39.0543 93.5566 39.1321 98.7803 39.1321H103.475L103.933 38.5463C104.184 38.2241 104.39 37.7875 104.39 37.5758C104.39 37.3641 104.184 36.9275 103.933 36.6053L103.475 36.0194H98.7803C94.356 36.0194 94.0625 36.0452 93.6836 36.467ZM12.8005 60.921C11.326 62.4065 12.5487 63.5891 15.5592 63.5891C18.1718 63.5891 18.7593 63.3034 18.7593 62.0327C18.7593 60.7621 18.1718 60.4764 15.5592 60.4764C13.5361 60.4764 13.1858 60.5328 12.8005 60.921ZM12.8005 66.9241C12.5553 67.1711 12.3591 67.6651 12.3591 68.0358C12.3591 68.0897 12.3586 68.1418 12.3581 68.192C12.3555 68.4762 12.3533 68.7028 12.4427 68.8834C12.7943 69.5939 14.5611 69.5936 23.2774 69.5922C23.6699 69.5922 24.0764 69.5921 24.4975 69.5921C24.9185 69.5921 25.3251 69.5922 25.7175 69.5922C34.4338 69.5936 36.2006 69.5939 36.5522 68.8834C36.6416 68.7028 36.6394 68.4762 36.6368 68.192C36.6363 68.1417 36.6358 68.0897 36.6358 68.0358C36.6358 67.9819 36.6363 67.9298 36.6368 67.8796C36.6394 67.5954 36.6416 67.3688 36.5522 67.1882C36.2006 66.4777 34.4338 66.478 25.7175 66.4793C25.325 66.4794 24.9185 66.4794 24.4975 66.4794C13.5361 66.4794 13.2304 66.491 12.8005 66.9241ZM12.8005 71.5931C12.5553 71.8402 12.3591 72.3342 12.3591 72.7048C12.3591 72.7587 12.3586 72.8108 12.3581 72.8611C12.3555 73.1452 12.3533 73.3718 12.4427 73.5524C12.7943 74.2629 14.5611 74.2626 23.2774 74.2613C23.6699 74.2612 24.0764 74.2612 24.4975 74.2612C24.9185 74.2612 25.3251 74.2612 25.7175 74.2613C34.4338 74.2626 36.2006 74.2629 36.5522 73.5524C36.6416 73.3718 36.6394 73.1452 36.6368 72.861C36.6363 72.8108 36.6358 72.7587 36.6358 72.7048C36.6358 72.6509 36.6363 72.5989 36.6368 72.5486C36.6394 72.2644 36.6416 72.0378 36.5522 71.8572C36.2006 71.1467 34.4338 71.147 25.7175 71.1483C25.325 71.1484 24.9185 71.1485 24.4975 71.1485C13.5361 71.1485 13.2304 71.16 12.8005 71.5931ZM12.8005 76.2622C12.5553 76.5092 12.3591 77.0032 12.3591 77.3739C12.3591 77.4278 12.3586 77.4798 12.3581 77.5301C12.3555 77.8143 12.3533 78.0409 12.4427 78.2215C12.7943 78.932 14.5611 78.9317 23.2774 78.9303C23.6699 78.9303 24.0764 78.9302 24.4975 78.9302C24.9185 78.9302 25.3251 78.9303 25.7175 78.9303C34.4338 78.9317 36.2006 78.932 36.5522 78.2215C36.6416 78.0409 36.6394 77.8143 36.6368 77.5301C36.6363 77.4798 36.6358 77.4278 36.6358 77.3739C36.6358 77.32 36.6363 77.2679 36.6368 77.2177C36.6394 76.9335 36.6416 76.7069 36.5522 76.5262C36.2006 75.8158 34.4338 75.8161 25.7175 75.8174C25.325 75.8175 24.9185 75.8175 24.4975 75.8175C13.5361 75.8175 13.2304 75.8291 12.8005 76.2622Z"/>
<path fill-rule="evenodd" clip-rule="evenodd" d="M1.83996 0.560021C1.24253 0.920872 0.759862 1.45025 0.460596 2.07346L0 3.03173V43.3565V83.6813L0.462582 84.6438C0.771118 85.2857 1.23723 85.7908 1.86136 86.1592L2.79756 86.712H20.8202C36.9064 86.712 39.3599 86.7786 39.6933 85.9644C39.7781 85.7571 39.7256 85.4927 39.7256 85.1556C39.7256 84.817 39.7756 84.5518 39.6893 84.3441C39.3528 83.5346 36.9444 83.5993 21.4258 83.5993C11.8464 83.5993 3.85162 83.5386 3.65961 83.4643C3.3449 83.3427 3.31047 81.4311 3.31047 64.1164V44.9038L7.7796 44.9638L12.2487 45.024L12.3591 49.9554C12.4312 53.1813 12.3056 54.9438 13.1163 55.9037C14.2201 57.2108 17.0597 57.0302 24.4975 57.0302C31.9352 57.0302 34.7748 57.2108 35.8786 55.9037C36.6893 54.9438 36.5637 53.1813 36.6358 49.9554L36.7462 45.024L73.2165 44.9678L109.687 44.9115V64.1204C109.687 81.4313 109.652 83.3427 109.338 83.4643C109.271 83.4902 107.463 83.5144 104.393 83.535C103.289 83.5419 102.958 86.4909 104.393 86.712H110.2L111.136 86.1592C111.471 85.9615 111.746 85.8642 111.972 85.6986C113.105 84.868 112.997 82.3191 112.997 56.7276V29.7738L112.455 29.2282C111.765 28.5325 110.919 28.5325 110.229 29.2282L109.687 29.7738V35.7878V41.8015L73.2165 41.7452L36.7462 41.689L36.6358 38.3137C36.563 36.0869 36.6104 34.7565 35.9859 33.9625C34.983 32.6874 32.2472 32.7956 24.4975 32.7956C16.7477 32.7956 14.0119 32.6874 13.009 33.9625C12.3845 34.7565 12.4319 36.0869 12.3591 38.3137L12.2487 41.689L7.7796 41.7492L3.31047 41.8093V29.4652V17.1209H56.4986H109.687V20.0924C109.687 23.5531 109.96 24.2357 111.342 24.2357C111.721 24.2357 112.013 24.2427 112.239 24.1225C112.997 23.7176 112.997 21.8696 112.997 13.4497V13.0479V12.8315C112.997 3.96592 112.997 2.13108 112.087 1.21395C111.849 0.97461 111.549 0.797771 111.171 0.574786L111.136 0.553796L110.2 0.00106937H96.9563C85.4751 0.00106937 83.3952 -0.0579146 83.0416 0.700246C82.9383 0.921799 82.9824 1.21313 82.9824 1.59611C82.9824 1.94335 82.9511 2.21132 83.0483 2.41808C83.3965 3.15917 85.3939 3.11377 96.3891 3.11377C103.319 3.11377 109.146 3.17447 109.338 3.24873C109.643 3.36656 109.687 4.05692 109.687 8.69595V14.0082H56.4986H3.31047V8.69595C3.31047 4.05692 3.35461 3.36656 3.65961 3.24873C3.85162 3.17447 20.5787 3.11377 40.8311 3.11377H77.6536L78.1109 2.52791C78.688 1.78887 78.688 1.32597 78.1109 0.586923L77.6536 0.00106937L40.2061 0.00307013L2.75872 0.00529397L1.83996 0.560021ZM33.2812 53.7618C33.6615 53.3787 33.6615 36.447 33.2812 36.0639C32.901 35.6808 16.0939 35.6808 15.7137 36.0639C15.3334 36.447 15.3334 53.3787 15.7137 53.7618C16.0939 54.1449 32.901 54.1449 33.2812 53.7618Z"/>
</mask>
<path d="M48.6528 50.3394C47.7656 50.7287 46.8374 51.8642 46.6765 52.7566C46.2735 54.9918 46.6767 76.6735 47.1327 77.2885C47.3357 77.5624 47.4351 77.7875 47.5835 77.9727C48.1879 78.7268 48.8074 78.789 61.3555 78.8201C63.095 78.3979 62.5433 75.9075 61.3555 75.7074C54.3942 75.6567 50.0135 75.643 49.9218 75.5507C49.6411 75.2679 49.5394 71.7857 49.8042 71.5191C49.858 71.4648 53.5898 71.3975 60.9141 71.3717C62.8743 71.241 62.5433 68.2589 60.9141 68.1752L49.7673 68.1469L49.7091 60.9475C49.6676 55.8202 49.723 53.6607 49.9015 53.4437C50.1626 53.1268 98.1549 52.9612 98.9648 53.2742C99.2736 53.3936 99.314 54.2687 99.314 60.8345V68.2601V71.3708V73.4592C99.314 75.1585 99.2489 75.5727 98.9648 75.6826C98.8819 75.7146 98.1791 75.7413 96.999 75.7631C95.6748 75.783 95.2334 78.428 96.999 78.92L99.8657 78.926L100.732 78.428C101.271 78.118 101.792 77.5593 102.111 76.9499L102.624 75.9698V64.4784V52.987L102.111 52.0069C101.792 51.3962 101.272 50.8401 100.732 50.5304L99.8657 50.0339L74.5958 50.039C54.0787 50.043 49.1993 50.0995 48.6528 50.3394Z" fill="#F5A16F"/>
<path d="M54.1453 57.025C53.1016 57.7614 53.2873 58.8266 54.69 60.1511L55.5055 60.921L54.69 61.691C52.9348 63.3483 53.2129 65.1454 55.2245 65.1454C56.0727 65.1454 59.5884 61.7421 59.5884 60.921C59.5884 59.272 55.3055 56.2064 54.1453 57.025Z" fill="#F5A16F"/>
<path d="M44.5809 84.0439C44.0129 84.6162 44.0166 85.6058 44.5896 86.2253L45.0396 86.712H64.0039C65.7695 86.3798 65.4385 83.8228 64.0039 83.6014C45.2169 83.6119 44.9479 83.6743 44.5809 84.0439Z" fill="#F5A16F"/>
<path fill-rule="evenodd" clip-rule="evenodd" d="M9.36972 7.43931C8.3757 8.44071 9.08944 10.2285 10.4831 10.2285C11.2189 10.2285 12.1384 9.30226 12.1384 8.56099C12.1384 7.81972 11.2189 6.89347 10.4831 6.89347C10.1686 6.89347 9.66767 7.13915 9.36972 7.43931ZM14.4855 9.76761C15.4555 10.5364 16.4382 10.3306 16.8825 9.26602C17.5748 7.60762 15.8757 6.2527 14.4855 7.35437C13.6813 7.99159 13.6813 9.13039 14.4855 9.76761ZM19.7324 7.10958C18.669 7.54292 18.5931 9.44055 19.6169 9.99261C21.3401 10.9218 23.0133 8.56277 21.4882 7.35437C20.8687 6.86324 20.4726 6.8081 19.7324 7.10958ZM98.4116 7.30946C96.7117 8.69617 98.0726 10.2285 101.004 10.2285C103.324 10.2285 104.169 9.78295 104.169 8.56099C104.169 6.99486 99.9273 6.07283 98.4116 7.30946ZM84.764 36.6053C83.5624 38.1443 84.5484 39.1321 87.286 39.1321C89.2535 39.1321 89.372 39.1046 89.8079 38.5463C91.0096 37.0073 90.0235 36.0194 87.286 36.0194C85.3184 36.0194 85.1999 36.047 84.764 36.6053ZM93.6836 36.467C93.4624 36.7131 93.2817 37.212 93.2817 37.5758C93.2817 39.0543 93.5566 39.1321 98.7803 39.1321H103.475L103.933 38.5463C104.184 38.2241 104.39 37.7875 104.39 37.5758C104.39 37.3641 104.184 36.9275 103.933 36.6053L103.475 36.0194H98.7803C94.356 36.0194 94.0625 36.0452 93.6836 36.467ZM12.8005 60.921C11.326 62.4065 12.5487 63.5891 15.5592 63.5891C18.1718 63.5891 18.7593 63.3034 18.7593 62.0327C18.7593 60.7621 18.1718 60.4764 15.5592 60.4764C13.5361 60.4764 13.1858 60.5328 12.8005 60.921ZM12.8005 66.9241C12.5553 67.1711 12.3591 67.6651 12.3591 68.0358C12.3591 68.0897 12.3586 68.1418 12.3581 68.192C12.3555 68.4762 12.3533 68.7028 12.4427 68.8834C12.7943 69.5939 14.5611 69.5936 23.2774 69.5922C23.6699 69.5922 24.0764 69.5921 24.4975 69.5921C24.9185 69.5921 25.3251 69.5922 25.7175 69.5922C34.4338 69.5936 36.2006 69.5939 36.5522 68.8834C36.6416 68.7028 36.6394 68.4762 36.6368 68.192C36.6363 68.1417 36.6358 68.0897 36.6358 68.0358C36.6358 67.9819 36.6363 67.9298 36.6368 67.8796C36.6394 67.5954 36.6416 67.3688 36.5522 67.1882C36.2006 66.4777 34.4338 66.478 25.7175 66.4793C25.325 66.4794 24.9185 66.4794 24.4975 66.4794C13.5361 66.4794 13.2304 66.491 12.8005 66.9241ZM12.8005 71.5931C12.5553 71.8402 12.3591 72.3342 12.3591 72.7048C12.3591 72.7587 12.3586 72.8108 12.3581 72.8611C12.3555 73.1452 12.3533 73.3718 12.4427 73.5524C12.7943 74.2629 14.5611 74.2626 23.2774 74.2613C23.6699 74.2612 24.0764 74.2612 24.4975 74.2612C24.9185 74.2612 25.3251 74.2612 25.7175 74.2613C34.4338 74.2626 36.2006 74.2629 36.5522 73.5524C36.6416 73.3718 36.6394 73.1452 36.6368 72.861C36.6363 72.8108 36.6358 72.7587 36.6358 72.7048C36.6358 72.6509 36.6363 72.5989 36.6368 72.5486C36.6394 72.2644 36.6416 72.0378 36.5522 71.8572C36.2006 71.1467 34.4338 71.147 25.7175 71.1483C25.325 71.1484 24.9185 71.1485 24.4975 71.1485C13.5361 71.1485 13.2304 71.16 12.8005 71.5931ZM12.8005 76.2622C12.5553 76.5092 12.3591 77.0032 12.3591 77.3739C12.3591 77.4278 12.3586 77.4798 12.3581 77.5301C12.3555 77.8143 12.3533 78.0409 12.4427 78.2215C12.7943 78.932 14.5611 78.9317 23.2774 78.9303C23.6699 78.9303 24.0764 78.9302 24.4975 78.9302C24.9185 78.9302 25.3251 78.9303 25.7175 78.9303C34.4338 78.9317 36.2006 78.932 36.5522 78.2215C36.6416 78.0409 36.6394 77.8143 36.6368 77.5301C36.6363 77.4798 36.6358 77.4278 36.6358 77.3739C36.6358 77.32 36.6363 77.2679 36.6368 77.2177C36.6394 76.9335 36.6416 76.7069 36.5522 76.5262C36.2006 75.8158 34.4338 75.8161 25.7175 75.8174C25.325 75.8175 24.9185 75.8175 24.4975 75.8175C13.5361 75.8175 13.2304 75.8291 12.8005 76.2622Z" fill="#F5A16F"/>
<path fill-rule="evenodd" clip-rule="evenodd" d="M1.83996 0.560021C1.24253 0.920872 0.759862 1.45025 0.460596 2.07346L0 3.03173V43.3565V83.6813L0.462582 84.6438C0.771118 85.2857 1.23723 85.7908 1.86136 86.1592L2.79756 86.712H20.8202C36.9064 86.712 39.3599 86.7786 39.6933 85.9644C39.7781 85.7571 39.7256 85.4927 39.7256 85.1556C39.7256 84.817 39.7756 84.5518 39.6893 84.3441C39.3528 83.5346 36.9444 83.5993 21.4258 83.5993C11.8464 83.5993 3.85162 83.5386 3.65961 83.4643C3.3449 83.3427 3.31047 81.4311 3.31047 64.1164V44.9038L7.7796 44.9638L12.2487 45.024L12.3591 49.9554C12.4312 53.1813 12.3056 54.9438 13.1163 55.9037C14.2201 57.2108 17.0597 57.0302 24.4975 57.0302C31.9352 57.0302 34.7748 57.2108 35.8786 55.9037C36.6893 54.9438 36.5637 53.1813 36.6358 49.9554L36.7462 45.024L73.2165 44.9678L109.687 44.9115V64.1204C109.687 81.4313 109.652 83.3427 109.338 83.4643C109.271 83.4902 107.463 83.5144 104.393 83.535C103.289 83.5419 102.958 86.4909 104.393 86.712H110.2L111.136 86.1592C111.471 85.9615 111.746 85.8642 111.972 85.6986C113.105 84.868 112.997 82.3191 112.997 56.7276V29.7738L112.455 29.2282C111.765 28.5325 110.919 28.5325 110.229 29.2282L109.687 29.7738V35.7878V41.8015L73.2165 41.7452L36.7462 41.689L36.6358 38.3137C36.563 36.0869 36.6104 34.7565 35.9859 33.9625C34.983 32.6874 32.2472 32.7956 24.4975 32.7956C16.7477 32.7956 14.0119 32.6874 13.009 33.9625C12.3845 34.7565 12.4319 36.0869 12.3591 38.3137L12.2487 41.689L7.7796 41.7492L3.31047 41.8093V29.4652V17.1209H56.4986H109.687V20.0924C109.687 23.5531 109.96 24.2357 111.342 24.2357C111.721 24.2357 112.013 24.2427 112.239 24.1225C112.997 23.7176 112.997 21.8696 112.997 13.4497V13.0479V12.8315C112.997 3.96592 112.997 2.13108 112.087 1.21395C111.849 0.97461 111.549 0.797771 111.171 0.574786L111.136 0.553796L110.2 0.00106937H96.9563C85.4751 0.00106937 83.3952 -0.0579146 83.0416 0.700246C82.9383 0.921799 82.9824 1.21313 82.9824 1.59611C82.9824 1.94335 82.9511 2.21132 83.0483 2.41808C83.3965 3.15917 85.3939 3.11377 96.3891 3.11377C103.319 3.11377 109.146 3.17447 109.338 3.24873C109.643 3.36656 109.687 4.05692 109.687 8.69595V14.0082H56.4986H3.31047V8.69595C3.31047 4.05692 3.35461 3.36656 3.65961 3.24873C3.85162 3.17447 20.5787 3.11377 40.8311 3.11377H77.6536L78.1109 2.52791C78.688 1.78887 78.688 1.32597 78.1109 0.586923L77.6536 0.00106937L40.2061 0.00307013L2.75872 0.00529397L1.83996 0.560021ZM33.2812 53.7618C33.6615 53.3787 33.6615 36.447 33.2812 36.0639C32.901 35.6808 16.0939 35.6808 15.7137 36.0639C15.3334 36.447 15.3334 53.3787 15.7137 53.7618C16.0939 54.1449 32.901 54.1449 33.2812 53.7618Z" fill="#F5A16F"/>
<path d="M110.882 0.984363C110.894 0.991421 110.906 0.998434 110.917 1.0054L111.426 0.144171C111.414 0.137237 111.402 0.130257 111.39 0.123228L110.882 0.984363ZM112.497 12.8315C112.497 12.9032 112.497 12.9753 112.497 13.0479H113.497C113.497 12.9753 113.497 12.9032 113.497 12.8315L112.497 12.8315ZM112.497 13.0479C112.497 13.1835 112.497 13.3174 112.497 13.4497L113.497 13.4497C113.497 13.3174 113.497 13.1835 113.497 13.0479H112.497ZM1.83996 0.560021L1.32309 -0.296043L1.32294 -0.295955L1.83996 0.560021ZM0.460596 2.07346L1.36189 2.50667L1.36205 2.50634L0.460596 2.07346ZM0 3.03173L-0.901292 2.59851L-1 2.80387V3.03173H0ZM0 83.6813H-1V83.9091L-0.901309 84.1145L0 83.6813ZM0.462582 84.6438L-0.438726 85.077L-0.438704 85.077L0.462582 84.6438ZM1.86136 86.1592L2.36977 85.2981L2.36969 85.2981L1.86136 86.1592ZM2.79756 86.712L2.28916 87.5731L2.5244 87.712H2.79756V86.712ZM3.65961 83.4643L4.02033 82.5316L4.02007 82.5315L3.65961 83.4643ZM3.31047 44.9038L3.3239 43.9038L2.31047 43.8902V44.9038H3.31047ZM7.7796 44.9638L7.79308 43.9639H7.79303L7.7796 44.9638ZM12.2487 45.024L13.2485 45.0017L13.2269 44.0371L12.2622 44.0241L12.2487 45.024ZM12.3591 49.9554L13.3588 49.9331L13.3588 49.9331L12.3591 49.9554ZM36.6358 49.9554L35.6361 49.9331V49.9331L36.6358 49.9554ZM36.7462 45.024L36.7446 44.024L35.7683 44.0255L35.7464 45.0017L36.7462 45.024ZM73.2165 44.9678L73.218 45.9678L73.2165 44.9678ZM109.687 44.9115H110.687V43.91L109.685 43.9115L109.687 44.9115ZM109.338 83.4643L108.977 82.5315L108.977 82.5316L109.338 83.4643ZM44.5809 84.0439L43.8712 83.3394L44.5809 84.0439ZM44.5896 86.2253L45.3238 85.5464L45.3237 85.5463L44.5896 86.2253ZM45.0396 86.712L44.3053 87.3909L44.6022 87.712H45.0396V86.712ZM110.2 86.712V87.712H110.473L110.708 87.5731L110.2 86.712ZM111.136 86.1592L110.627 85.2981V85.2981L111.136 86.1592ZM112.997 29.7738H113.997V29.3616L113.707 29.0692L112.997 29.7738ZM112.455 29.2282L111.746 29.9326L111.746 29.9328L112.455 29.2282ZM110.229 29.2282L110.938 29.9328L110.938 29.9326L110.229 29.2282ZM109.687 29.7738L108.977 29.0692L108.687 29.3616V29.7738H109.687ZM109.687 41.8015L109.685 42.8015L110.687 42.803V41.8015H109.687ZM73.2165 41.7453L73.218 40.7453L73.2165 41.7453ZM36.7462 41.689L35.7467 41.7217L35.7783 42.6875L36.7446 42.689L36.7462 41.689ZM36.6358 38.3137L37.6353 38.281V38.281L36.6358 38.3137ZM12.3591 38.3137L11.3596 38.281V38.281L12.3591 38.3137ZM12.2487 41.689L12.2622 42.6889L13.217 42.676L13.2482 41.7217L12.2487 41.689ZM7.7796 41.7492L7.79303 42.7492L7.79308 42.7492L7.7796 41.7492ZM3.31047 41.8093H2.31047V42.8228L3.3239 42.8092L3.31047 41.8093ZM3.31047 17.1209V16.1209H2.31047V17.1209H3.31047ZM109.687 17.1209H110.687V16.1209H109.687V17.1209ZM111.136 0.553796L110.627 1.41492L110.628 1.41498L111.136 0.553796ZM110.2 0.00106937L110.708 -0.860052L110.473 -0.998931H110.2V0.00106937ZM109.338 3.24873L108.977 4.1814L108.977 4.18153L109.338 3.24873ZM109.687 14.0082V15.0082H110.687V14.0082H109.687ZM3.31047 14.0082H2.31047V15.0082H3.31047V14.0082ZM3.65961 3.24873L4.02 4.18153L4.02033 4.1814L3.65961 3.24873ZM77.6536 3.11377V4.11377H78.1416L78.4419 3.72906L77.6536 3.11377ZM78.1109 2.52791L77.3227 1.91244L77.3226 1.91262L78.1109 2.52791ZM78.1109 0.586923L77.3226 1.20222L77.3227 1.2024L78.1109 0.586923ZM77.6536 0.00106937L78.4419 -0.614226L78.1416 -0.998957L77.6536 -0.998931L77.6536 0.00106937ZM40.2061 0.00307013L40.206 -0.99693H40.206L40.2061 0.00307013ZM2.75872 0.00529397L2.75866 -0.994706L2.48022 -0.99469L2.24185 -0.85077L2.75872 0.00529397ZM9.36972 7.43931L8.66001 6.73482L9.36972 7.43931ZM14.4855 7.35437L15.1065 8.13817L15.1066 8.13811L14.4855 7.35437ZM14.4855 9.76761L15.1067 8.98393L15.1065 8.98382L14.4855 9.76761ZM16.8825 9.26602L15.9597 8.88077L15.9596 8.88088L16.8825 9.26602ZM19.7324 7.10958L19.3552 6.18345L19.355 6.18353L19.7324 7.10958ZM19.6169 9.99261L19.1423 10.8728L19.1423 10.8728L19.6169 9.99261ZM21.4882 7.35437L20.867 8.13799L20.8672 8.13815L21.4882 7.35437ZM98.4116 7.30946L99.0437 8.08433L99.0437 8.08431L98.4116 7.30946ZM84.7641 36.6053L85.5522 37.2207L85.5523 37.2207L84.7641 36.6053ZM89.8079 38.5463L89.0197 37.9308L89.0197 37.9309L89.8079 38.5463ZM93.6836 36.467L94.4274 37.1353L94.4274 37.1353L93.6836 36.467ZM103.475 39.1321V40.1321H103.963L104.264 39.7474L103.475 39.1321ZM103.933 38.5463L103.144 37.9308L103.144 37.931L103.933 38.5463ZM103.933 36.6053L103.144 37.2206L103.144 37.2208L103.933 36.6053ZM103.475 36.0194L104.264 35.4041L103.963 35.0194H103.475V36.0194ZM48.6528 50.3394L49.0546 51.2551L49.0548 51.2551L48.6528 50.3394ZM46.6765 52.7566L47.6606 52.9341L47.6606 52.9341L46.6765 52.7566ZM47.1327 77.2885L47.936 76.693L47.936 76.6929L47.1327 77.2885ZM99.8657 78.926L99.8636 79.926L100.132 79.9266L100.364 79.7929L99.8657 78.926ZM100.732 78.428L101.23 79.2949L101.23 79.2948L100.732 78.428ZM102.111 76.9499L102.997 77.4138L102.997 77.4137L102.111 76.9499ZM102.624 75.9698L103.51 76.4337L103.624 76.2158V75.9698H102.624ZM102.624 52.987H103.624V52.741L103.51 52.5231L102.624 52.987ZM102.111 52.0069L102.997 51.5431L102.997 51.5431L102.111 52.0069ZM100.732 50.5304L101.229 49.6629L101.229 49.6628L100.732 50.5304ZM99.8657 50.0339L100.363 49.1663L100.132 49.0339L99.8655 49.0339L99.8657 50.0339ZM74.5958 50.039L74.596 51.039H74.596L74.5958 50.039ZM98.9649 53.2742L99.3255 52.3415L99.3254 52.3415L98.9649 53.2742ZM49.7673 68.1469L48.7674 68.155L48.7754 69.1444L49.7648 69.1469L49.7673 68.1469ZM49.7091 60.9475L48.7091 60.9556V60.9556L49.7091 60.9475ZM49.9015 53.4437L49.1298 52.8077L49.1293 52.8083L49.9015 53.4437ZM54.1453 57.025L54.7218 57.8421L54.7219 57.8421L54.1453 57.025ZM54.69 60.1511L54.0035 60.8782L54.0035 60.8782L54.69 60.1511ZM55.5055 60.921L56.192 61.6481L56.9621 60.921L56.192 60.1939L55.5055 60.921ZM54.69 61.691L54.0035 60.9639L54.0035 60.9639L54.69 61.691ZM12.8005 60.921L13.5102 61.6255L12.8005 60.921ZM12.8005 66.9241L12.0908 66.2196L12.8005 66.9241ZM12.8005 71.5931L12.0908 70.8886L12.8005 71.5931ZM98.9649 75.6826L99.3255 76.6153L99.3255 76.6153L98.9649 75.6826ZM49.9218 75.5507L49.2121 76.2552L49.9218 75.5507ZM49.8042 71.5191L50.5136 72.2239L50.5149 72.2226L49.8042 71.5191ZM12.8005 76.2622L12.0908 75.5577L12.8005 76.2622ZM60.9141 68.1752L60.9654 67.1765L60.941 67.1752L60.9166 67.1752L60.9141 68.1752ZM60.9141 71.3717L60.9176 72.3717L60.9491 72.3716L60.9806 72.3695L60.9141 71.3717ZM83.0483 2.41808L82.1432 2.84335L82.1432 2.84336L83.0483 2.41808ZM83.0416 0.700246L82.1353 0.277574V0.277577L83.0416 0.700246ZM112.087 1.21395L112.796 0.509348V0.509344L112.087 1.21395ZM112.239 24.1225L111.768 23.2402V23.2402L112.239 24.1225ZM13.009 33.9625L12.223 33.3443L13.009 33.9625ZM35.9859 33.9625L35.1999 34.5807L35.9859 33.9625ZM111.972 85.6986L111.381 84.8921H111.381L111.972 85.6986ZM35.8786 55.9037L36.6426 56.5489L35.8786 55.9037ZM13.1163 55.9037L13.8803 55.2585H13.8803L13.1163 55.9037ZM39.6893 84.3441L38.7659 84.728L38.7659 84.728L39.6893 84.3441ZM39.6933 85.9644L38.7678 85.5855L38.7678 85.5855L39.6933 85.9644ZM47.5835 77.9727L48.3638 77.3473L47.5835 77.9727ZM36.5522 67.1881L37.4485 66.7447L37.4485 66.7447L36.5522 67.1881ZM36.5522 68.8834L37.4485 69.3269L37.4485 69.3269L36.5522 68.8834ZM12.4427 68.8834L13.339 68.4399H13.339L12.4427 68.8834ZM36.5522 71.8572L37.4485 71.4137H37.4485L36.5522 71.8572ZM36.5522 73.5524L37.4485 73.9959H37.4485L36.5522 73.5524ZM12.4427 73.5524L13.339 73.109H13.339L12.4427 73.5524ZM36.5522 76.5262L37.4485 76.0828H37.4485L36.5522 76.5262ZM36.5522 78.2215L37.4485 78.665H37.4485L36.5522 78.2215ZM12.4427 78.2215L13.339 77.778L13.339 77.778L12.4427 78.2215ZM61.3555 75.7074L61.5217 74.7213L61.4428 74.708L61.3628 74.7074L61.3555 75.7074ZM61.3555 78.8202L61.353 79.8201L61.4739 79.8204L61.5914 79.7919L61.3555 78.8202ZM96.999 75.7631L97.0141 76.7629L97.0174 76.7629L96.999 75.7631ZM96.999 78.92L96.7306 79.8833L96.8613 79.9197L96.9969 79.92L96.999 78.92ZM64.0039 83.6014L64.1565 82.6131L64.0804 82.6013L64.0033 82.6014L64.0039 83.6014ZM64.0039 86.712V87.712H64.0972L64.1888 87.6947L64.0039 86.712ZM104.393 83.535L104.399 84.5349H104.399L104.393 83.535ZM104.393 86.712L104.24 87.7003L104.316 87.712H104.393V86.712ZM12.3581 68.192L13.3581 68.2013V68.2013L12.3581 68.192ZM23.2774 69.5922L23.2776 70.5922H23.2776L23.2774 69.5922ZM25.7175 69.5922L25.7173 70.5922H25.7173L25.7175 69.5922ZM36.6368 68.192L35.6368 68.2013V68.2013L36.6368 68.192ZM36.6368 67.8796L35.6368 67.8702V67.8702L36.6368 67.8796ZM25.7175 66.4793L25.7173 65.4793H25.7173L25.7175 66.4793ZM12.3581 72.8611L13.3581 72.8704V72.8704L12.3581 72.8611ZM23.2774 74.2613L23.2776 75.2613H23.2776L23.2774 74.2613ZM25.7175 74.2613L25.7173 75.2613H25.7173L25.7175 74.2613ZM36.6368 72.861L35.6368 72.8704V72.8704L36.6368 72.861ZM36.6368 72.5486L35.6368 72.5393V72.5393L36.6368 72.5486ZM25.7175 71.1483L25.7173 70.1483H25.7173L25.7175 71.1483ZM12.3581 77.5301L13.3581 77.5394V77.5394L12.3581 77.5301ZM23.2774 78.9303L23.2776 79.9303H23.2776L23.2774 78.9303ZM25.7175 78.9303L25.7173 79.9303H25.7173L25.7175 78.9303ZM36.6368 77.5301L35.6368 77.5394V77.5394L36.6368 77.5301ZM36.6368 77.2177L35.6368 77.2083V77.2083L36.6368 77.2177ZM25.7175 75.8174L25.7173 74.8174H25.7173L25.7175 75.8174ZM112.997 13.4497H111.997V13.4498L112.997 13.4497ZM112.997 12.8315L111.997 12.8315V12.8315H112.997ZM111.171 0.574786L110.663 1.43597L110.663 1.43602L111.171 0.574786ZM1.32294 -0.295955C0.560803 0.164381 -0.0564005 0.839972 -0.440855 1.64058L1.36205 2.50634C1.57613 2.06053 1.92425 1.67736 2.35697 1.416L1.32294 -0.295955ZM-0.440696 1.64025L-0.901292 2.59851L0.901292 3.46494L1.36189 2.50667L-0.440696 1.64025ZM-1 3.03173V43.3565H1V3.03173H-1ZM-1 43.3565V83.6813H1V43.3565H-1ZM-0.901309 84.1145L-0.438726 85.077L1.36389 84.2106L0.901309 83.2481L-0.901309 84.1145ZM-0.438704 85.077C-0.0428951 85.9005 0.56151 86.5532 1.35304 87.0204L2.36969 85.2981C1.91295 85.0285 1.58513 84.6709 1.36387 84.2106L-0.438704 85.077ZM1.35296 87.0204L2.28916 87.5731L3.30596 85.8508L2.36977 85.2981L1.35296 87.0204ZM2.79756 87.712H20.8202V85.712H2.79756V87.712ZM21.4258 82.5993C16.6379 82.5993 12.2469 82.5841 9.03002 82.5597C7.42112 82.5474 6.10822 82.5329 5.18689 82.5169C4.72548 82.5088 4.36667 82.5005 4.11949 82.492C3.99483 82.4877 3.90573 82.4837 3.84873 82.4801C3.81914 82.4782 3.80778 82.477 3.80856 82.4771C3.8095 82.4772 3.81263 82.4776 3.8175 82.4782C3.82213 82.4788 3.83061 82.48 3.84187 82.4819C3.8436 82.4822 3.92331 82.4941 4.02033 82.5316L3.29889 84.397C3.40191 84.4368 3.49143 84.451 3.50673 84.4536C3.54075 84.4594 3.57108 84.4631 3.59201 84.4653C3.63488 84.47 3.68048 84.4734 3.72234 84.4761C3.80822 84.4815 3.91992 84.4864 4.05096 84.4908C4.31516 84.4999 4.68728 84.5085 5.15206 84.5166C6.08312 84.5328 7.40362 84.5474 9.01483 84.5596C12.2381 84.5841 16.6343 84.5993 21.4258 84.5993V82.5993ZM4.02007 82.5315C4.22127 82.6093 4.35011 82.7401 4.42146 82.8415C4.48436 82.9308 4.5058 83.0007 4.50727 83.0053C4.50875 83.01 4.4894 82.9423 4.46715 82.7236C4.42443 82.3035 4.39088 81.5509 4.36686 80.2197C4.31912 77.5736 4.31047 72.7782 4.31047 64.1164H2.31047C2.31047 72.7693 2.31903 77.587 2.36718 80.2558C2.39111 81.582 2.42518 82.4123 2.47742 82.9259C2.50266 83.1741 2.53763 83.411 2.60123 83.6111C2.65169 83.7699 2.81137 84.2086 3.29915 84.3971L4.02007 82.5315ZM4.31047 64.1164V44.9038H2.31047V64.1164H4.31047ZM3.29704 45.9037L7.76617 45.9637L7.79303 43.9639L3.3239 43.9038L3.29704 45.9037ZM7.76611 45.9637L12.2352 46.0239L12.2622 44.0241L7.79308 43.9639L7.76611 45.9637ZM11.249 45.0464L11.3593 49.9778L13.3588 49.9331L13.2485 45.0017L11.249 45.0464ZM37.6356 49.9778L37.7459 45.0464L35.7464 45.0017L35.6361 49.9331L37.6356 49.9778ZM36.7477 46.024L73.218 45.9678L73.2149 43.9678L36.7446 44.024L36.7477 46.024ZM73.218 45.9678L109.688 45.9115L109.685 43.9115L73.2149 43.9678L73.218 45.9678ZM108.687 44.9115V64.1204H110.687V44.9115H108.687ZM108.687 64.1204C108.687 72.7803 108.678 77.5747 108.63 80.2203C108.606 81.5512 108.573 82.3037 108.53 82.7236C108.508 82.9423 108.489 83.01 108.49 83.0053C108.491 83.0006 108.513 82.9307 108.576 82.8414C108.647 82.7401 108.776 82.6093 108.977 82.5315L109.698 84.3971C110.186 84.2086 110.346 83.77 110.396 83.6112C110.46 83.4111 110.495 83.1742 110.52 82.9261C110.572 82.4125 110.606 81.5823 110.63 80.2564C110.678 77.5882 110.687 72.7714 110.687 64.1204H108.687ZM43.8712 83.3394C42.8981 84.3198 42.9461 85.9211 43.8554 86.9043L45.3237 85.5463C45.0872 85.2906 45.1277 84.9126 45.2907 84.7484L43.8712 83.3394ZM43.8553 86.9042L44.3053 87.3909L45.7738 86.0331L45.3238 85.5464L43.8553 86.9042ZM110.708 87.5731L111.644 87.0204L110.627 85.2981L109.691 85.8508L110.708 87.5731ZM113.997 56.7276V29.7738H111.997V56.7276H113.997ZM113.707 29.0692L113.165 28.5236L111.746 29.9328L112.288 30.4784L113.707 29.0692ZM113.165 28.5238C112.675 28.03 112.048 27.7064 111.342 27.7064C110.636 27.7064 110.009 28.03 109.519 28.5238L110.938 29.9326C111.139 29.7307 111.28 29.7064 111.342 29.7064C111.404 29.7064 111.545 29.7307 111.746 29.9326L113.165 28.5238ZM109.519 28.5236L108.977 29.0692L110.396 30.4784L110.938 29.9328L109.519 28.5236ZM108.687 29.7738V35.7878H110.687V29.7738H108.687ZM108.687 35.7878V41.8015H110.687V35.7878H108.687ZM109.688 40.8015L73.218 40.7453L73.2149 42.7452L109.685 42.8015L109.688 40.8015ZM73.218 40.7453L36.7477 40.689L36.7446 42.689L73.2149 42.7452L73.218 40.7453ZM37.7456 41.6563L37.6353 38.281L35.6364 38.3464L35.7467 41.7217L37.7456 41.6563ZM11.3596 38.281L11.2493 41.6563L13.2482 41.7217L13.3585 38.3464L11.3596 38.281ZM12.2352 40.6891L7.76612 40.7493L7.79308 42.7492L12.2622 42.6889L12.2352 40.6891ZM7.76616 40.7493L3.29703 40.8094L3.3239 42.8092L7.79303 42.7492L7.76616 40.7493ZM4.31047 41.8093V29.4652H2.31047V41.8093H4.31047ZM4.31047 29.4652V17.1209H2.31047V29.4652H4.31047ZM3.31047 18.1209H56.4986V16.1209H3.31047V18.1209ZM56.4986 18.1209H109.687V16.1209H56.4986V18.1209ZM108.687 17.1209V20.0924H110.687V17.1209H108.687ZM108.687 20.0924C108.687 20.9649 108.704 21.6908 108.755 22.2851C108.805 22.8688 108.892 23.3944 109.067 23.8328C109.254 24.3007 109.556 24.7029 110.027 24.956C110.462 25.1896 110.935 25.2357 111.342 25.2357V23.2357C111.058 23.2357 110.978 23.1964 110.973 23.1938C110.973 23.1938 110.974 23.1942 110.975 23.195C110.976 23.1959 110.978 23.197 110.979 23.1981C110.982 23.2008 110.983 23.2019 110.981 23.1994C110.977 23.1943 110.955 23.1658 110.925 23.0908C110.859 22.926 110.792 22.632 110.747 22.1144C110.704 21.6075 110.687 20.9503 110.687 20.0924H108.687ZM111.644 -0.307326L110.708 -0.860052L109.691 0.862191L110.627 1.41492L111.644 -0.307326ZM110.2 -0.998931H96.9563V1.00107H110.2V-0.998931ZM96.3891 4.11377C99.8515 4.11377 103.037 4.12893 105.38 4.15335C106.551 4.16556 107.509 4.18005 108.184 4.19603C108.523 4.20404 108.784 4.2123 108.965 4.22056C109.056 4.22474 109.118 4.22855 109.155 4.2316C109.174 4.2332 109.177 4.23379 109.169 4.23269C109.165 4.23217 109.149 4.23005 109.127 4.22562C109.115 4.22313 109.054 4.21107 108.977 4.1814L109.698 2.31605C109.568 2.26556 109.445 2.25184 109.438 2.25092C109.396 2.24524 109.354 2.24127 109.319 2.23835C109.246 2.23235 109.156 2.22724 109.056 2.22266C108.854 2.21338 108.575 2.20471 108.232 2.19659C107.544 2.1803 106.575 2.1657 105.4 2.15345C103.049 2.12895 99.8564 2.11377 96.3891 2.11377V4.11377ZM108.977 4.18153C108.848 4.13169 108.733 4.04587 108.65 3.93898C108.581 3.84954 108.562 3.78083 108.565 3.78966C108.575 3.82298 108.604 3.96399 108.629 4.34084C108.675 5.06864 108.687 6.36359 108.687 8.69595H110.687C110.687 6.38928 110.676 5.01954 110.625 4.21294C110.6 3.82259 110.561 3.47899 110.477 3.20474C110.383 2.89669 110.174 2.49964 109.698 2.31592L108.977 4.18153ZM108.687 8.69595V14.0082H110.687V8.69595H108.687ZM109.687 13.0082H56.4986V15.0082H109.687V13.0082ZM56.4986 13.0082H3.31047V15.0082H56.4986V13.0082ZM4.31047 14.0082V8.69595H2.31047V14.0082H4.31047ZM4.31047 8.69595C4.31047 6.36359 4.32198 5.06864 4.36862 4.34084C4.39276 3.96399 4.42247 3.82297 4.43266 3.78966C4.43536 3.78083 4.41673 3.84954 4.3474 3.93898C4.26455 4.04587 4.14901 4.13169 4.02 4.18153L3.29922 2.31592C2.82371 2.49964 2.61432 2.89669 2.5201 3.20475C2.43623 3.47899 2.39772 3.82259 2.37271 4.21294C2.32102 5.01954 2.31047 6.38928 2.31047 8.69595H4.31047ZM4.02033 4.1814C3.91817 4.22091 3.83238 4.23324 3.82964 4.2337C3.80618 4.23756 3.78926 4.23935 3.78474 4.23983C3.77454 4.24089 3.7729 4.24078 3.78604 4.23998C3.8101 4.23852 3.85293 4.2366 3.91897 4.23444C4.04896 4.23018 4.24211 4.22582 4.4983 4.22146C5.00924 4.21277 5.75408 4.20434 6.70911 4.19627C8.61832 4.18016 11.3582 4.16562 14.7264 4.15339C21.4621 4.12894 30.7057 4.11377 40.8311 4.11377V2.11377C30.7041 2.11377 21.458 2.12894 14.7191 2.15341C11.3499 2.16564 8.60624 2.18019 6.69223 2.19635C5.73565 2.20442 4.98396 2.21291 4.46428 2.22175C4.20515 2.22616 3.99946 2.23072 3.85344 2.23551C3.78148 2.23787 3.71701 2.2405 3.66527 2.24363C3.64051 2.24513 3.60886 2.24731 3.57661 2.25068C3.56106 2.25231 3.53511 2.25526 3.50462 2.26028C3.49486 2.26189 3.40405 2.27538 3.29889 2.31605L4.02033 4.1814ZM40.8311 4.11377H77.6536V2.11377H40.8311V4.11377ZM78.4419 3.72906L78.8992 3.14321L77.3226 1.91262L76.8653 2.49847L78.4419 3.72906ZM78.899 3.14339C79.2315 2.7177 79.5437 2.19597 79.5437 1.55742C79.5437 0.918862 79.2315 0.39714 78.899 -0.028553L77.3227 1.2024C77.5674 1.51575 77.5437 1.595 77.5437 1.55742C77.5437 1.51984 77.5674 1.59909 77.3227 1.91244L78.899 3.14339ZM78.8992 -0.0283722L78.4419 -0.614226L76.8653 0.616365L77.3226 1.20222L78.8992 -0.0283722ZM77.6536 -0.998931L40.206 -0.99693L40.2061 1.00307L77.6537 1.00107L77.6536 -0.998931ZM40.206 -0.99693L2.75866 -0.994706L2.75878 1.00529L40.2061 1.00307L40.206 -0.99693ZM2.24185 -0.85077L1.32309 -0.296043L2.35683 1.41609L3.27559 0.861358L2.24185 -0.85077ZM8.66001 6.73482C7.07571 8.33088 8.14939 11.2285 10.4831 11.2285V9.22851C10.2611 9.22851 10.0624 9.09572 9.95977 8.83868C9.85675 8.58062 9.90327 8.32128 10.0794 8.1438L8.66001 6.73482ZM10.4831 11.2285C11.2266 11.2285 11.8809 10.7958 12.2964 10.3772C12.7129 9.95758 13.1384 9.30166 13.1384 8.56099H11.1384C11.1384 8.54581 11.1405 8.58576 11.0928 8.67903C11.0475 8.7678 10.9739 8.87061 10.877 8.96824C10.78 9.06592 10.6784 9.13952 10.5916 9.18458C10.5001 9.23205 10.4635 9.22851 10.4831 9.22851V11.2285ZM13.1384 8.56099C13.1384 7.82032 12.7129 7.1644 12.2964 6.74477C11.8809 6.32622 11.2266 5.89347 10.4831 5.89347V7.89347C10.4635 7.89347 10.5001 7.88994 10.5916 7.9374C10.6784 7.98246 10.78 8.05607 10.877 8.15374C10.9739 8.25137 11.0475 8.35419 11.0928 8.44295C11.1405 8.53622 11.1384 8.57617 11.1384 8.56099H13.1384ZM10.4831 5.89347C10.1084 5.89347 9.74534 6.02585 9.48001 6.15594C9.19678 6.29481 8.90075 6.49229 8.66001 6.73482L10.0794 8.1438C10.1366 8.08618 10.2401 8.01074 10.3604 7.95172C10.4172 7.92388 10.4643 7.90642 10.4962 7.89718C10.533 7.88655 10.5262 7.89347 10.4831 7.89347V5.89347ZM13.8645 6.57058C12.555 7.60817 12.555 9.51382 13.8645 10.5514L15.1065 8.98382C14.8076 8.74697 14.8076 8.37501 15.1065 8.13817L13.8645 6.57058ZM13.8643 10.5513C14.5012 11.0561 15.2851 11.3508 16.086 11.1831C16.9084 11.011 17.4902 10.4064 17.8054 9.65115L15.9596 8.88088C15.8306 9.19016 15.6988 9.22082 15.6762 9.22554C15.6322 9.23477 15.4397 9.24794 15.1067 8.98393L13.8643 10.5513ZM17.8053 9.65126C18.3159 8.42825 17.965 7.19241 17.0884 6.49333C16.2028 5.78711 14.9145 5.73851 13.8644 6.57064L15.1066 8.13811C15.2932 7.99026 15.4466 7.95567 15.5496 7.95507C15.6577 7.95445 15.7582 7.99063 15.8414 8.057C15.9889 8.17457 16.1414 8.44538 15.9597 8.88077L17.8053 9.65126ZM19.355 6.18353C18.3312 6.60075 17.9259 7.63884 17.8928 8.46658C17.8595 9.29759 18.1807 10.3543 19.1423 10.8728L20.0916 9.11242C20.0293 9.07886 19.8766 8.91072 19.8912 8.54657C19.9059 8.17915 20.0702 8.05175 20.1098 8.03564L19.355 6.18353ZM19.1423 10.8728C20.5303 11.6212 21.9082 11.0097 22.5863 10.0536C22.9257 9.57519 23.1304 8.96638 23.0782 8.32586C23.0243 7.66391 22.7003 7.03889 22.1093 6.5706L20.8672 8.13815C21.0387 8.27406 21.0774 8.39706 21.0848 8.48825C21.094 8.60086 21.0587 8.7503 20.955 8.89654C20.8517 9.04218 20.7103 9.14164 20.571 9.18223C20.4483 9.21799 20.2916 9.22026 20.0915 9.11241L19.1423 10.8728ZM22.1095 6.57076C21.7437 6.28077 21.3213 6.01787 20.7936 5.94432C20.2678 5.87103 19.7885 6.00695 19.3552 6.18345L20.1096 8.03571C20.4164 7.91073 20.5054 7.92347 20.5175 7.92517C20.5278 7.9266 20.6133 7.93684 20.867 8.13799L22.1095 6.57076ZM97.7794 6.5346C97.2472 6.9688 96.8311 7.51284 96.7056 8.16024C96.5724 8.84706 96.8 9.47635 97.2233 9.953C98.0012 10.829 99.4337 11.2285 101.004 11.2285V9.22851C99.6426 9.22851 98.9291 8.86188 98.7188 8.625C98.6769 8.5779 98.6686 8.5515 98.668 8.54949C98.6675 8.54797 98.6678 8.54844 98.6679 8.54962C98.6679 8.55077 98.6676 8.54832 98.669 8.54092C98.6748 8.511 98.726 8.34348 99.0437 8.08433L97.7794 6.5346ZM101.004 11.2285C102.174 11.2285 103.185 11.126 103.923 10.7377C104.323 10.527 104.658 10.2249 104.881 9.8128C105.097 9.41168 105.169 8.97814 105.169 8.56099H103.169C103.169 8.75482 103.135 8.83521 103.121 8.86131C103.113 8.87645 103.092 8.91482 102.99 8.96823C102.725 9.10824 102.154 9.22851 101.004 9.22851V11.2285ZM105.169 8.56099C105.169 7.68221 104.579 7.06804 104.046 6.70465C103.488 6.32374 102.779 6.06087 102.071 5.90701C101.356 5.75162 100.577 5.69318 99.8481 5.76835C99.1365 5.84173 98.3689 6.05368 97.7794 6.53462L99.0437 8.08431C99.2121 7.94693 99.5431 7.8104 100.053 7.7578C100.546 7.70699 101.111 7.74507 101.646 7.86137C102.189 7.97921 102.635 8.16321 102.919 8.357C103.229 8.56832 103.169 8.6567 103.169 8.56099H105.169ZM32.5715 36.7684C32.4388 36.6347 32.3846 36.5 32.3745 36.4755C32.356 36.4308 32.3482 36.3999 32.3473 36.3966C32.3453 36.3886 32.3499 36.406 32.3582 36.4634C32.3739 36.5734 32.3913 36.7475 32.4085 36.9897C32.4427 37.469 32.4719 38.1468 32.4955 38.9658C32.5427 40.6001 32.5664 42.7541 32.5664 44.9129C32.5664 47.0716 32.5427 49.2257 32.4955 50.8599C32.4719 51.6789 32.4427 52.3567 32.4085 52.836C32.3913 53.0783 32.3739 53.2523 32.3582 53.3623C32.3499 53.4197 32.3453 53.4372 32.3473 53.4292C32.3482 53.4258 32.356 53.395 32.3745 53.3502C32.3846 53.3257 32.4388 53.1911 32.5715 53.0573L33.9909 54.4663C34.1356 54.3206 34.2015 54.1659 34.2231 54.1135C34.2531 54.0409 34.2722 53.9744 34.2842 53.9277C34.3085 53.8331 34.3254 53.7337 34.338 53.646C34.3638 53.4657 34.3851 53.2363 34.4035 52.9782C34.4406 52.4567 34.4708 51.7458 34.4947 50.9176C34.5426 49.2575 34.5664 47.0828 34.5664 44.9129C34.5664 42.7429 34.5426 40.5682 34.4947 38.9081C34.4708 38.0799 34.4406 37.3691 34.4035 36.8476C34.3851 36.5894 34.3638 36.36 34.338 36.1798C34.3254 36.092 34.3085 35.9926 34.2842 35.898C34.2722 35.8514 34.2531 35.7848 34.2231 35.7122C34.2015 35.6599 34.1356 35.5051 33.9909 35.3594L32.5715 36.7684ZM32.5715 53.0573C32.7047 52.9231 32.8396 52.8679 32.865 52.8572C32.9104 52.8382 32.9418 52.8301 32.9457 52.8291C32.9547 52.8267 32.9382 52.8313 32.8816 52.8396C32.7731 52.8553 32.6009 52.8728 32.3607 52.8901C31.8854 52.9245 31.2129 52.9539 30.4001 52.9777C28.7781 53.0252 26.6402 53.0491 24.4975 53.0491C22.3547 53.0491 20.2168 53.0252 18.5948 52.9777C17.782 52.9539 17.1095 52.9245 16.6342 52.8901C16.394 52.8728 16.2218 52.8553 16.1134 52.8396C16.0567 52.8313 16.0402 52.8267 16.0492 52.8291C16.0531 52.8301 16.0845 52.8382 16.1299 52.8572C16.1553 52.8679 16.2902 52.9231 16.4234 53.0573L15.004 54.4663C15.1491 54.6125 15.3038 54.6795 15.3569 54.7018C15.43 54.7324 15.4969 54.7519 15.5437 54.7641C15.6386 54.7889 15.7381 54.806 15.8256 54.8188C16.0053 54.8449 16.2336 54.8664 16.49 54.8849C17.0081 54.9224 17.7141 54.9528 18.5363 54.9769C20.1845 55.0251 22.3434 55.0491 24.4975 55.0491C26.6516 55.0491 28.8104 55.0251 30.4586 54.9769C31.2808 54.9528 31.9868 54.9224 32.5049 54.8849C32.7613 54.8664 32.9896 54.8449 33.1693 54.8188C33.2568 54.806 33.3563 54.7889 33.4512 54.7641C33.498 54.7519 33.5649 54.7324 33.638 54.7018C33.6911 54.6795 33.8458 54.6125 33.9909 54.4663L32.5715 53.0573ZM16.4234 53.0573C16.5561 53.1911 16.6103 53.3257 16.6204 53.3502C16.6389 53.395 16.6467 53.4258 16.6476 53.4292C16.6496 53.4372 16.645 53.4197 16.6367 53.3623C16.621 53.2523 16.6036 53.0783 16.5864 52.836C16.5522 52.3567 16.523 51.6789 16.4994 50.8599C16.4522 49.2257 16.4285 47.0716 16.4285 44.9129C16.4285 42.7541 16.4522 40.6001 16.4994 38.9658C16.523 38.1468 16.5522 37.469 16.5864 36.9897C16.6036 36.7475 16.621 36.5734 16.6367 36.4634C16.645 36.406 16.6496 36.3886 16.6476 36.3966C16.6467 36.3999 16.6389 36.4308 16.6204 36.4755C16.6103 36.5 16.5561 36.6347 16.4234 36.7684L15.004 35.3594C14.8593 35.5051 14.7934 35.6599 14.7718 35.7122C14.7418 35.7848 14.7227 35.8514 14.7107 35.898C14.6864 35.9926 14.6695 36.092 14.6569 36.1798C14.6311 36.36 14.6098 36.5894 14.5914 36.8476C14.5543 37.3691 14.5241 38.0799 14.5002 38.9081C14.4523 40.5682 14.4285 42.7429 14.4285 44.9129C14.4285 47.0828 14.4523 49.2575 14.5002 50.9176C14.5241 51.7458 14.5543 52.4567 14.5914 52.9782C14.6098 53.2363 14.6311 53.4657 14.6569 53.646C14.6695 53.7337 14.6864 53.8331 14.7107 53.9277C14.7227 53.9744 14.7418 54.0409 14.7718 54.1135C14.7934 54.1659 14.8593 54.3206 15.004 54.4663L16.4234 53.0573ZM16.4234 36.7684C16.2902 36.9026 16.1553 36.9579 16.1299 36.9685C16.0845 36.9875 16.0531 36.9956 16.0492 36.9966C16.0402 36.999 16.0567 36.9944 16.1134 36.9862C16.2218 36.9704 16.394 36.953 16.6342 36.9356C17.1095 36.9012 17.782 36.8718 18.5948 36.848C20.2168 36.8005 22.3547 36.7766 24.4975 36.7766C26.6402 36.7766 28.7781 36.8005 30.4001 36.848C31.2129 36.8718 31.8854 36.9012 32.3607 36.9356C32.6009 36.953 32.7731 36.9704 32.8816 36.9862C32.9382 36.9944 32.9547 36.999 32.9457 36.9966C32.9418 36.9956 32.9104 36.9875 32.865 36.9685C32.8396 36.9579 32.7047 36.9026 32.5715 36.7684L33.9909 35.3594C33.8458 35.2132 33.6911 35.1462 33.638 35.1239C33.5649 35.0933 33.498 35.0738 33.4512 35.0616C33.3563 35.0368 33.2568 35.0197 33.1693 35.007C32.9896 34.9808 32.7613 34.9594 32.5049 34.9408C31.9868 34.9033 31.2808 34.8729 30.4586 34.8489C28.8104 34.8006 26.6516 34.7766 24.4975 34.7766C22.3434 34.7766 20.1845 34.8006 18.5363 34.8489C17.7141 34.8729 17.0081 34.9033 16.49 34.9408C16.2336 34.9594 16.0053 34.9808 15.8256 35.007C15.7381 35.0197 15.6386 35.0368 15.5437 35.0616C15.4969 35.0738 15.43 35.0933 15.3569 35.1239C15.3038 35.1462 15.1491 35.2132 15.004 35.3594L16.4234 36.7684ZM83.9759 35.9899C83.6146 36.4525 83.3338 36.9762 83.2721 37.5408C83.2049 38.1556 83.4103 38.7217 83.84 39.1523C84.235 39.548 84.7695 39.7825 85.3215 39.9229C85.8849 40.0662 86.5478 40.1321 87.286 40.1321V38.1321C86.6554 38.1321 86.1684 38.0746 85.8145 37.9846C85.4493 37.8917 85.2991 37.783 85.2556 37.7394C85.2468 37.7306 85.2599 37.7612 85.2602 37.758C85.2661 37.7045 85.3126 37.5276 85.5522 37.2207L83.9759 35.9899ZM87.286 40.1321C88.2107 40.1321 88.8771 40.1319 89.3476 40.0226C89.6328 39.9564 89.8894 39.8445 90.1247 39.6595C90.3335 39.4953 90.488 39.3002 90.5961 39.1617L89.0197 37.9309C88.9099 38.0715 88.8861 38.0892 88.8886 38.0872C88.9176 38.0644 88.9398 38.0641 88.895 38.0745C88.825 38.0908 88.6889 38.1092 88.4104 38.1198C88.1382 38.1303 87.7811 38.1321 87.286 38.1321V40.1321ZM90.5961 39.1617C90.9573 38.6991 91.2382 38.1754 91.2998 37.6108C91.367 36.9959 91.1616 36.4298 90.7319 35.9993C90.3369 35.6036 89.8024 35.3691 89.2504 35.2287C88.687 35.0854 88.0242 35.0194 87.286 35.0194V37.0194C87.9165 37.0194 88.4035 37.077 88.7574 37.167C89.1227 37.2599 89.2728 37.3686 89.3164 37.4122C89.3251 37.421 89.312 37.3904 89.3117 37.3936C89.3058 37.4471 89.2593 37.624 89.0197 37.9308L90.5961 39.1617ZM87.286 35.0194C86.3612 35.0194 85.6948 35.0196 85.2243 35.129C84.9391 35.1952 84.6826 35.3071 84.4473 35.4921C84.2385 35.6562 84.084 35.8514 83.9758 35.9899L85.5523 37.2207C85.6621 37.08 85.6859 37.0624 85.6833 37.0644C85.6543 37.0872 85.6321 37.0875 85.6769 37.0771C85.7469 37.0608 85.883 37.0424 86.1615 37.0317C86.4338 37.0213 86.7909 37.0194 87.286 37.0194V35.0194ZM92.9397 35.7987C92.7139 36.05 92.5581 36.3644 92.4595 36.6366C92.3589 36.9141 92.2817 37.2475 92.2817 37.5758H94.2817C94.2817 37.5404 94.2948 37.4424 94.3398 37.318C94.3603 37.2615 94.3827 37.2129 94.403 37.1761C94.4247 37.1367 94.4355 37.1263 94.4274 37.1353L92.9397 35.7987ZM92.2817 37.5758C92.2817 37.9175 92.2838 38.4331 92.5115 38.8893C92.7885 39.4443 93.2801 39.7235 93.7998 39.8706C94.284 40.0077 94.9116 40.0655 95.6775 40.0961C96.4612 40.1274 97.478 40.1321 98.7803 40.1321V38.1321C97.4709 38.1321 96.4944 38.1271 95.7574 38.0977C95.0025 38.0675 94.5819 38.0134 94.3445 37.9462C94.1425 37.889 94.2388 37.8715 94.301 37.9962C94.3139 38.0219 94.2817 37.9733 94.2817 37.5758H92.2817ZM98.7803 40.1321H103.475V38.1321H98.7803V40.1321ZM104.264 39.7474L104.721 39.1616L103.144 37.931L102.687 38.5168L104.264 39.7474ZM104.721 39.1618C104.895 38.9385 105.048 38.6847 105.16 38.446C105.253 38.2489 105.39 37.9164 105.39 37.5758H103.39C103.39 37.5249 103.396 37.4914 103.398 37.4817C103.4 37.4702 103.401 37.4686 103.398 37.4781C103.392 37.4982 103.377 37.5376 103.351 37.5932C103.298 37.7063 103.222 37.8319 103.144 37.9308L104.721 39.1618ZM105.39 37.5758C105.39 37.2351 105.253 36.9027 105.16 36.7055C105.048 36.4669 104.895 36.2131 104.721 35.9898L103.144 37.2208C103.222 37.3197 103.298 37.4453 103.351 37.5584C103.377 37.614 103.392 37.6533 103.398 37.6735C103.401 37.683 103.4 37.6814 103.398 37.6699C103.396 37.6601 103.39 37.6267 103.39 37.5758H105.39ZM104.721 35.99L104.264 35.4041L102.687 36.6347L103.144 37.2206L104.721 35.99ZM103.475 35.0194H98.7803V37.0194H103.475V35.0194ZM98.7803 35.0194C96.5928 35.0194 95.3566 35.0249 94.6274 35.0889C94.262 35.121 93.9297 35.1739 93.6369 35.2944C93.2968 35.4345 93.0893 35.6321 92.9397 35.7987L94.4274 37.1353C94.4672 37.091 94.4386 37.1273 94.3983 37.1438C94.3966 37.1445 94.4199 37.1347 94.4874 37.1216C94.5555 37.1083 94.6554 37.0941 94.8024 37.0812C95.4209 37.0269 96.5435 37.0194 98.7803 37.0194V35.0194ZM48.251 49.4237C47.6212 49.7001 47.0479 50.2007 46.6181 50.7264C46.1919 51.2477 45.8133 51.9081 45.6923 52.5792L47.6606 52.9341C47.7005 52.7127 47.8665 52.3592 48.1665 51.9923C48.4628 51.6298 48.7973 51.3681 49.0546 51.2551L48.251 49.4237ZM45.6923 52.5792C45.6267 52.9433 45.5883 53.602 45.5622 54.3943C45.5351 55.2154 45.5195 56.2585 45.5136 57.4412C45.5018 59.8079 45.5288 62.7551 45.5826 65.6487C45.6364 68.542 45.7172 71.3889 45.8133 73.5546C45.8613 74.6359 45.9136 75.5566 45.969 76.2313C45.9965 76.5667 46.026 76.8559 46.0582 77.0792C46.0741 77.1892 46.0932 77.3013 46.1174 77.4027C46.1295 77.4531 46.1464 77.5162 46.1703 77.5826C46.189 77.6347 46.2355 77.7574 46.3294 77.8841L47.936 76.6929C48.0156 76.8004 48.0479 76.8936 48.0524 76.9061C48.0621 76.9331 48.0648 76.9467 48.0627 76.938C48.0587 76.9212 48.0497 76.8764 48.0377 76.7932C48.0141 76.6302 47.9886 76.3884 47.9623 76.0677C47.9099 75.4302 47.859 74.5387 47.8114 73.4659C47.7163 71.3235 47.6359 68.495 47.5823 65.6115C47.5287 62.7285 47.5019 59.7977 47.5136 57.4512C47.5195 56.2773 47.5349 55.255 47.5611 54.4602C47.5883 53.6365 47.6255 53.1288 47.6606 52.9341L45.6923 52.5792ZM100.364 79.7929L101.23 79.2949L100.234 77.561L99.3673 78.0591L100.364 79.7929ZM101.23 79.2948C101.952 78.8801 102.6 78.1729 102.997 77.4138L101.225 76.486C100.985 76.9457 100.59 77.3559 100.233 77.5611L101.23 79.2948ZM102.997 77.4137L103.51 76.4337L101.739 75.506L101.225 76.486L102.997 77.4137ZM103.624 75.9698V64.4784H101.624V75.9698H103.624ZM103.624 64.4784V52.987H101.624V64.4784H103.624ZM103.51 52.5231L102.997 51.5431L101.225 52.4708L101.739 53.4508L103.51 52.5231ZM102.997 51.5431C102.599 50.7822 101.952 50.0774 101.229 49.6629L100.234 51.3979C100.592 51.6028 100.984 52.0101 101.225 52.4708L102.997 51.5431ZM101.229 49.6628L100.363 49.1663L99.3685 50.9015L100.235 51.398L101.229 49.6628ZM99.8655 49.0339L74.5956 49.039L74.596 51.039L99.8659 51.0339L99.8655 49.0339ZM74.5956 49.039C64.3384 49.041 57.9833 49.0561 54.1237 49.1008C52.1958 49.1231 50.8791 49.153 50.006 49.1929C49.5709 49.2128 49.2313 49.2358 48.975 49.2636C48.7651 49.2864 48.4801 49.3231 48.2508 49.4238L49.0548 51.2551C48.9622 51.2957 48.9492 51.2782 49.1908 51.2519C49.3861 51.2308 49.6777 51.21 50.0974 51.1908C50.9341 51.1525 52.222 51.123 54.1469 51.1007C57.9929 51.0562 64.3362 51.041 74.596 51.039L74.5956 49.039ZM98.6042 54.2069C98.1936 54.0482 98.1458 53.6816 98.176 53.8108C98.2001 53.9135 98.232 54.1571 98.2563 54.6831C98.3036 55.7089 98.314 57.5416 98.314 60.8345H100.314C100.314 57.5617 100.304 55.6739 100.254 54.5909C100.23 54.0625 100.194 53.6545 100.123 53.3544C100.059 53.0807 99.8905 52.56 99.3255 52.3415L98.6042 54.2069ZM98.314 60.8345V68.2601H100.314V60.8345H98.314ZM50.7673 68.1388L50.709 60.9394L48.7091 60.9556L48.7674 68.155L50.7673 68.1388ZM50.709 60.9394C50.6883 58.3767 50.6919 56.5696 50.7225 55.3799C50.7378 54.7824 50.7595 54.3593 50.7858 54.0809C50.7992 53.9397 50.8118 53.8584 50.8197 53.82C50.8237 53.8006 50.8227 53.8111 50.8128 53.8394C50.8081 53.8526 50.772 53.9596 50.6737 54.079L49.1293 52.8083C49.0088 52.9548 48.9513 53.1041 48.9262 53.1754C48.8958 53.2616 48.8754 53.3457 48.8609 53.4162C48.8318 53.5574 48.811 53.7205 48.7948 53.8924C48.7618 54.2402 48.7388 54.7181 48.7231 55.3286C48.6917 56.5547 48.6884 58.391 48.7091 60.9556L50.709 60.9394ZM50.6733 54.0796C50.5426 54.2381 50.3978 54.3125 50.3533 54.3347C50.2916 54.3655 50.2406 54.3826 50.216 54.3903C50.1659 54.4061 50.1298 54.4123 50.1259 54.413C50.1129 54.4154 50.1195 54.4136 50.1599 54.4097C50.2348 54.4024 50.3585 54.3939 50.5372 54.3848C50.8905 54.3669 51.4097 54.3493 52.077 54.3322C53.4091 54.2982 55.303 54.267 57.576 54.2394C62.1208 54.1843 68.1665 54.1437 74.2308 54.1227C80.2951 54.1018 86.3752 54.1006 90.9886 54.1241C93.2959 54.1358 95.2331 54.1538 96.617 54.1785C97.3099 54.1909 97.8583 54.2048 98.2431 54.2203C98.4367 54.228 98.5802 54.2359 98.6765 54.2433C98.7256 54.2471 98.752 54.25 98.762 54.2513C98.8072 54.2573 98.7182 54.251 98.6043 54.207L99.3254 52.3415C99.1862 52.2877 99.0488 52.2718 99.0234 52.2685C98.9627 52.2605 98.8962 52.2543 98.8307 52.2493C98.6979 52.239 98.5258 52.23 98.3234 52.2219C97.9161 52.2055 97.3501 52.1913 96.6527 52.1788C95.2559 52.1539 93.3088 52.1359 90.9988 52.1241C86.3777 52.1005 80.2915 52.1018 74.2239 52.1227C68.1563 52.1437 62.1044 52.1843 57.5518 52.2396C55.2762 52.2672 53.3716 52.2985 52.0259 52.3329C51.3543 52.3501 50.8149 52.3682 50.4361 52.3874C50.2488 52.3969 50.088 52.4072 49.966 52.4191C49.9079 52.4248 49.8379 52.4327 49.7708 52.4448C49.7399 52.4504 49.6825 52.4616 49.6167 52.4822C49.5842 52.4924 49.5269 52.5119 49.4603 52.5452C49.4108 52.5699 49.2625 52.6467 49.1298 52.8077L50.6733 54.0796ZM53.5688 56.208C53.2062 56.4638 52.8901 56.7906 52.6912 57.2056C52.4871 57.6312 52.4364 58.0878 52.5151 58.5392C52.6629 59.3877 53.2555 60.1719 54.0035 60.8782L55.3765 59.424C54.7218 58.8058 54.5201 58.3952 54.4854 58.1959C54.4728 58.1234 54.4838 58.0928 54.4946 58.0702C54.5105 58.0369 54.5626 57.9545 54.7218 57.8421L53.5688 56.208ZM54.0035 60.8782L54.819 61.6481L56.192 60.1939L55.3765 59.424L54.0035 60.8782ZM54.819 60.1939L54.0035 60.9639L55.3765 62.4181L56.192 61.6481L54.819 60.1939ZM54.0035 60.9639C53.0199 61.8926 52.3819 63.0644 52.5565 64.1926C52.6485 64.7876 52.9657 65.3084 53.4774 65.6616C53.9708 66.0023 54.5811 66.1454 55.2245 66.1454V64.1454C54.8622 64.1454 54.6833 64.0639 54.6137 64.0158C54.5622 63.9803 54.5424 63.9482 54.5329 63.8868C54.5044 63.7021 54.6049 63.1467 55.3765 62.4181L54.0035 60.9639ZM55.2245 66.1454C55.5954 66.1454 55.9314 65.9839 56.1265 65.8797C56.363 65.7535 56.6132 65.5865 56.8587 65.4049C57.3529 65.0395 57.906 64.5573 58.42 64.0596C58.934 63.5621 59.4326 63.0263 59.8109 62.5469C59.9987 62.3089 60.1725 62.065 60.3046 61.8333C60.4109 61.6466 60.5884 61.3055 60.5884 60.921H58.5884C58.5884 60.7418 58.656 60.6867 58.5668 60.8433C58.5032 60.9548 58.3958 61.1116 58.2408 61.3081C57.9333 61.6977 57.5 62.1667 57.029 62.6226C56.5581 63.0785 56.0732 63.4984 55.6697 63.7967C55.4664 63.9471 55.3027 64.0523 55.1846 64.1154C55.0251 64.2006 55.0657 64.1454 55.2245 64.1454V66.1454ZM60.5884 60.921C60.5884 60.1386 60.1184 59.4034 59.6711 58.8635C59.1851 58.2769 58.5455 57.708 57.884 57.2345C57.2252 56.763 56.4964 56.3514 55.8162 56.1129C55.477 55.9939 55.1115 55.9043 54.7504 55.8905C54.3943 55.8769 53.9557 55.9349 53.5688 56.208L54.7219 57.8421C54.625 57.9105 54.574 57.8852 54.6742 57.889C54.7694 57.8927 54.9289 57.9211 55.1543 58.0002C55.6035 58.1577 56.1629 58.4621 56.7199 58.8608C57.2741 59.2575 57.7777 59.713 58.131 60.1395C58.3074 60.3524 58.431 60.5396 58.5067 60.6919C58.5857 60.8507 58.5884 60.9226 58.5884 60.921H60.5884ZM12.0908 60.2165C11.6427 60.6679 11.2841 61.2075 11.1962 61.8231C11.1 62.4962 11.3508 63.0938 11.8027 63.5309C12.2219 63.9362 12.7934 64.1912 13.3987 64.3488C14.0169 64.5098 14.7463 64.5891 15.5592 64.5891V62.5891C14.8669 62.5891 14.3145 62.5205 13.9027 62.4133C13.4782 62.3028 13.2717 62.1692 13.1932 62.0933C13.1599 62.0611 13.1624 62.052 13.1693 62.0705C13.1772 62.092 13.1756 62.1089 13.1761 62.106C13.1795 62.0821 13.221 61.9169 13.5102 61.6255L12.0908 60.2165ZM15.5592 64.5891C16.224 64.5891 16.7938 64.5712 17.2711 64.5185C17.7397 64.4668 18.1894 64.3749 18.5763 64.1867C18.9961 63.9825 19.3295 63.6705 19.5329 63.2349C19.7189 62.8363 19.7593 62.41 19.7593 62.0327H17.7593C17.7593 62.2907 17.7263 62.3767 17.7205 62.389C17.7201 62.39 17.7213 62.3872 17.7247 62.3823C17.7283 62.3773 17.7322 62.3728 17.7355 62.3695C17.7431 62.362 17.7378 62.3705 17.7016 62.3881C17.6151 62.4301 17.428 62.4891 17.0517 62.5306C16.6841 62.5712 16.2007 62.5891 15.5592 62.5891V64.5891ZM19.7593 62.0327C19.7593 61.6554 19.7189 61.2292 19.5328 60.8305C19.3295 60.395 18.9961 60.0829 18.5763 59.8788C18.1894 59.6906 17.7397 59.5986 17.2711 59.5469C16.7938 59.4942 16.224 59.4764 15.5592 59.4764V61.4764C16.2007 61.4764 16.6841 61.4942 17.0517 61.5348C17.428 61.5764 17.6152 61.6353 17.7016 61.6773C17.7378 61.6949 17.7431 61.7034 17.7355 61.6959C17.7322 61.6926 17.7283 61.6881 17.7247 61.6831C17.7213 61.6782 17.7201 61.6754 17.7205 61.6764C17.7263 61.6887 17.7593 61.7747 17.7593 62.0327H19.7593ZM15.5592 59.4764C14.571 59.4764 13.8904 59.4879 13.4065 59.5659C13.1463 59.6078 12.8967 59.6751 12.659 59.7951C12.4151 59.9181 12.2356 60.0707 12.0908 60.2165L13.5102 61.6255C13.5363 61.5993 13.55 61.588 13.5556 61.5837C13.5583 61.5817 13.5594 61.5809 13.5595 61.5809C13.5595 61.5809 13.5596 61.5808 13.5602 61.5805C13.5608 61.5802 13.5701 61.5755 13.5942 61.5683C13.6195 61.5608 13.6606 61.5507 13.7248 61.5404C14.0182 61.4931 14.5243 61.4764 15.5592 61.4764V59.4764ZM12.0908 66.2196C11.844 66.4682 11.6701 66.7833 11.5584 67.0645C11.4454 67.3492 11.3591 67.6924 11.3591 68.0358H13.3591C13.3591 68.0085 13.3709 67.9194 13.4172 67.8026C13.4382 67.7499 13.4612 67.7045 13.4822 67.6699C13.5044 67.6335 13.5162 67.6225 13.5102 67.6286L12.0908 66.2196ZM24.4974 65.4794C19.0297 65.4794 16.1864 65.4821 14.6617 65.5401C13.9143 65.5685 13.4033 65.6117 13.0365 65.6991C12.8374 65.7465 12.6481 65.8138 12.4694 65.919C12.2887 66.0254 12.1659 66.1439 12.0908 66.2196L13.5102 67.6286C13.5425 67.596 13.5234 67.6194 13.4844 67.6423C13.4476 67.664 13.4383 67.6593 13.4996 67.6447C13.6536 67.6081 13.9847 67.5672 14.7376 67.5386C16.2135 67.4825 19.0038 67.4794 24.4974 67.4794V65.4794ZM12.0908 70.8886C11.844 71.1372 11.6701 71.4524 11.5584 71.7336C11.4454 72.0182 11.3591 72.3615 11.3591 72.7048H13.3591C13.3591 72.6775 13.3709 72.5885 13.4172 72.4717C13.4382 72.4189 13.4612 72.3735 13.4822 72.339C13.5044 72.3025 13.5162 72.2915 13.5102 72.2976L12.0908 70.8886ZM24.4974 70.1485C19.0297 70.1485 16.1864 70.1512 14.6617 70.2091C13.9143 70.2375 13.4033 70.2808 13.0365 70.3681C12.8374 70.4155 12.6481 70.4828 12.4694 70.588C12.2887 70.6945 12.1659 70.813 12.0908 70.8886L13.5102 72.2976C13.5425 72.2651 13.5234 72.2884 13.4844 72.3113C13.4476 72.333 13.4383 72.3284 13.4996 72.3138C13.6536 72.2771 13.9847 72.2363 14.7376 72.2077C16.2135 72.1516 19.0038 72.1485 24.4974 72.1485V70.1485ZM98.314 73.4592C98.314 74.3245 98.2956 74.7728 98.258 75.0118C98.2395 75.1296 98.2285 75.1062 98.2703 75.0328C98.3353 74.9188 98.4549 74.8076 98.6042 74.7499L99.3255 76.6153C99.6168 76.5026 99.8511 76.2985 100.008 76.0228C100.142 75.7878 100.201 75.5339 100.234 75.3221C100.3 74.9016 100.314 74.2932 100.314 73.4592H98.314ZM50.6315 74.8462C50.7056 74.9208 50.7477 74.9894 50.7666 75.0229C50.7874 75.0598 50.7985 75.087 50.8025 75.097C50.8097 75.1155 50.8069 75.1127 50.7983 75.0764C50.7815 75.0055 50.7609 74.8868 50.7405 74.7187C50.7004 74.3877 50.6711 73.9497 50.658 73.4996C50.6449 73.0495 50.6486 72.613 50.6694 72.2849C50.6799 72.1179 50.6935 72.0024 50.7056 71.9359C50.7119 71.9014 50.7136 71.9036 50.7051 71.9284C50.7006 71.9416 50.6887 71.9745 50.6659 72.0181C50.6451 72.0576 50.5986 72.1383 50.5136 72.2239L49.0948 70.8143C48.9126 70.9977 48.8383 71.2065 48.8125 71.282C48.7765 71.3873 48.7535 71.4919 48.7378 71.5787C48.7058 71.7547 48.6861 71.9572 48.6734 72.1586C48.6475 72.5672 48.6446 73.069 48.6589 73.558C48.6731 74.0472 48.7054 74.5495 48.755 74.9592C48.7795 75.1615 48.8109 75.3633 48.8523 75.538C48.8728 75.6245 48.9008 75.7258 48.9402 75.8265C48.9701 75.9028 49.0471 76.089 49.2121 76.2552L50.6315 74.8462ZM98.314 71.3708V73.4592H100.314V71.3708H98.314ZM12.0908 75.5577C11.844 75.8063 11.6701 76.1214 11.5584 76.4026C11.4454 76.6873 11.3591 77.0305 11.3591 77.3739H13.3591C13.3591 77.3466 13.3709 77.2575 13.4172 77.1407C13.4382 77.088 13.4612 77.0426 13.4822 77.008C13.5044 76.9716 13.5162 76.9606 13.5102 76.9667L12.0908 75.5577ZM24.4974 74.8175C19.0297 74.8175 16.1864 74.8202 14.6617 74.8782C13.9143 74.9066 13.4033 74.9498 13.0365 75.0372C12.8374 75.0846 12.6481 75.1519 12.4694 75.2571C12.2887 75.3635 12.1659 75.482 12.0908 75.5577L13.5102 76.9667C13.5425 76.9341 13.5234 76.9575 13.4844 76.9804C13.4476 77.0021 13.4383 76.9974 13.4996 76.9828C13.6536 76.9462 13.9847 76.9053 14.7376 76.8767C16.2135 76.8206 19.0038 76.8175 24.4974 76.8175V74.8175ZM60.9166 67.1752L49.7699 67.1469L49.7648 69.1469L60.9115 69.1752L60.9166 67.1752ZM50.5149 72.2226C50.4031 72.3355 50.2915 72.3936 50.2463 72.4158C50.1908 72.443 50.1442 72.4592 50.118 72.4678C50.0657 72.4847 50.0247 72.4929 50.0107 72.4956C49.9789 72.5018 49.9592 72.5036 49.9653 72.5029C49.9723 72.5022 49.9991 72.4998 50.0549 72.4965C50.1622 72.4903 50.3299 72.4834 50.5632 72.4763C51.0272 72.4622 51.7214 72.448 52.6472 72.4346C54.4973 72.4079 57.2574 72.3846 60.9176 72.3717L60.9105 70.3717C57.2465 70.3846 54.4785 70.4079 52.6183 70.4348C51.6888 70.4483 50.9822 70.4627 50.5024 70.4772C50.2639 70.4845 50.074 70.492 49.9384 70.4999C49.8727 70.5038 49.8066 70.5084 49.7494 70.5146C49.7235 70.5174 49.6789 70.5227 49.6293 70.5323C49.6064 70.5368 49.5584 70.5467 49.5009 70.5653C49.4967 70.5667 49.2811 70.6261 49.0935 70.8156L50.5149 72.2226ZM60.8627 69.1739C60.9393 69.1778 61.011 69.2076 61.0894 69.3077C61.1787 69.4218 61.2505 69.6041 61.2615 69.8093C61.2726 70.0152 61.2192 70.1618 61.1634 70.238C61.127 70.2877 61.0572 70.3599 60.8475 70.3739L60.9806 72.3695C61.7511 72.3181 62.3749 71.9686 62.7769 71.4197C63.1595 70.8974 63.289 70.2688 63.2587 69.7023C63.2025 68.6531 62.4953 67.2551 60.9654 67.1765L60.8627 69.1739ZM98.314 68.2601V71.3708H100.314V68.2601H98.314ZM96.3891 2.11377C90.8739 2.11377 87.6581 2.12484 85.7685 2.04473C84.8129 2.00421 84.2744 1.94236 83.9715 1.86815C83.6656 1.79321 83.8467 1.76586 83.9534 1.99279L82.1432 2.84336C82.424 3.44084 82.9854 3.68572 83.4956 3.8107C84.0087 3.93641 84.722 4.00216 85.6837 4.04293C87.6287 4.12539 90.9091 4.11377 96.3891 4.11377V2.11377ZM83.9534 1.9928C83.9913 2.07364 83.9812 2.11689 83.9784 2.02793C83.9771 1.98728 83.9774 1.93695 83.9788 1.8602C83.9801 1.79004 83.9824 1.69477 83.9824 1.59611H81.9824C81.9824 1.68593 81.9748 1.94808 81.9794 2.09162C81.9852 2.27514 82.0081 2.55576 82.1432 2.84335L83.9534 1.9928ZM83.9824 1.59611C83.9824 1.48303 83.9791 1.37819 83.9766 1.29596C83.974 1.20736 83.9725 1.14965 83.9731 1.10039C83.9745 0.992386 83.9878 1.03739 83.9479 1.12292L82.1353 0.277577C81.9921 0.584653 81.9757 0.886101 81.9733 1.0749C81.972 1.17403 81.9751 1.27481 81.9775 1.35547C81.9801 1.4425 81.9824 1.5177 81.9824 1.59611H83.9824ZM83.9479 1.12292C83.8397 1.35486 83.6539 1.32217 83.9822 1.2439C84.3029 1.16748 84.8687 1.10547 85.8661 1.06555C87.8392 0.986574 91.1979 1.00107 96.9563 1.00107V-0.998931C91.2335 -0.998931 87.8117 -1.01393 85.7861 -0.932852C84.7842 -0.89275 84.0461 -0.827348 83.5185 -0.7016C82.9987 -0.577692 82.4203 -0.333447 82.1353 0.277574L83.9479 1.12292ZM111.768 23.2402C111.821 23.2117 111.841 23.2208 111.759 23.2281C111.72 23.2316 111.668 23.2339 111.596 23.235C111.521 23.2361 111.444 23.2357 111.342 23.2357V25.2357C111.508 25.2357 111.732 25.2385 111.937 25.2202C112.152 25.201 112.431 25.1535 112.71 25.0047L111.768 23.2402ZM13.3585 38.3464C13.3964 37.1892 13.4014 36.3681 13.4716 35.7063C13.5411 35.0507 13.6605 34.7517 13.795 34.5807L12.223 33.3443C11.733 33.9673 11.5638 34.7306 11.4827 35.4954C11.4023 36.2539 11.3946 37.2114 11.3596 38.281L13.3585 38.3464ZM13.795 34.5807C13.9979 34.3228 14.498 34.0321 16.2974 33.8981C18.027 33.7694 20.5913 33.7956 24.4974 33.7956V31.7956C20.6539 31.7956 17.9755 31.7677 16.149 31.9036C14.3923 32.0344 13.0231 32.3271 12.223 33.3443L13.795 34.5807ZM24.4974 33.7956C28.4036 33.7956 30.968 33.7694 32.6975 33.8981C34.4969 34.0321 34.997 34.3228 35.1999 34.5807L36.7719 33.3443C35.9718 32.3271 34.6026 32.0344 32.846 31.9036C31.0194 31.7677 28.341 31.7956 24.4974 31.7956V33.7956ZM35.1999 34.5807C35.3344 34.7517 35.4538 35.0507 35.5233 35.7063C35.5935 36.3681 35.5985 37.1892 35.6364 38.3464L37.6353 38.281C37.6003 37.2114 37.5926 36.2539 37.5122 35.4954C37.4311 34.7306 37.2619 33.9673 36.7719 33.3443L35.1999 34.5807ZM111.997 56.7276C111.997 69.5377 112.024 76.5486 111.91 80.4693C111.852 82.4418 111.76 83.5619 111.629 84.2265C111.565 84.5523 111.5 84.716 111.457 84.7969C111.425 84.8578 111.405 84.8743 111.381 84.8921L112.563 86.5052C113.131 86.089 113.418 85.4927 113.591 84.6141C113.758 83.7674 113.852 82.4951 113.909 80.5275C114.024 76.5683 113.997 69.509 113.997 56.7276H111.997ZM111.381 84.8921C111.342 84.9203 111.285 84.9536 111.146 85.0232C111.022 85.0856 110.832 85.1776 110.627 85.2981L111.644 87.0204C111.775 86.9431 111.89 86.8876 112.044 86.8105C112.183 86.7407 112.376 86.6425 112.563 86.5052L111.381 84.8921ZM35.6361 49.9331C35.5988 51.5993 35.6133 52.7727 35.5375 53.6977C35.4616 54.624 35.3066 55.0312 35.1146 55.2585L36.6426 56.5489C37.2613 55.8163 37.4488 54.8623 37.5308 53.8609C37.613 52.8582 37.6007 51.5374 37.6356 49.9778L35.6361 49.9331ZM35.1146 55.2585C34.8625 55.557 34.2914 55.84 32.4969 55.9593C30.7634 56.0746 28.2538 56.0302 24.4974 56.0302V58.0302C28.1789 58.0302 30.808 58.076 32.6296 57.9549C34.3903 57.8378 35.7909 57.5575 36.6426 56.5489L35.1146 55.2585ZM24.4974 56.0302C20.7411 56.0302 18.2315 56.0746 16.498 55.9593C14.7035 55.84 14.1324 55.557 13.8803 55.2585L12.3523 56.5489C13.204 57.5575 14.6046 57.8378 16.3653 57.9549C18.1869 58.076 20.816 58.0302 24.4974 58.0302V56.0302ZM13.8803 55.2585C13.6883 55.0312 13.5333 54.624 13.4574 53.6977C13.3816 52.7727 13.3961 51.5993 13.3588 49.9331L11.3593 49.9778C11.3942 51.5374 11.3819 52.8582 11.4641 53.8609C11.5461 54.8623 11.7336 55.8163 12.3523 56.5489L13.8803 55.2585ZM21.4258 84.5993C29.2001 84.5993 33.6556 84.5833 36.2179 84.6676C37.5115 84.7102 38.2501 84.777 38.6713 84.8651C39.132 84.9614 38.8861 85.0171 38.7659 84.728L40.6127 83.9603C40.3242 83.2664 39.6511 83.0267 39.0806 82.9074C38.4706 82.7799 37.5741 82.7111 36.2837 82.6687C33.6781 82.5829 29.1701 82.5993 21.4258 82.5993V84.5993ZM38.7659 84.728C38.728 84.6368 38.7412 84.5858 38.7399 84.688C38.7393 84.7353 38.7368 84.7857 38.733 84.8711C38.7296 84.9491 38.7256 85.0476 38.7256 85.1556H40.7256C40.7256 85.0943 40.7279 85.0327 40.7311 84.9593C40.734 84.8932 40.7386 84.8008 40.7397 84.7135C40.7419 84.5466 40.7369 84.2591 40.6127 83.9603L38.7659 84.728ZM38.7256 85.1556C38.7256 85.2647 38.7299 85.3639 38.7336 85.4427C38.7378 85.5294 38.7405 85.5792 38.7414 85.6275C38.7434 85.7314 38.7297 85.6787 38.7678 85.5855L40.6187 86.3433C40.7417 86.0428 40.7442 85.7543 40.7411 85.5899C40.7395 85.504 40.7344 85.4115 40.7313 85.3474C40.7279 85.2754 40.7256 85.2151 40.7256 85.1556H38.7256ZM38.7678 85.5855C38.8898 85.2875 39.1455 85.3466 38.6651 85.4451C38.2298 85.5343 37.467 85.6014 36.1321 85.644C33.4873 85.7285 28.8779 85.712 20.8202 85.712V87.712C28.8486 87.712 33.5091 87.7288 36.196 87.643C37.5269 87.6005 38.4453 87.5317 39.0666 87.4043C39.6427 87.2863 40.33 87.0484 40.6187 86.3433L38.7678 85.5855ZM48.3638 77.3473C48.3382 77.3154 48.3102 77.2719 48.2341 77.1461C48.1656 77.033 48.0685 76.8717 47.936 76.693L46.3293 77.884C46.3999 77.9792 46.4539 78.0674 46.523 78.1815C46.5844 78.2831 46.6803 78.4447 46.8032 78.5981L48.3638 77.3473ZM61.3628 74.7074C57.8793 74.682 55.0478 74.666 53.0733 74.6447C52.0854 74.6341 51.3192 74.6222 50.7963 74.6074C50.5331 74.6 50.3423 74.5921 50.2192 74.584C50.1894 74.582 50.1659 74.5802 50.1481 74.5787C50.1394 74.5779 50.1327 74.5772 50.1278 74.5767C50.1229 74.5762 50.1209 74.5759 50.1212 74.5759C50.1213 74.5759 50.126 74.5766 50.1341 74.578C50.1414 74.5792 50.158 74.5823 50.1804 74.5877C50.1992 74.5923 50.2438 74.6038 50.2999 74.6262C50.332 74.639 50.4853 74.6989 50.6315 74.8462L49.2121 76.2552C49.3612 76.4054 49.5195 76.4681 49.5587 76.4838C49.6217 76.5089 49.6755 76.5232 49.7055 76.5305C49.7672 76.5456 49.8228 76.5538 49.8565 76.5583C49.9289 76.568 50.0105 76.5746 50.0886 76.5797C50.2498 76.5903 50.4707 76.599 50.7398 76.6066C51.2816 76.6219 52.0629 76.6339 53.0518 76.6446C55.0309 76.6659 57.8704 76.682 61.3482 76.7073L61.3628 74.7074ZM61.358 77.8202C55.0669 77.8045 51.8143 77.7808 50.0537 77.6695C49.161 77.6131 48.7472 77.5381 48.5403 77.4696C48.4249 77.4314 48.4239 77.4223 48.3638 77.3473L46.8032 78.5981C47.0452 78.9001 47.3483 79.1816 47.9113 79.3681C48.3826 79.5243 49.0212 79.6082 49.9275 79.6655C51.7648 79.7816 55.096 79.8046 61.353 79.8201L61.358 77.8202ZM61.1893 76.6935C61.1539 76.6875 61.2017 76.68 61.2875 76.8C61.3709 76.9169 61.4396 77.0912 61.458 77.2785C61.4765 77.4656 61.4395 77.6003 61.3947 77.6763C61.363 77.7301 61.3022 77.804 61.1196 77.8484L61.5914 79.7919C62.2785 79.6251 62.801 79.2294 63.118 78.6913C63.4219 78.1753 63.499 77.5958 63.4484 77.0825C63.3979 76.5694 63.2146 76.0572 62.9149 75.6376C62.6175 75.2211 62.1509 74.8273 61.5217 74.7213L61.1893 76.6935ZM98.6042 74.7499C98.7217 74.7044 98.8166 74.6974 98.7757 74.7027C98.7713 74.7033 98.7523 74.7055 98.7123 74.7085C98.6342 74.7145 98.5157 74.721 98.3532 74.7275C98.0306 74.7405 97.5685 74.7524 96.9806 74.7632L97.0174 76.7629C97.6097 76.752 98.089 76.7397 98.4335 76.7259C98.6046 76.719 98.7511 76.7114 98.865 76.7027C98.921 76.6984 98.9797 76.6931 99.0343 76.6859C99.0522 76.6836 99.1873 76.6687 99.3255 76.6153L98.6042 74.7499ZM96.9969 79.92L99.8636 79.926L99.8678 77.926L97.0011 77.92L96.9969 79.92ZM96.984 74.7632C96.2874 74.7737 95.7463 75.1377 95.4012 75.5835C95.0647 76.0185 94.8834 76.5604 94.8432 77.0886C94.763 78.1436 95.2601 79.4735 96.7306 79.8833L97.2675 77.9567C97.0796 77.9044 96.9874 77.8131 96.9305 77.716C96.8633 77.6014 96.8227 77.4338 96.8374 77.2404C96.8524 77.0434 96.9195 76.8896 96.9829 76.8076C97.0379 76.7365 97.0485 76.7624 97.0141 76.7629L96.984 74.7632ZM64.0033 82.6014C54.616 82.6066 49.8365 82.6248 47.3593 82.6883C46.1354 82.7197 45.4178 82.7628 44.974 82.8323C44.7484 82.8677 44.5285 82.9188 44.3259 83.0137C44.0906 83.1241 43.9488 83.2613 43.8712 83.3394L45.2907 84.7484C45.3048 84.7342 45.2518 84.7886 45.1747 84.8247C45.1305 84.8454 45.1386 84.8309 45.2834 84.8083C45.5803 84.7618 46.1729 84.7194 47.4105 84.6876C49.8563 84.6249 54.6048 84.6066 64.0045 84.6014L64.0033 82.6014ZM45.0396 87.712H64.0039V85.712H45.0396V87.712ZM63.8513 84.5897C63.9112 84.5989 63.9811 84.6315 64.0548 84.7307C64.1345 84.8378 64.1954 84.9979 64.2057 85.1735C64.2159 85.3483 64.1734 85.4806 64.1206 85.5591C64.08 85.6194 64.0058 85.6941 63.819 85.7292L64.1888 87.6947C64.8848 87.5638 65.4313 87.1942 65.7805 86.6748C66.1174 86.1735 66.2334 85.5904 66.2023 85.0568C66.1439 84.0569 65.4965 82.8199 64.1565 82.6131L63.8513 84.5897ZM108.977 82.5316C109.048 82.504 109.107 82.4914 109.125 82.4875C109.151 82.482 109.171 82.4789 109.181 82.4774C109.192 82.4757 109.201 82.4747 109.205 82.4742C109.21 82.4736 109.213 82.4733 109.214 82.4732C109.216 82.4731 109.207 82.4739 109.181 82.4752C109.131 82.4778 109.052 82.4807 108.941 82.4837C108.721 82.4898 108.398 82.4958 107.977 82.5017C107.137 82.5135 105.92 82.5247 104.386 82.535L104.399 84.5349C105.935 84.5246 107.158 84.5134 108.006 84.5015C108.429 84.4956 108.762 84.4894 108.996 84.483C109.112 84.4798 109.209 84.4764 109.283 84.4726C109.319 84.4708 109.358 84.4684 109.395 84.465C109.413 84.4634 109.44 84.4607 109.472 84.4561C109.474 84.4557 109.58 84.4428 109.698 84.397L108.977 82.5316ZM104.393 87.712H110.2V85.712H104.393V87.712ZM104.386 82.535C103.609 82.5398 103.113 83.0672 102.861 83.4995C102.601 83.9464 102.469 84.4851 102.442 84.9892C102.415 85.4923 102.486 86.0658 102.737 86.5696C103.001 87.0992 103.492 87.585 104.24 87.7003L104.545 85.7236C104.542 85.7231 104.554 85.7263 104.564 85.7342C104.569 85.7383 104.552 85.7268 104.527 85.6769C104.471 85.5655 104.425 85.3598 104.439 85.0971C104.453 84.8355 104.522 84.6218 104.589 84.5069C104.665 84.3774 104.624 84.5335 104.399 84.5349L104.386 82.535ZM11.3591 68.0358C11.3591 68.0843 11.3586 68.1318 11.3582 68.1827L13.3581 68.2013C13.3585 68.1517 13.3591 68.0951 13.3591 68.0358H11.3591ZM11.3582 68.1827C11.3563 68.3862 11.3287 68.8867 11.5464 69.3269L13.339 68.4399C13.3696 68.5017 13.3662 68.5347 13.3619 68.487C13.3599 68.4645 13.3582 68.4316 13.3576 68.3816C13.3569 68.3308 13.3574 68.2748 13.3581 68.2013L11.3582 68.1827ZM11.5464 69.3269C11.8129 69.8654 12.3048 70.1195 12.7848 70.256C13.2498 70.3882 13.8706 70.4584 14.6671 70.5032C16.2784 70.5938 18.9373 70.5929 23.2776 70.5922L23.2773 68.5922C18.9013 68.5929 16.3186 68.5929 14.7794 68.5063C14.0008 68.4625 13.5692 68.3997 13.3317 68.3322C13.1091 68.2689 13.2483 68.2567 13.339 68.4399L11.5464 69.3269ZM23.2776 70.5922C23.67 70.5922 24.0764 70.5921 24.4974 70.5921V68.5921C24.0763 68.5921 23.6697 68.5922 23.2773 68.5922L23.2776 70.5922ZM24.4974 70.5921C24.9185 70.5921 25.3249 70.5922 25.7173 70.5922L25.7176 68.5922C25.3252 68.5922 24.9186 68.5921 24.4974 68.5921V70.5921ZM25.7173 70.5922C30.0576 70.5929 32.7165 70.5938 34.3278 70.5032C35.1243 70.4584 35.7451 70.3882 36.2101 70.256C36.6901 70.1195 37.182 69.8654 37.4485 69.3269L35.6559 68.4399C35.7466 68.2567 35.8858 68.2689 35.6632 68.3322C35.4257 68.3997 34.9941 68.4625 34.2155 68.5063C32.6763 68.5929 30.0936 68.5929 25.7176 68.5922L25.7173 70.5922ZM37.4485 69.3269C37.6662 68.8867 37.6386 68.3862 37.6367 68.1826L35.6368 68.2013C35.6375 68.2748 35.638 68.3308 35.6373 68.3816C35.6367 68.4316 35.635 68.4645 35.633 68.487C35.6287 68.5347 35.6253 68.5016 35.6559 68.4399L37.4485 69.3269ZM37.6367 68.1827C37.6363 68.1318 37.6358 68.0843 37.6358 68.0358H35.6358C35.6358 68.0951 35.6364 68.1517 35.6368 68.2013L37.6367 68.1827ZM37.6358 68.0358C37.6358 67.9872 37.6363 67.9397 37.6367 67.8889L35.6368 67.8702C35.6364 67.9199 35.6358 67.9765 35.6358 68.0358H37.6358ZM37.6367 67.8889C37.6386 67.6854 37.6662 67.1848 37.4485 66.7447L35.6559 67.6316C35.6253 67.5699 35.6287 67.5368 35.633 67.5845C35.635 67.6071 35.6367 67.6399 35.6373 67.6899C35.638 67.7408 35.6375 67.7967 35.6368 67.8702L37.6367 67.8889ZM37.4485 66.7447C37.182 66.2062 36.6901 65.952 36.2101 65.8156C35.7451 65.6834 35.1243 65.6132 34.3278 65.5684C32.7165 65.4778 30.0576 65.4786 25.7173 65.4793L25.7176 67.4793C30.0936 67.4786 32.6763 67.4787 34.2155 67.5652C34.9941 67.609 35.4257 67.6718 35.6632 67.7394C35.8858 67.8026 35.7466 67.8149 35.6559 67.6316L37.4485 66.7447ZM25.7173 65.4793C25.3249 65.4794 24.9185 65.4794 24.4974 65.4794V67.4794C24.9186 67.4794 25.3252 67.4794 25.7176 67.4793L25.7173 65.4793ZM11.3591 72.7048C11.3591 72.7534 11.3586 72.8009 11.3582 72.8517L13.3581 72.8704C13.3585 72.8207 13.3591 72.7641 13.3591 72.7048H11.3591ZM11.3582 72.8517C11.3563 73.0552 11.3287 73.5558 11.5464 73.9959L13.339 73.109C13.3696 73.1707 13.3662 73.2038 13.3619 73.1561C13.3599 73.1335 13.3582 73.1007 13.3576 73.0507C13.3569 72.9998 13.3574 72.9439 13.3581 72.8704L11.3582 72.8517ZM11.5464 73.9959C11.8129 74.5344 12.3048 74.7886 12.7848 74.925C13.2498 75.0572 13.8706 75.1274 14.6671 75.1722C16.2784 75.2628 18.9373 75.262 23.2776 75.2613L23.2773 73.2613C18.9013 73.262 16.3186 73.2619 14.7794 73.1754C14.0008 73.1316 13.5692 73.0688 13.3317 73.0012C13.1091 72.938 13.2483 72.9257 13.339 73.109L11.5464 73.9959ZM23.2776 75.2613C23.67 75.2612 24.0764 75.2612 24.4974 75.2612V73.2612C24.0763 73.2612 23.6697 73.2612 23.2773 73.2613L23.2776 75.2613ZM24.4974 75.2612C24.9185 75.2612 25.3249 75.2612 25.7173 75.2613L25.7176 73.2613C25.3252 73.2612 24.9186 73.2612 24.4974 73.2612V75.2612ZM25.7173 75.2613C30.0576 75.262 32.7165 75.2628 34.3278 75.1722C35.1243 75.1274 35.7451 75.0572 36.2101 74.925C36.6901 74.7886 37.182 74.5344 37.4485 73.9959L35.6559 73.109C35.7466 72.9257 35.8858 72.938 35.6632 73.0012C35.4257 73.0688 34.9941 73.1316 34.2155 73.1754C32.6763 73.2619 30.0936 73.262 25.7176 73.2613L25.7173 75.2613ZM37.4485 73.9959C37.6662 73.5558 37.6386 73.0552 37.6367 72.8517L35.6368 72.8704C35.6375 72.9439 35.638 72.9998 35.6373 73.0507C35.6367 73.1007 35.635 73.1335 35.633 73.1561C35.6287 73.2038 35.6253 73.1707 35.6559 73.109L37.4485 73.9959ZM37.6367 72.8517C37.6363 72.8009 37.6358 72.7534 37.6358 72.7048H35.6358C35.6358 72.7641 35.6364 72.8207 35.6368 72.8704L37.6367 72.8517ZM37.6358 72.7048C37.6358 72.6563 37.6363 72.6088 37.6367 72.5579L35.6368 72.5393C35.6364 72.5889 35.6358 72.6455 35.6358 72.7048H37.6358ZM37.6367 72.558C37.6386 72.3544 37.6662 71.8539 37.4485 71.4137L35.6559 72.3007C35.6253 72.2389 35.6287 72.2059 35.633 72.2536C35.635 72.2761 35.6367 72.309 35.6373 72.359C35.638 72.4098 35.6375 72.4658 35.6368 72.5393L37.6367 72.558ZM37.4485 71.4137C37.182 70.8752 36.6901 70.6211 36.2101 70.4846C35.7451 70.3524 35.1243 70.2822 34.3278 70.2374C32.7165 70.1468 30.0576 70.1477 25.7173 70.1483L25.7176 72.1483C30.0936 72.1477 32.6763 72.1477 34.2155 72.2343C34.9941 72.278 35.4257 72.3409 35.6632 72.4084C35.8858 72.4717 35.7466 72.4839 35.6559 72.3007L37.4485 71.4137ZM25.7173 70.1483C25.3249 70.1484 24.9185 70.1485 24.4974 70.1485V72.1485C24.9186 72.1485 25.3252 72.1484 25.7176 72.1483L25.7173 70.1483ZM11.3591 77.3739C11.3591 77.4224 11.3586 77.4699 11.3582 77.5208L13.3581 77.5394C13.3585 77.4898 13.3591 77.4332 13.3591 77.3739H11.3591ZM11.3582 77.5208C11.3563 77.7243 11.3287 78.2248 11.5464 78.665L13.339 77.778C13.3696 77.8398 13.3662 77.8728 13.3619 77.8251C13.3599 77.8026 13.3582 77.7697 13.3576 77.7197C13.3569 77.6689 13.3574 77.6129 13.3581 77.5394L11.3582 77.5208ZM11.5464 78.665C11.8129 79.2035 12.3048 79.4576 12.7848 79.5941C13.2498 79.7263 13.8706 79.7965 14.6671 79.8413C16.2784 79.9319 18.9373 79.931 23.2776 79.9303L23.2773 77.9303C18.9013 77.931 16.3186 77.931 14.7794 77.8444C14.0008 77.8006 13.5692 77.7378 13.3317 77.6703C13.1091 77.607 13.2483 77.5947 13.339 77.778L11.5464 78.665ZM23.2776 79.9303C23.67 79.9303 24.0764 79.9302 24.4974 79.9302V77.9302C24.0763 77.9302 23.6697 77.9303 23.2773 77.9303L23.2776 79.9303ZM24.4974 79.9302C24.9185 79.9302 25.3249 79.9303 25.7173 79.9303L25.7176 77.9303C25.3252 77.9303 24.9186 77.9302 24.4974 77.9302V79.9302ZM25.7173 79.9303C30.0576 79.931 32.7165 79.9319 34.3278 79.8413C35.1243 79.7965 35.7451 79.7263 36.2101 79.5941C36.6901 79.4576 37.182 79.2035 37.4485 78.665L35.6559 77.778C35.7466 77.5947 35.8858 77.607 35.6632 77.6703C35.4257 77.7378 34.9941 77.8006 34.2155 77.8444C32.6763 77.931 30.0936 77.931 25.7176 77.9303L25.7173 79.9303ZM37.4485 78.665C37.6662 78.2248 37.6386 77.7243 37.6367 77.5207L35.6368 77.5394C35.6375 77.6129 35.638 77.6689 35.6373 77.7197C35.6367 77.7697 35.635 77.8026 35.633 77.8251C35.6287 77.8728 35.6253 77.8397 35.6559 77.778L37.4485 78.665ZM37.6367 77.5208C37.6363 77.4699 37.6358 77.4224 37.6358 77.3739H35.6358C35.6358 77.4332 35.6364 77.4898 35.6368 77.5394L37.6367 77.5208ZM37.6358 77.3739C37.6358 77.3253 37.6363 77.2778 37.6367 77.227L35.6368 77.2083C35.6364 77.258 35.6358 77.3146 35.6358 77.3739H37.6358ZM37.6367 77.227C37.6386 77.0235 37.6662 76.5229 37.4485 76.0828L35.6559 76.9697C35.6253 76.908 35.6287 76.8749 35.633 76.9226C35.635 76.9452 35.6367 76.978 35.6373 77.028C35.638 77.0789 35.6375 77.1348 35.6368 77.2083L37.6367 77.227ZM37.4485 76.0828C37.182 75.5443 36.6901 75.2901 36.2101 75.1537C35.7451 75.0215 35.1243 74.9513 34.3278 74.9065C32.7165 74.8159 30.0576 74.8167 25.7173 74.8174L25.7176 76.8174C30.0936 76.8167 32.6763 76.8168 34.2155 76.9033C34.9941 76.9471 35.4257 77.0099 35.6632 77.0775C35.8858 77.1407 35.7466 77.153 35.6559 76.9697L37.4485 76.0828ZM25.7173 74.8174C25.3249 74.8175 24.9185 74.8175 24.4974 74.8175V76.8175C24.9186 76.8175 25.3252 76.8175 25.7176 76.8174L25.7173 74.8174ZM112.71 25.0047C113.23 24.727 113.491 24.2454 113.637 23.751C113.777 23.2742 113.853 22.6466 113.901 21.8522C113.998 20.2485 113.997 17.6408 113.997 13.4497L111.997 13.4498C111.997 17.6785 111.997 20.2048 111.904 21.7313C111.858 22.5019 111.791 22.9385 111.718 23.1852C111.651 23.4143 111.627 23.3155 111.768 23.2402L112.71 25.0047ZM113.997 13.4497V13.0479H111.997V13.4497H113.997ZM113.997 13.0479V12.8315H111.997V13.0479H113.997ZM113.997 12.8315C113.997 8.41926 113.998 5.6991 113.881 3.97452C113.767 2.29057 113.536 1.25387 112.796 0.509348L111.377 1.91855C111.548 2.09116 111.772 2.43044 111.886 4.10959C111.997 5.7481 111.997 8.37816 111.997 12.8315L113.997 12.8315ZM112.796 0.509344C112.45 0.161047 112.029 -0.0803936 111.68 -0.286447L110.663 1.43602C111.07 1.67594 111.248 1.78817 111.377 1.91856L112.796 0.509344ZM111.68 -0.286396L111.644 -0.307386L110.628 1.41498L110.663 1.43597L111.68 -0.286396Z" fill="#F5A16F" mask="url(#path-2-inside-1_330_274)"/>
</svg>
