<svg width="135" height="83" viewBox="0 0 135 83" fill="none" xmlns="http://www.w3.org/2000/svg">
<path fill-rule="evenodd" clip-rule="evenodd" d="M15.8481 0.435676C14.2976 1.13737 14.6317 0.413278 7.15169 19.292C-0.584715 38.8173 -0.216504 37.7699 0.162545 39.173C0.643889 40.9548 1.44296 41.4552 7.81409 43.9647C14.0232 46.4102 15.1114 46.649 16.5856 45.889C17.4796 45.4282 17.4653 45.4208 24.4 49.8908L27.3557 51.7958L26.8175 53.1982C25.1422 57.563 28.0559 62.2458 32.7922 62.8007C34.1138 62.9554 34.2888 63.0482 34.4199 63.6621C35.1368 67.0127 37.4555 69.1439 40.734 69.4651L42.3133 69.6198L42.5023 70.7272C42.9995 73.6407 45.6743 75.9861 48.8248 76.2707L50.3389 76.4077L50.511 77.5518C51.3989 83.4541 58.9838 84.9563 63.3334 80.0916L64.6563 78.6118L65.7829 79.4566C71.8302 83.9919 78.3047 82.7042 79.8748 76.6543C80.1305 75.6696 80.297 75.4359 80.6895 75.5107C85.8236 76.4881 90.831 73.1003 90.831 68.6496C90.831 68.2527 91.0496 68.1705 92.1046 68.1705C95.9416 68.1705 99.2193 65.6974 100.071 62.1597L100.368 60.9244L102.406 60.9183C107.737 60.9023 111.414 55.7224 109.79 50.5163C109.596 49.8955 109.805 49.7168 113.412 47.4199L117.24 44.9823L118.214 45.6413C119.872 46.7628 125.346 45.288 133.046 41.6457C135.775 40.3548 135.694 38.7391 132.494 30.6223C129.443 22.8842 128.458 21.7048 126.799 23.807C126.029 24.7835 125.982 24.6012 128.8 31.7116C130.202 35.2493 131.297 38.1965 131.232 38.2608C131.05 38.4429 120.373 42.6378 120.304 42.554C119.938 42.1031 106.752 8.19643 106.894 8.07048C107.432 7.59381 117.577 3.8245 117.761 4.03319C117.876 4.16494 119.15 7.27815 120.591 10.9515C123.482 18.3194 123.802 18.79 125.463 18.1044C127.172 17.3988 127.11 17.0491 123.826 8.85069C119.731 -1.37033 119.988 -1.21302 112.288 1.77292C103.426 5.2097 102.993 5.5035 102.991 8.09498L102.99 9.28203L99.3655 10.5927C94.8986 12.2076 93.5462 12.3254 88.7143 11.5186C84.8868 10.8793 84.2001 10.9658 83.6566 12.1544C82.8406 13.9396 83.6973 14.5485 88.0191 15.2563C93.833 16.2083 95.6252 16.0336 101.227 13.9686C102.957 13.3309 104.401 12.845 104.436 12.8888C104.843 13.3952 115.653 41.4186 115.496 41.5585C115.099 41.9121 107.304 46.8273 107.14 46.8273C107.051 46.8273 103.255 44.0733 98.7062 40.7071L90.4346 34.5866L85.8088 34.5745C78.4234 34.555 74.3469 32.9898 68.9787 28.1117C66.1649 25.5548 64.2971 25.2525 61.9961 26.9819C61.4532 27.39 60.0218 28.4759 58.8152 29.395C53.7808 33.2296 49.3892 34.3816 46.0377 32.7469C43.1907 31.3585 42.9998 30.2887 45.3256 28.7568C49.8071 25.8048 55.8341 20.8429 60.8296 15.9925C65.2016 11.7473 65.4467 11.6746 71.913 12.7056C76.792 13.4835 77.4026 13.4263 77.8911 12.146C78.5865 10.3223 77.7013 9.78399 72.6927 8.98507C65.6148 7.85626 63.3836 8.3208 59.9325 11.6422L58.1504 13.3573L55.5819 12.7077C52.8725 12.0227 48.1645 11.604 41.1371 11.4229C37.4106 11.327 37.2327 11.2959 34.7276 10.3018L32.1509 9.27913L32.1493 8.0934C32.1462 5.5251 31.82 5.29323 23.7941 2.15025C17.6181 -0.268386 17.4727 -0.299741 15.8481 0.435676ZM23.427 6.0903C26.4649 7.31055 28.3047 8.18668 28.2843 8.40327C28.2558 8.70471 15.0054 42.3484 14.8328 42.5574C14.7668 42.6372 4.07912 38.426 3.89752 38.2484C3.84175 38.1942 6.71845 30.7644 10.2898 21.738C13.8614 12.712 16.9123 4.9881 17.0696 4.57441C17.4246 3.64005 17.183 3.58261 23.427 6.0903ZM33.024 13.7262C35.8954 14.9058 37.4552 15.2075 40.6875 15.2089C46.5434 15.2107 54.6182 15.9466 54.6179 16.4781C54.6174 16.891 48.5729 21.7947 44.7753 24.4626C41.2452 26.9426 40.8957 27.2601 40.315 28.5144C39.0063 31.3409 40.4297 34.2101 44.0368 36.0166C49.3799 38.6922 55.4093 37.1489 62.7251 31.2328C64.9376 29.444 64.8641 29.4608 65.8686 30.5151C70.4393 35.3139 77.2493 38.1278 84.7795 38.3296L89.1692 38.4471L97.203 44.3494C106.756 51.3671 107.397 52.1463 105.963 54.9905C104.187 58.5152 101.982 58.0225 94.8185 52.5012C90.4565 49.1393 89.9558 48.9045 88.9033 49.73C87.1772 51.0833 87.7165 51.8754 93.2653 56.1377C96.5266 58.6428 97.0819 59.9015 95.9627 62.2524C94.4288 65.4747 91.9312 65.0955 86.316 60.7879C81.8211 57.34 81.2956 57.0831 80.2772 57.8375C78.5273 59.1339 79.0131 60.0051 83.3347 63.319C87.283 66.3466 87.732 67.2191 86.6113 69.6801C85.0621 73.0821 82.6826 72.7904 77.0391 68.507C73.0356 65.4681 72.254 65.2136 71.2138 66.6088C70.3759 67.7331 70.7912 68.5015 73.2851 70.4427C76.4872 72.9353 77.0796 74.3909 75.7656 76.5389C74.1529 79.176 71.5096 79.0845 68.0102 76.2704L67.2608 75.6678L68.1928 74.2873C71.3468 69.6153 68.0078 63.1662 62.4336 63.1638C61.6697 63.1633 61.5954 63.0708 61.1526 61.5686C60.3269 58.7677 57.9722 56.8152 54.9494 56.4247C53.5933 56.2494 53.5563 56.2215 53.2756 55.1596C52.4343 51.9755 50.2953 50.1461 46.9637 49.7608C45.5503 49.5975 45.517 49.574 45.3148 48.6017C43.9519 42.0467 36.8132 40.9727 31.9247 46.5873L29.9031 48.9095L29.2422 48.4726C28.8788 48.2323 26.9161 46.9815 24.8808 45.693C19.1842 42.0865 19.1583 42.0689 19.2469 41.8296C19.9963 39.8004 30.7193 12.8392 30.7772 12.8379C30.8216 12.8371 31.8327 13.2368 33.024 13.7262ZM40.3044 47.3333C42.7252 48.6247 42.2251 50.5924 38.3074 55.1912C34.776 59.3366 33.3888 59.9531 31.382 58.2699C29.0892 56.3469 30.2396 53.7328 36.1074 47.5322C36.9176 46.6761 38.8966 46.582 40.3044 47.3333ZM47.735 53.8047C50.7264 55.3467 50.3973 57.1675 46.2532 62.0005C42.4711 66.4109 40.3354 67.032 38.6619 64.2075C37.5665 62.3591 37.9376 61.5001 41.7694 57.0188C44.8448 53.4219 45.8947 52.8561 47.735 53.8047ZM55.9134 60.6475C58.7034 62.0856 58.2857 64.0776 54.1963 68.8403C50.4822 73.1659 48.5571 73.7472 46.7583 71.0866C45.4811 69.1974 45.7824 68.4256 49.4952 64.0798C52.8434 60.1602 53.8865 59.6024 55.9134 60.6475ZM63.2575 67.1334C66.6422 68.4082 66.4828 70.5359 62.6646 75.0465C58.2944 80.2092 54.7302 80.8081 54.1897 76.4704C53.9071 74.2038 59.8495 67.2027 62.3324 66.8768C62.432 66.8639 62.8483 66.9793 63.2575 67.1334Z" fill="#F5A16F"/>
</svg>
