<svg width="111" height="98" viewBox="0 0 111 98" fill="none" xmlns="http://www.w3.org/2000/svg">
<mask id="path-1-inside-1_363_31" fill="white">
<path fill-rule="evenodd" clip-rule="evenodd" d="M6.01355 0.303752C3.56807 0.964252 1.42758 2.83936 0.500477 5.13309L0 6.37115V41.1115V75.8518L0.50417 77.0996C1.20775 78.8412 2.83886 80.5569 4.62811 81.4376L6.07263 82.1485L25.03 82.2084C35.4566 82.2414 43.9821 82.3391 43.9758 82.4255C43.9695 82.5119 43.5995 85.3185 43.1536 88.6623L42.3431 94.7418L39.0181 94.8504C34.9711 94.9826 33.8763 95.7543 35.2793 97.4861L35.6944 97.9987H55.4731C77.2158 97.9987 75.7589 98.0919 76.0404 96.6849C76.3309 95.2332 75.757 94.9737 71.9819 94.8504L68.6569 94.7418L67.8464 88.6623C67.4005 85.3185 67.0305 82.5095 67.0242 82.4199C67.0179 82.3302 71.0072 82.257 75.8895 82.257C84.5409 82.257 84.7808 82.2455 85.3386 81.8069C86.0869 81.2187 86.1034 80.2584 85.3777 79.5332L84.8446 79.0001H45.9451C2.98766 79.0001 6.25488 79.1085 4.69806 77.632C3.36345 76.3664 3.15992 75.6092 3.15449 71.8892L3.14971 68.578H55.5H107.85L107.846 71.8892C107.84 75.6092 107.637 76.3664 106.302 77.632C104.9 78.9615 104.645 79.0001 97.2427 79.0001C89.6157 79.0001 89.3865 79.0481 89.3865 80.6444C89.3865 82.3004 89.3415 82.2918 97.6051 82.2158L104.928 82.1485L106.372 81.4376C108.161 80.5569 109.792 78.8405 110.496 77.0996L111 75.8518V41.1115V6.37115L110.476 5.06839C109.759 3.28643 107.787 1.3147 106.004 0.598176L104.701 0.074466L86.0244 0.0143218C72.6796 -0.0286693 67.1817 0.0232241 66.7647 0.19584C65.619 0.670045 65.4867 2.42183 66.5535 2.99244C66.8474 3.14964 72.8095 3.22281 85.3149 3.22281C105.98 3.22281 104.949 3.14399 106.518 4.84453C107.911 6.3553 107.848 4.86168 107.849 36.389L107.85 65.3211H103.944H100.037L99.9795 39.5373L99.9217 13.7535L99.3124 12.7173C98.6062 11.5164 97.5064 10.7195 96.1204 10.4041C94.7669 10.096 16.2332 10.096 14.8796 10.4041C13.4936 10.7195 12.3938 11.5164 11.6876 12.7173L11.0783 13.7535L11.0205 39.5373L10.9627 65.3211H7.05621H3.14971L3.15449 36.1718C3.15992 3.24604 3.00417 6.07868 4.89812 4.45826C6.39195 3.18025 5.31323 3.22541 34.385 3.22411L61.3847 3.22281L61.9178 2.68976C62.5575 2.05054 62.6005 1.28408 62.0358 0.587103L61.6206 0.074466L34.3944 0.0332118C11.317 -0.00174563 6.99235 0.0395085 6.01355 0.303752ZM96.3567 14.049C96.7344 14.5151 96.772 14.9516 96.772 18.8801V23.1985H55.5H14.228V18.9502C14.228 14.523 14.3227 13.9864 15.1653 13.6456C15.4357 13.5361 32.9162 13.4714 55.7906 13.4949L95.9416 13.5363L96.3567 14.049ZM18.9349 16.2602C18.2131 16.8278 17.8884 17.961 18.1629 18.9547C18.8793 21.5477 22.9168 20.9106 22.9168 18.2046C22.9168 16.2576 20.4627 15.0593 18.9349 16.2602ZM26.9721 16.2602C25.795 17.1858 25.8267 19.2924 27.0308 20.1494C28.6404 21.2949 30.954 20.1481 30.954 18.2046C30.954 16.2576 28.4998 15.0593 26.9721 16.2602ZM35.0237 16.3058C33.827 17.277 33.85 19.2824 35.068 20.1494C36.6776 21.2949 38.9912 20.1481 38.9912 18.2046C38.9912 16.2281 36.5555 15.0625 35.0237 16.3058ZM96.772 45.8883V65.3211H92.7534H88.7348V61.3043C88.7348 55.7436 90.8606 56.4189 73.3536 56.4189C55.9099 56.4189 58.0315 55.7734 57.8894 61.1234L57.7808 65.2126H55.5H53.2192L53.1106 61.1234C52.9685 55.7734 55.0901 56.4189 37.6464 56.4189C20.1394 56.4189 22.2652 55.7436 22.2652 61.3043V65.3211H18.2466H14.228V45.8883V26.4554H55.5H96.772V45.8883ZM23.4075 31.6009C22.2726 31.823 22.2652 31.8903 22.2652 42.0284C22.2652 53.7493 21.2077 52.2935 29.7215 52.2935H36.3087L36.7812 51.7911C37.364 51.1707 37.3864 50.3346 36.8385 49.6578C36.4247 49.1467 36.4073 49.1449 30.8619 49.0772L25.3004 49.0095L25.3575 41.912L25.4149 34.8148L55.4457 34.7596L85.4765 34.7047V41.8675V49.0305L63.56 49.0878C38.8257 49.1525 40.729 49.0103 40.729 50.7949C40.729 52.4025 38.9797 52.2935 64.7803 52.2935C87.5764 52.2935 87.8714 52.2881 88.3004 51.8592C88.9625 51.1974 88.9803 32.886 88.3195 32.0705L87.9044 31.5579L55.8993 31.5318C38.2965 31.5173 23.6751 31.5485 23.4075 31.6009ZM50.0217 62.4442L49.9609 65.2126L37.7422 65.2686L25.5235 65.3248V62.5002V59.6758H37.803H50.0825L50.0217 62.4442ZM85.4765 62.5002V65.3248L73.2578 65.2686L61.0391 65.2126L60.9783 62.4442L60.9175 59.6758H73.197H85.4765V62.5002ZM63.8409 82.8541C63.9075 83.1824 64.2562 85.7473 64.6155 88.5537C64.975 91.3601 65.3167 93.925 65.3751 94.2533L65.4813 94.8504H55.4904H45.4996L45.6058 94.3618C45.6642 94.093 46.012 91.4795 46.3791 88.5537C46.746 85.6279 47.0929 83.0144 47.15 82.7456L47.2539 82.257H55.487H63.7199L63.8409 82.8541Z"/>
</mask>
<path fill-rule="evenodd" clip-rule="evenodd" d="M6.01355 0.303752C3.56807 0.964252 1.42758 2.83936 0.500477 5.13309L0 6.37115V41.1115V75.8518L0.50417 77.0996C1.20775 78.8412 2.83886 80.5569 4.62811 81.4376L6.07263 82.1485L25.03 82.2084C35.4566 82.2414 43.9821 82.3391 43.9758 82.4255C43.9695 82.5119 43.5995 85.3185 43.1536 88.6623L42.3431 94.7418L39.0181 94.8504C34.9711 94.9826 33.8763 95.7543 35.2793 97.4861L35.6944 97.9987H55.4731C77.2158 97.9987 75.7589 98.0919 76.0404 96.6849C76.3309 95.2332 75.757 94.9737 71.9819 94.8504L68.6569 94.7418L67.8464 88.6623C67.4005 85.3185 67.0305 82.5095 67.0242 82.4199C67.0179 82.3302 71.0072 82.257 75.8895 82.257C84.5409 82.257 84.7808 82.2455 85.3386 81.8069C86.0869 81.2187 86.1034 80.2584 85.3777 79.5332L84.8446 79.0001H45.9451C2.98766 79.0001 6.25488 79.1085 4.69806 77.632C3.36345 76.3664 3.15992 75.6092 3.15449 71.8892L3.14971 68.578H55.5H107.85L107.846 71.8892C107.84 75.6092 107.637 76.3664 106.302 77.632C104.9 78.9615 104.645 79.0001 97.2427 79.0001C89.6157 79.0001 89.3865 79.0481 89.3865 80.6444C89.3865 82.3004 89.3415 82.2918 97.6051 82.2158L104.928 82.1485L106.372 81.4376C108.161 80.5569 109.792 78.8405 110.496 77.0996L111 75.8518V41.1115V6.37115L110.476 5.06839C109.759 3.28643 107.787 1.3147 106.004 0.598176L104.701 0.074466L86.0244 0.0143218C72.6796 -0.0286693 67.1817 0.0232241 66.7647 0.19584C65.619 0.670045 65.4867 2.42183 66.5535 2.99244C66.8474 3.14964 72.8095 3.22281 85.3149 3.22281C105.98 3.22281 104.949 3.14399 106.518 4.84453C107.911 6.3553 107.848 4.86168 107.849 36.389L107.85 65.3211H103.944H100.037L99.9795 39.5373L99.9217 13.7535L99.3124 12.7173C98.6062 11.5164 97.5064 10.7195 96.1204 10.4041C94.7669 10.096 16.2332 10.096 14.8796 10.4041C13.4936 10.7195 12.3938 11.5164 11.6876 12.7173L11.0783 13.7535L11.0205 39.5373L10.9627 65.3211H7.05621H3.14971L3.15449 36.1718C3.15992 3.24604 3.00417 6.07868 4.89812 4.45826C6.39195 3.18025 5.31323 3.22541 34.385 3.22411L61.3847 3.22281L61.9178 2.68976C62.5575 2.05054 62.6005 1.28408 62.0358 0.587103L61.6206 0.074466L34.3944 0.0332118C11.317 -0.00174563 6.99235 0.0395085 6.01355 0.303752ZM96.3567 14.049C96.7344 14.5151 96.772 14.9516 96.772 18.8801V23.1985H55.5H14.228V18.9502C14.228 14.523 14.3227 13.9864 15.1653 13.6456C15.4357 13.5361 32.9162 13.4714 55.7906 13.4949L95.9416 13.5363L96.3567 14.049ZM18.9349 16.2602C18.2131 16.8278 17.8884 17.961 18.1629 18.9547C18.8793 21.5477 22.9168 20.9106 22.9168 18.2046C22.9168 16.2576 20.4627 15.0593 18.9349 16.2602ZM26.9721 16.2602C25.795 17.1858 25.8267 19.2924 27.0308 20.1494C28.6404 21.2949 30.954 20.1481 30.954 18.2046C30.954 16.2576 28.4998 15.0593 26.9721 16.2602ZM35.0237 16.3058C33.827 17.277 33.85 19.2824 35.068 20.1494C36.6776 21.2949 38.9912 20.1481 38.9912 18.2046C38.9912 16.2281 36.5555 15.0625 35.0237 16.3058ZM96.772 45.8883V65.3211H92.7534H88.7348V61.3043C88.7348 55.7436 90.8606 56.4189 73.3536 56.4189C55.9099 56.4189 58.0315 55.7734 57.8894 61.1234L57.7808 65.2126H55.5H53.2192L53.1106 61.1234C52.9685 55.7734 55.0901 56.4189 37.6464 56.4189C20.1394 56.4189 22.2652 55.7436 22.2652 61.3043V65.3211H18.2466H14.228V45.8883V26.4554H55.5H96.772V45.8883ZM23.4075 31.6009C22.2726 31.823 22.2652 31.8903 22.2652 42.0284C22.2652 53.7493 21.2077 52.2935 29.7215 52.2935H36.3087L36.7812 51.7911C37.364 51.1707 37.3864 50.3346 36.8385 49.6578C36.4247 49.1467 36.4073 49.1449 30.8619 49.0772L25.3004 49.0095L25.3575 41.912L25.4149 34.8148L55.4457 34.7596L85.4765 34.7047V41.8675V49.0305L63.56 49.0878C38.8257 49.1525 40.729 49.0103 40.729 50.7949C40.729 52.4025 38.9797 52.2935 64.7803 52.2935C87.5764 52.2935 87.8714 52.2881 88.3004 51.8592C88.9625 51.1974 88.9803 32.886 88.3195 32.0705L87.9044 31.5579L55.8993 31.5318C38.2965 31.5173 23.6751 31.5485 23.4075 31.6009ZM50.0217 62.4442L49.9609 65.2126L37.7422 65.2686L25.5235 65.3248V62.5002V59.6758H37.803H50.0825L50.0217 62.4442ZM85.4765 62.5002V65.3248L73.2578 65.2686L61.0391 65.2126L60.9783 62.4442L60.9175 59.6758H73.197H85.4765V62.5002ZM63.8409 82.8541C63.9075 83.1824 64.2562 85.7473 64.6155 88.5537C64.975 91.3601 65.3167 93.925 65.3751 94.2533L65.4813 94.8504H55.4904H45.4996L45.6058 94.3618C45.6642 94.093 46.012 91.4795 46.3791 88.5537C46.746 85.6279 47.0929 83.0144 47.15 82.7456L47.2539 82.257H55.487H63.7199L63.8409 82.8541Z" fill="#F5A16F" stroke="#F5A16F" stroke-width="2" mask="url(#path-1-inside-1_363_31)"/>
</svg>
