<svg width="120" height="120" viewBox="0 0 120 120" fill="none" xmlns="http://www.w3.org/2000/svg">
<path d="M94.8402 77.7773C95.2649 77.9439 95.411 78.1132 95.4544 78.2159C95.4882 78.2961 95.5074 78.4533 95.3238 78.7541C95.1386 79.0575 94.7874 79.4331 94.2336 79.8745C93.6852 80.3115 92.963 80.7935 92.0636 81.3158L92.0635 81.3158L89.5405 82.7812L88.9806 83.1064L89.4369 83.5659L94.17 88.3326L98.903 93.0992L98.9042 93.1003L101.501 95.6981L101.504 95.701L104.072 98.3133L104.411 97.9796L104.072 98.3133C104.337 98.5825 104.578 98.8236 104.798 99.0428C105.24 99.4844 105.593 99.837 105.868 100.151C106.282 100.624 106.416 100.902 106.431 101.125C106.449 101.4 106.295 101.78 105.629 102.544C105.151 103.093 104.477 103.768 103.573 104.673C103.251 104.996 102.899 105.349 102.516 105.736C101.94 106.318 101.445 106.846 101.011 107.309L100.973 107.35C100.554 107.798 100.198 108.178 99.8763 108.494C99.195 109.164 98.7616 109.445 98.3661 109.493C98.1039 109.524 97.7883 109.46 97.3365 109.198C96.8784 108.932 96.3222 108.486 95.5958 107.814C94.6778 106.964 93.5359 105.798 92.0331 104.263C91.1526 103.364 90.1481 102.338 88.9922 101.176L80.3129 92.4452L79.901 92.0309L79.5553 92.5017L79.1294 93.0816C78.2388 94.2941 77.5161 95.2302 76.9178 95.9215C76.3122 96.6213 75.8639 97.0345 75.5251 97.2378C75.2055 97.4295 75.0781 97.3849 75.002 97.3411C74.8581 97.2583 74.664 97.027 74.4207 96.5048L74.4137 96.4899L74.4058 96.4755C74.3749 96.4191 74.3096 96.2355 74.2218 95.9094C74.1398 95.6042 74.0504 95.2233 73.9613 94.8151C73.7834 93.9998 73.6111 93.0949 73.507 92.5112L73.5057 92.5039L73.5041 92.4965L71.5691 83.2595L71.5691 83.2595L71.552 83.1778C70.6819 79.0245 70.1435 76.4546 69.9056 74.8558C69.7852 74.0471 69.7482 73.5255 69.7728 73.1878C69.7848 73.0219 69.8104 72.9246 69.8334 72.8696C69.8532 72.822 69.869 72.8105 69.8741 72.8067L69.8743 72.8066C69.8881 72.7964 69.934 72.7703 70.071 72.7543C70.2087 72.7382 70.3777 72.7378 70.6166 72.7378C70.6183 72.7382 70.6367 72.7399 70.6816 72.7464C70.7379 72.7545 70.8161 72.7671 70.9165 72.7844C71.1166 72.8188 71.3942 72.8697 71.7396 72.9353C72.4298 73.0662 73.3828 73.2539 74.5123 73.4804C76.7708 73.9333 79.7298 74.5403 82.6919 75.1565C85.6541 75.7726 88.6183 76.3976 90.8874 76.8864C92.0222 77.1309 92.9819 77.3411 93.6801 77.4989C94.0295 77.5779 94.3116 77.6434 94.5167 77.6933C94.6194 77.7183 94.7006 77.7388 94.7602 77.7548C94.8058 77.7671 94.8292 77.7742 94.8377 77.7768C94.842 77.7781 94.8425 77.7782 94.8402 77.7773ZM94.8402 77.7773C94.8402 77.7773 94.8402 77.7773 94.8402 77.7773L95.0227 77.3118L94.8402 77.7773ZM90.1159 79.0902L90.1149 79.0892C90.0597 79.0336 90.0037 79.0045 89.9917 78.9982L89.9907 78.9976C89.9702 78.9869 89.9529 78.9796 89.9438 78.9759C89.9248 78.9683 89.9083 78.9628 89.8995 78.96C89.8802 78.9537 89.8598 78.948 89.8426 78.9434C89.8064 78.9336 89.7584 78.9216 89.7017 78.9079C89.5872 78.8802 89.4231 78.8423 89.2162 78.7955C88.8019 78.7018 88.2082 78.571 87.48 78.4126C86.023 78.0959 84.0233 77.6683 81.8321 77.2062C77.4451 76.281 73.6712 75.4799 73.4347 75.4241C73.4169 75.4199 73.4013 75.4159 73.3816 75.4108C73.3736 75.4088 73.3651 75.4065 73.3554 75.4041C73.3266 75.3967 73.2859 75.3865 73.243 75.3787C73.1751 75.3663 72.9943 75.3365 72.8079 75.4286L73.0065 75.8305L72.8079 75.4286C72.5952 75.5336 72.5075 75.7247 72.4728 75.863C72.4401 75.9933 72.4374 76.1363 72.4435 76.272C72.4561 76.5501 72.5161 76.9623 72.6234 77.5585C72.8191 78.6458 73.1899 80.437 73.7944 83.3565C73.8588 83.6676 73.9258 83.9914 73.9956 84.3286L74.4528 84.234L73.9956 84.3286C74.153 85.089 74.2953 85.7826 74.4249 86.4139C74.7939 88.212 75.0592 89.5048 75.2722 90.3957C75.4151 90.9936 75.5417 91.443 75.6703 91.7513C75.734 91.9041 75.811 92.0544 75.9123 92.1756C76.0166 92.3004 76.1831 92.4356 76.4195 92.4555C76.6697 92.4766 76.862 92.3565 76.9734 92.2677C77.0899 92.1747 77.1951 92.0538 77.2864 91.9393C77.3805 91.8212 77.4814 91.6819 77.585 91.5386L77.6025 91.5143C77.7033 91.3749 77.8105 91.2265 77.9297 91.0696C78.0406 90.9236 78.142 90.7877 78.2365 90.6612C78.4648 90.3554 78.6524 90.1042 78.8348 89.8958C79.0908 89.6034 79.2663 89.4822 79.4141 89.4407C79.5521 89.4019 79.7692 89.4053 80.1806 89.6327C80.5971 89.863 81.1426 90.2845 81.8977 90.9692C83.2086 92.1579 85.0633 94.0572 87.8406 96.9011C88.2555 97.326 88.691 97.7719 89.1483 98.2397C91.4378 100.582 93.5423 102.711 95.0888 104.256C95.8617 105.028 96.4966 105.656 96.9459 106.091C97.1701 106.308 97.3508 106.48 97.4803 106.598C97.5442 106.657 97.6005 106.707 97.6454 106.744C97.6668 106.762 97.6934 106.784 97.721 106.803C97.734 106.812 97.7571 106.827 97.7862 106.843L97.787 106.843C97.797 106.849 97.8942 106.903 98.0254 106.904C98.1174 106.904 98.1884 106.88 98.2182 106.869C98.2548 106.855 98.2851 106.84 98.3059 106.828C98.3477 106.805 98.3867 106.779 98.4185 106.756C98.4838 106.709 98.5601 106.647 98.6411 106.578C98.8053 106.438 99.0196 106.243 99.2632 106.014C99.7519 105.554 100.377 104.941 100.991 104.322C101.606 103.703 102.215 103.074 102.672 102.581C102.899 102.336 103.093 102.12 103.232 101.955C103.301 101.873 103.362 101.796 103.409 101.73C103.432 101.698 103.458 101.659 103.481 101.618C103.492 101.597 103.507 101.567 103.52 101.531C103.531 101.501 103.555 101.432 103.555 101.342V101.139L103.414 100.994L94.735 92.0479L94.735 92.0479L94.7312 92.044C94.1488 91.4565 93.6008 90.9048 93.0859 90.3864C90.5725 87.8559 88.8453 86.1169 87.737 84.8663C87.0677 84.1111 86.651 83.5633 86.4236 83.1473C86.1964 82.7317 86.2026 82.5293 86.2384 82.417C86.283 82.2773 86.4257 82.1012 86.8195 81.8383C87.0785 81.6654 87.388 81.4904 87.7618 81.279C87.952 81.1715 88.1587 81.0545 88.384 80.9237C88.854 80.6507 89.2769 80.3932 89.5803 80.1974C89.7305 80.1005 89.8585 80.0142 89.9497 79.9466C89.9925 79.9149 90.0419 79.8766 90.0832 79.8374C90.0995 79.8218 90.1414 79.7814 90.1783 79.7242C90.1951 79.6982 90.2361 79.6308 90.2534 79.5344C90.2738 79.4205 90.2617 79.2378 90.1159 79.0902Z" fill="#F5A16F" stroke="#F5A16F"/>
<mask id="path-2-inside-1_2030_2639" fill="white">
<path d="M51.6528 60.3394C50.7656 60.7287 49.8374 61.8642 49.6765 62.7566C49.2735 64.9918 49.6767 86.6735 50.1327 87.2885C50.3357 87.5624 50.4351 87.7875 50.5835 87.9727C51.1879 88.7268 51.8074 88.789 64.3555 88.8201C66.095 88.3979 65.5433 85.9075 64.3555 85.7074C57.3942 85.6567 53.0135 85.643 52.9218 85.5507C52.6411 85.2679 52.5394 81.7857 52.8042 81.5191C52.858 81.4648 56.5898 81.3975 63.9141 81.3717C65.8743 81.241 65.5433 78.2589 63.9141 78.1752L52.7673 78.1469L52.7091 70.9475C52.6676 65.8202 52.723 63.6607 52.9015 63.4437C53.1626 63.1268 101.155 62.9612 101.965 63.2742C102.274 63.3936 102.314 64.2687 102.314 70.8345V78.2601V81.3708V83.4592C102.314 85.1585 102.249 85.5727 101.965 85.6826C101.882 85.7146 101.179 85.7413 99.999 85.7631C98.6748 85.783 98.2334 88.428 99.999 88.92L102.866 88.926L103.732 88.428C104.271 88.118 104.792 87.5593 105.111 86.9499L105.624 85.9698V74.4784V62.987L105.111 62.0069C104.792 61.3962 104.272 60.8401 103.732 60.5304L102.866 60.0339L77.5958 60.039C57.0787 60.043 52.1993 60.0995 51.6528 60.3394Z"/>
<path d="M57.1453 67.025C56.1016 67.7614 56.2873 68.8266 57.69 70.1511L58.5055 70.921L57.69 71.691C55.9348 73.3483 56.2129 75.1454 58.2245 75.1454C59.0727 75.1454 62.5884 71.7421 62.5884 70.921C62.5884 69.272 58.3055 66.2064 57.1453 67.025Z"/>
<path d="M47.5809 94.0439C47.0129 94.6162 47.0166 95.6058 47.5896 96.2253L48.0396 96.712H67.0039C68.7695 96.3798 68.4385 93.8228 67.0039 93.6014C48.2169 93.6119 47.9479 93.6743 47.5809 94.0439Z"/>
<path fill-rule="evenodd" clip-rule="evenodd" d="M12.3697 17.4393C11.3757 18.4407 12.0894 20.2285 13.4831 20.2285C14.2189 20.2285 15.1384 19.3023 15.1384 18.561C15.1384 17.8197 14.2189 16.8935 13.4831 16.8935C13.1686 16.8935 12.6677 17.1392 12.3697 17.4393ZM17.4855 19.7676C18.4555 20.5364 19.4382 20.3306 19.8825 19.266C20.5748 17.6076 18.8757 16.2527 17.4855 17.3544C16.6813 17.9916 16.6813 19.1304 17.4855 19.7676ZM22.7324 17.1096C21.669 17.5429 21.5931 19.4406 22.6169 19.9926C24.3401 20.9218 26.0133 18.5628 24.4882 17.3544C23.8687 16.8632 23.4726 16.8081 22.7324 17.1096ZM101.412 17.3095C99.7117 18.6962 101.073 20.2285 104.004 20.2285C106.324 20.2285 107.169 19.7829 107.169 18.561C107.169 16.9949 102.927 16.0728 101.412 17.3095ZM87.764 46.6053C86.5624 48.1443 87.5484 49.1321 90.286 49.1321C92.2535 49.1321 92.372 49.1046 92.8079 48.5463C94.0096 47.0073 93.0235 46.0194 90.286 46.0194C88.3184 46.0194 88.1999 46.047 87.764 46.6053ZM96.6836 46.467C96.4624 46.7131 96.2817 47.212 96.2817 47.5758C96.2817 49.0543 96.5566 49.1321 101.78 49.1321H106.475L106.933 48.5463C107.184 48.2241 107.39 47.7875 107.39 47.5758C107.39 47.3641 107.184 46.9275 106.933 46.6053L106.475 46.0194H101.78C97.356 46.0194 97.0625 46.0452 96.6836 46.467ZM15.8005 70.921C14.326 72.4065 15.5487 73.5891 18.5592 73.5891C21.1718 73.5891 21.7593 73.3034 21.7593 72.0327C21.7593 70.7621 21.1718 70.4764 18.5592 70.4764C16.5361 70.4764 16.1858 70.5328 15.8005 70.921ZM15.8005 76.9241C15.5553 77.1711 15.3591 77.6651 15.3591 78.0358C15.3591 78.0897 15.3586 78.1418 15.3581 78.192C15.3555 78.4762 15.3533 78.7028 15.4427 78.8834C15.7943 79.5939 17.5611 79.5936 26.2774 79.5922C26.6699 79.5922 27.0764 79.5921 27.4975 79.5921C27.9185 79.5921 28.3251 79.5922 28.7175 79.5922C37.4338 79.5936 39.2006 79.5939 39.5522 78.8834C39.6416 78.7028 39.6394 78.4762 39.6368 78.192C39.6363 78.1417 39.6358 78.0897 39.6358 78.0358C39.6358 77.9819 39.6363 77.9298 39.6368 77.8796C39.6394 77.5954 39.6416 77.3688 39.5522 77.1882C39.2006 76.4777 37.4338 76.478 28.7175 76.4793C28.325 76.4794 27.9185 76.4794 27.4975 76.4794C16.5361 76.4794 16.2304 76.491 15.8005 76.9241ZM15.8005 81.5931C15.5553 81.8402 15.3591 82.3342 15.3591 82.7048C15.3591 82.7587 15.3586 82.8108 15.3581 82.8611C15.3555 83.1452 15.3533 83.3718 15.4427 83.5524C15.7943 84.2629 17.5611 84.2626 26.2774 84.2613C26.6699 84.2612 27.0764 84.2612 27.4975 84.2612C27.9185 84.2612 28.3251 84.2612 28.7175 84.2613C37.4338 84.2626 39.2006 84.2629 39.5522 83.5524C39.6416 83.3718 39.6394 83.1452 39.6368 82.861C39.6363 82.8108 39.6358 82.7587 39.6358 82.7048C39.6358 82.6509 39.6363 82.5989 39.6368 82.5486C39.6394 82.2644 39.6416 82.0378 39.5522 81.8572C39.2006 81.1467 37.4338 81.147 28.7175 81.1483C28.325 81.1484 27.9185 81.1485 27.4975 81.1485C16.5361 81.1485 16.2304 81.16 15.8005 81.5931ZM15.8005 86.2622C15.5553 86.5092 15.3591 87.0032 15.3591 87.3739C15.3591 87.4278 15.3586 87.4798 15.3581 87.5301C15.3555 87.8143 15.3533 88.0409 15.4427 88.2215C15.7943 88.932 17.5611 88.9317 26.2774 88.9303C26.6699 88.9303 27.0764 88.9302 27.4975 88.9302C27.9185 88.9302 28.3251 88.9303 28.7175 88.9303C37.4338 88.9317 39.2006 88.932 39.5522 88.2215C39.6416 88.0409 39.6394 87.8143 39.6368 87.5301C39.6363 87.4798 39.6358 87.4278 39.6358 87.3739C39.6358 87.32 39.6363 87.2679 39.6368 87.2177C39.6394 86.9335 39.6416 86.7069 39.5522 86.5262C39.2006 85.8158 37.4338 85.8161 28.7175 85.8174C28.325 85.8175 27.9185 85.8175 27.4975 85.8175C16.5361 85.8175 16.2304 85.8291 15.8005 86.2622Z"/>
<path fill-rule="evenodd" clip-rule="evenodd" d="M4.83996 10.56C4.24253 10.9209 3.75986 11.4503 3.4606 12.0735L3 13.0317V53.3565V93.6813L3.46258 94.6438C3.77112 95.2857 4.23723 95.7908 4.86136 96.1592L5.79756 96.712H23.8202C39.9064 96.712 42.3599 96.7786 42.6933 95.9644C42.7781 95.7571 42.7256 95.4927 42.7256 95.1556C42.7256 94.817 42.7756 94.5518 42.6893 94.3441C42.3528 93.5346 39.9444 93.5993 24.4258 93.5993C14.8464 93.5993 6.85162 93.5386 6.65961 93.4643C6.3449 93.3427 6.31047 91.4311 6.31047 74.1164V54.9038L10.7796 54.9638L15.2487 55.024L15.3591 59.9554C15.4312 63.1813 15.3056 64.9438 16.1163 65.9037C17.2201 67.2108 20.0597 67.0302 27.4975 67.0302C34.9352 67.0302 37.7748 67.2108 38.8786 65.9037C39.6893 64.9438 39.5637 63.1813 39.6358 59.9554L39.7462 55.024L76.2165 54.9678L112.687 54.9115V74.1204C112.687 91.4313 112.652 93.3427 112.338 93.4643C112.271 93.4902 110.463 93.5144 107.393 93.535C106.289 93.5419 105.958 96.4909 107.393 96.712H113.2L114.136 96.1592C114.471 95.9615 114.746 95.8642 114.972 95.6986C116.105 94.868 115.997 92.3191 115.997 66.7276V39.7738L115.455 39.2282C114.765 38.5325 113.919 38.5325 113.229 39.2282L112.687 39.7738V45.7878V51.8015L76.2165 51.7452L39.7462 51.689L39.6358 48.3137C39.563 46.0869 39.6104 44.7565 38.9859 43.9625C37.983 42.6874 35.2472 42.7956 27.4975 42.7956C19.7477 42.7956 17.0119 42.6874 16.009 43.9625C15.3845 44.7565 15.4319 46.0869 15.3591 48.3137L15.2487 51.689L10.7796 51.7492L6.31047 51.8093V39.4652V27.1209H59.4986H112.687V30.0924C112.687 33.5531 112.96 34.2357 114.342 34.2357C114.721 34.2357 115.013 34.2427 115.239 34.1225C115.997 33.7176 115.997 31.8696 115.997 23.4497V23.0479V22.8315C115.997 13.9659 115.997 12.1311 115.087 11.214C114.849 10.9746 114.549 10.7978 114.171 10.5748L114.136 10.5538L113.2 10.0011H99.9563C88.4751 10.0011 86.3952 9.94209 86.0416 10.7002C85.9383 10.9218 85.9824 11.2131 85.9824 11.5961C85.9824 11.9434 85.9511 12.2113 86.0483 12.4181C86.3965 13.1592 88.3939 13.1138 99.3891 13.1138C106.319 13.1138 112.146 13.1745 112.338 13.2487C112.643 13.3666 112.687 14.0569 112.687 18.6959V24.0082H59.4986H6.31047V18.6959C6.31047 14.0569 6.35461 13.3666 6.65961 13.2487C6.85162 13.1745 23.5787 13.1138 43.8311 13.1138H80.6536L81.1109 12.5279C81.688 11.7889 81.688 11.326 81.1109 10.5869L80.6536 10.0011L43.2061 10.0031L5.75872 10.0053L4.83996 10.56ZM36.2812 63.7618C36.6615 63.3787 36.6615 46.447 36.2812 46.0639C35.901 45.6808 19.0939 45.6808 18.7137 46.0639C18.3334 46.447 18.3334 63.3787 18.7137 63.7618C19.0939 64.1449 35.901 64.1449 36.2812 63.7618Z"/>
</mask>
<path d="M51.6528 60.3394C50.7656 60.7287 49.8374 61.8642 49.6765 62.7566C49.2735 64.9918 49.6767 86.6735 50.1327 87.2885C50.3357 87.5624 50.4351 87.7875 50.5835 87.9727C51.1879 88.7268 51.8074 88.789 64.3555 88.8201C66.095 88.3979 65.5433 85.9075 64.3555 85.7074C57.3942 85.6567 53.0135 85.643 52.9218 85.5507C52.6411 85.2679 52.5394 81.7857 52.8042 81.5191C52.858 81.4648 56.5898 81.3975 63.9141 81.3717C65.8743 81.241 65.5433 78.2589 63.9141 78.1752L52.7673 78.1469L52.7091 70.9475C52.6676 65.8202 52.723 63.6607 52.9015 63.4437C53.1626 63.1268 101.155 62.9612 101.965 63.2742C102.274 63.3936 102.314 64.2687 102.314 70.8345V78.2601V81.3708V83.4592C102.314 85.1585 102.249 85.5727 101.965 85.6826C101.882 85.7146 101.179 85.7413 99.999 85.7631C98.6748 85.783 98.2334 88.428 99.999 88.92L102.866 88.926L103.732 88.428C104.271 88.118 104.792 87.5593 105.111 86.9499L105.624 85.9698V74.4784V62.987L105.111 62.0069C104.792 61.3962 104.272 60.8401 103.732 60.5304L102.866 60.0339L77.5958 60.039C57.0787 60.043 52.1993 60.0995 51.6528 60.3394Z" fill="#F5A16F"/>
<path d="M57.1453 67.025C56.1016 67.7614 56.2873 68.8266 57.69 70.1511L58.5055 70.921L57.69 71.691C55.9348 73.3483 56.2129 75.1454 58.2245 75.1454C59.0727 75.1454 62.5884 71.7421 62.5884 70.921C62.5884 69.272 58.3055 66.2064 57.1453 67.025Z" fill="#F5A16F"/>
<path d="M47.5809 94.0439C47.0129 94.6162 47.0166 95.6058 47.5896 96.2253L48.0396 96.712H67.0039C68.7695 96.3798 68.4385 93.8228 67.0039 93.6014C48.2169 93.6119 47.9479 93.6743 47.5809 94.0439Z" fill="#F5A16F"/>
<path fill-rule="evenodd" clip-rule="evenodd" d="M12.3697 17.4393C11.3757 18.4407 12.0894 20.2285 13.4831 20.2285C14.2189 20.2285 15.1384 19.3023 15.1384 18.561C15.1384 17.8197 14.2189 16.8935 13.4831 16.8935C13.1686 16.8935 12.6677 17.1392 12.3697 17.4393ZM17.4855 19.7676C18.4555 20.5364 19.4382 20.3306 19.8825 19.266C20.5748 17.6076 18.8757 16.2527 17.4855 17.3544C16.6813 17.9916 16.6813 19.1304 17.4855 19.7676ZM22.7324 17.1096C21.669 17.5429 21.5931 19.4406 22.6169 19.9926C24.3401 20.9218 26.0133 18.5628 24.4882 17.3544C23.8687 16.8632 23.4726 16.8081 22.7324 17.1096ZM101.412 17.3095C99.7117 18.6962 101.073 20.2285 104.004 20.2285C106.324 20.2285 107.169 19.7829 107.169 18.561C107.169 16.9949 102.927 16.0728 101.412 17.3095ZM87.764 46.6053C86.5624 48.1443 87.5484 49.1321 90.286 49.1321C92.2535 49.1321 92.372 49.1046 92.8079 48.5463C94.0096 47.0073 93.0235 46.0194 90.286 46.0194C88.3184 46.0194 88.1999 46.047 87.764 46.6053ZM96.6836 46.467C96.4624 46.7131 96.2817 47.212 96.2817 47.5758C96.2817 49.0543 96.5566 49.1321 101.78 49.1321H106.475L106.933 48.5463C107.184 48.2241 107.39 47.7875 107.39 47.5758C107.39 47.3641 107.184 46.9275 106.933 46.6053L106.475 46.0194H101.78C97.356 46.0194 97.0625 46.0452 96.6836 46.467ZM15.8005 70.921C14.326 72.4065 15.5487 73.5891 18.5592 73.5891C21.1718 73.5891 21.7593 73.3034 21.7593 72.0327C21.7593 70.7621 21.1718 70.4764 18.5592 70.4764C16.5361 70.4764 16.1858 70.5328 15.8005 70.921ZM15.8005 76.9241C15.5553 77.1711 15.3591 77.6651 15.3591 78.0358C15.3591 78.0897 15.3586 78.1418 15.3581 78.192C15.3555 78.4762 15.3533 78.7028 15.4427 78.8834C15.7943 79.5939 17.5611 79.5936 26.2774 79.5922C26.6699 79.5922 27.0764 79.5921 27.4975 79.5921C27.9185 79.5921 28.3251 79.5922 28.7175 79.5922C37.4338 79.5936 39.2006 79.5939 39.5522 78.8834C39.6416 78.7028 39.6394 78.4762 39.6368 78.192C39.6363 78.1417 39.6358 78.0897 39.6358 78.0358C39.6358 77.9819 39.6363 77.9298 39.6368 77.8796C39.6394 77.5954 39.6416 77.3688 39.5522 77.1882C39.2006 76.4777 37.4338 76.478 28.7175 76.4793C28.325 76.4794 27.9185 76.4794 27.4975 76.4794C16.5361 76.4794 16.2304 76.491 15.8005 76.9241ZM15.8005 81.5931C15.5553 81.8402 15.3591 82.3342 15.3591 82.7048C15.3591 82.7587 15.3586 82.8108 15.3581 82.8611C15.3555 83.1452 15.3533 83.3718 15.4427 83.5524C15.7943 84.2629 17.5611 84.2626 26.2774 84.2613C26.6699 84.2612 27.0764 84.2612 27.4975 84.2612C27.9185 84.2612 28.3251 84.2612 28.7175 84.2613C37.4338 84.2626 39.2006 84.2629 39.5522 83.5524C39.6416 83.3718 39.6394 83.1452 39.6368 82.861C39.6363 82.8108 39.6358 82.7587 39.6358 82.7048C39.6358 82.6509 39.6363 82.5989 39.6368 82.5486C39.6394 82.2644 39.6416 82.0378 39.5522 81.8572C39.2006 81.1467 37.4338 81.147 28.7175 81.1483C28.325 81.1484 27.9185 81.1485 27.4975 81.1485C16.5361 81.1485 16.2304 81.16 15.8005 81.5931ZM15.8005 86.2622C15.5553 86.5092 15.3591 87.0032 15.3591 87.3739C15.3591 87.4278 15.3586 87.4798 15.3581 87.5301C15.3555 87.8143 15.3533 88.0409 15.4427 88.2215C15.7943 88.932 17.5611 88.9317 26.2774 88.9303C26.6699 88.9303 27.0764 88.9302 27.4975 88.9302C27.9185 88.9302 28.3251 88.9303 28.7175 88.9303C37.4338 88.9317 39.2006 88.932 39.5522 88.2215C39.6416 88.0409 39.6394 87.8143 39.6368 87.5301C39.6363 87.4798 39.6358 87.4278 39.6358 87.3739C39.6358 87.32 39.6363 87.2679 39.6368 87.2177C39.6394 86.9335 39.6416 86.7069 39.5522 86.5262C39.2006 85.8158 37.4338 85.8161 28.7175 85.8174C28.325 85.8175 27.9185 85.8175 27.4975 85.8175C16.5361 85.8175 16.2304 85.8291 15.8005 86.2622Z" fill="#F5A16F"/>
<path fill-rule="evenodd" clip-rule="evenodd" d="M4.83996 10.56C4.24253 10.9209 3.75986 11.4503 3.4606 12.0735L3 13.0317V53.3565V93.6813L3.46258 94.6438C3.77112 95.2857 4.23723 95.7908 4.86136 96.1592L5.79756 96.712H23.8202C39.9064 96.712 42.3599 96.7786 42.6933 95.9644C42.7781 95.7571 42.7256 95.4927 42.7256 95.1556C42.7256 94.817 42.7756 94.5518 42.6893 94.3441C42.3528 93.5346 39.9444 93.5993 24.4258 93.5993C14.8464 93.5993 6.85162 93.5386 6.65961 93.4643C6.3449 93.3427 6.31047 91.4311 6.31047 74.1164V54.9038L10.7796 54.9638L15.2487 55.024L15.3591 59.9554C15.4312 63.1813 15.3056 64.9438 16.1163 65.9037C17.2201 67.2108 20.0597 67.0302 27.4975 67.0302C34.9352 67.0302 37.7748 67.2108 38.8786 65.9037C39.6893 64.9438 39.5637 63.1813 39.6358 59.9554L39.7462 55.024L76.2165 54.9678L112.687 54.9115V74.1204C112.687 91.4313 112.652 93.3427 112.338 93.4643C112.271 93.4902 110.463 93.5144 107.393 93.535C106.289 93.5419 105.958 96.4909 107.393 96.712H113.2L114.136 96.1592C114.471 95.9615 114.746 95.8642 114.972 95.6986C116.105 94.868 115.997 92.3191 115.997 66.7276V39.7738L115.455 39.2282C114.765 38.5325 113.919 38.5325 113.229 39.2282L112.687 39.7738V45.7878V51.8015L76.2165 51.7452L39.7462 51.689L39.6358 48.3137C39.563 46.0869 39.6104 44.7565 38.9859 43.9625C37.983 42.6874 35.2472 42.7956 27.4975 42.7956C19.7477 42.7956 17.0119 42.6874 16.009 43.9625C15.3845 44.7565 15.4319 46.0869 15.3591 48.3137L15.2487 51.689L10.7796 51.7492L6.31047 51.8093V39.4652V27.1209H59.4986H112.687V30.0924C112.687 33.5531 112.96 34.2357 114.342 34.2357C114.721 34.2357 115.013 34.2427 115.239 34.1225C115.997 33.7176 115.997 31.8696 115.997 23.4497V23.0479V22.8315C115.997 13.9659 115.997 12.1311 115.087 11.214C114.849 10.9746 114.549 10.7978 114.171 10.5748L114.136 10.5538L113.2 10.0011H99.9563C88.4751 10.0011 86.3952 9.94209 86.0416 10.7002C85.9383 10.9218 85.9824 11.2131 85.9824 11.5961C85.9824 11.9434 85.9511 12.2113 86.0483 12.4181C86.3965 13.1592 88.3939 13.1138 99.3891 13.1138C106.319 13.1138 112.146 13.1745 112.338 13.2487C112.643 13.3666 112.687 14.0569 112.687 18.6959V24.0082H59.4986H6.31047V18.6959C6.31047 14.0569 6.35461 13.3666 6.65961 13.2487C6.85162 13.1745 23.5787 13.1138 43.8311 13.1138H80.6536L81.1109 12.5279C81.688 11.7889 81.688 11.326 81.1109 10.5869L80.6536 10.0011L43.2061 10.0031L5.75872 10.0053L4.83996 10.56ZM36.2812 63.7618C36.6615 63.3787 36.6615 46.447 36.2812 46.0639C35.901 45.6808 19.0939 45.6808 18.7137 46.0639C18.3334 46.447 18.3334 63.3787 18.7137 63.7618C19.0939 64.1449 35.901 64.1449 36.2812 63.7618Z" fill="#F5A16F"/>
<path d="M113.882 10.9844C113.894 10.9914 113.906 10.9984 113.917 11.0054L114.426 10.1442C114.414 10.1372 114.402 10.1303 114.39 10.1232L113.882 10.9844ZM115.497 22.8315C115.497 22.9032 115.497 22.9753 115.497 23.0479H116.497C116.497 22.9753 116.497 22.9032 116.497 22.8315L115.497 22.8315ZM115.497 23.0479C115.497 23.1835 115.497 23.3174 115.497 23.4497L116.497 23.4497C116.497 23.3174 116.497 23.1835 116.497 23.0479H115.497ZM4.83996 10.56L4.32309 9.70396L4.32294 9.70404L4.83996 10.56ZM3.4606 12.0735L4.36189 12.5067L4.36205 12.5063L3.4606 12.0735ZM3 13.0317L2.09871 12.5985L2 12.8039V13.0317H3ZM3 93.6813H2V93.9091L2.09869 94.1145L3 93.6813ZM3.46258 94.6438L2.56127 95.077L2.5613 95.077L3.46258 94.6438ZM4.86136 96.1592L5.36977 95.2981L5.36969 95.2981L4.86136 96.1592ZM5.79756 96.712L5.28916 97.5731L5.5244 97.712H5.79756V96.712ZM6.65961 93.4643L7.02033 92.5316L7.02007 92.5315L6.65961 93.4643ZM6.31047 54.9038L6.3239 53.9038L5.31047 53.8902V54.9038H6.31047ZM10.7796 54.9638L10.7931 53.9639H10.793L10.7796 54.9638ZM15.2487 55.024L16.2485 55.0017L16.2269 54.0371L15.2622 54.0241L15.2487 55.024ZM15.3591 59.9554L16.3588 59.9331L16.3588 59.9331L15.3591 59.9554ZM39.6358 59.9554L38.6361 59.9331V59.9331L39.6358 59.9554ZM39.7462 55.024L39.7446 54.024L38.7683 54.0255L38.7464 55.0017L39.7462 55.024ZM76.2165 54.9678L76.218 55.9678L76.2165 54.9678ZM112.687 54.9115H113.687V53.91L112.685 53.9115L112.687 54.9115ZM112.338 93.4643L111.977 92.5315L111.977 92.5316L112.338 93.4643ZM47.5809 94.0439L46.8712 93.3394L47.5809 94.0439ZM47.5896 96.2253L48.3238 95.5464L48.3237 95.5463L47.5896 96.2253ZM48.0396 96.712L47.3053 97.3909L47.6022 97.712H48.0396V96.712ZM113.2 96.712V97.712H113.473L113.708 97.5731L113.2 96.712ZM114.136 96.1592L113.627 95.2981V95.2981L114.136 96.1592ZM115.997 39.7738H116.997V39.3616L116.707 39.0692L115.997 39.7738ZM115.455 39.2282L114.746 39.9326L114.746 39.9328L115.455 39.2282ZM113.229 39.2282L113.938 39.9328L113.938 39.9326L113.229 39.2282ZM112.687 39.7738L111.977 39.0692L111.687 39.3616V39.7738H112.687ZM112.687 51.8015L112.685 52.8015L113.687 52.803V51.8015H112.687ZM76.2165 51.7453L76.218 50.7453L76.2165 51.7453ZM39.7462 51.689L38.7467 51.7217L38.7783 52.6875L39.7446 52.689L39.7462 51.689ZM39.6358 48.3137L40.6353 48.281V48.281L39.6358 48.3137ZM15.3591 48.3137L14.3596 48.281V48.281L15.3591 48.3137ZM15.2487 51.689L15.2622 52.6889L16.217 52.676L16.2482 51.7217L15.2487 51.689ZM10.7796 51.7492L10.793 52.7492L10.7931 52.7492L10.7796 51.7492ZM6.31047 51.8093H5.31047V52.8228L6.3239 52.8092L6.31047 51.8093ZM6.31047 27.1209V26.1209H5.31047V27.1209H6.31047ZM112.687 27.1209H113.687V26.1209H112.687V27.1209ZM114.136 10.5538L113.627 11.4149L113.628 11.415L114.136 10.5538ZM113.2 10.0011L113.708 9.13995L113.473 9.00107H113.2V10.0011ZM112.338 13.2487L111.977 14.1814L111.977 14.1815L112.338 13.2487ZM112.687 24.0082V25.0082H113.687V24.0082H112.687ZM6.31047 24.0082H5.31047V25.0082H6.31047V24.0082ZM6.65961 13.2487L7.02 14.1815L7.02033 14.1814L6.65961 13.2487ZM80.6536 13.1138V14.1138H81.1416L81.4419 13.7291L80.6536 13.1138ZM81.1109 12.5279L80.3227 11.9124L80.3226 11.9126L81.1109 12.5279ZM81.1109 10.5869L80.3226 11.2022L80.3227 11.2024L81.1109 10.5869ZM80.6536 10.0011L81.4419 9.38577L81.1416 9.00104L80.6536 9.00107L80.6536 10.0011ZM43.2061 10.0031L43.206 9.00307H43.206L43.2061 10.0031ZM5.75872 10.0053L5.75866 9.00529L5.48022 9.00531L5.24185 9.14923L5.75872 10.0053ZM12.3697 17.4393L11.66 16.7348L12.3697 17.4393ZM17.4855 17.3544L18.1065 18.1382L18.1066 18.1381L17.4855 17.3544ZM17.4855 19.7676L18.1067 18.9839L18.1065 18.9838L17.4855 19.7676ZM19.8825 19.266L18.9597 18.8808L18.9596 18.8809L19.8825 19.266ZM22.7324 17.1096L22.3552 16.1835L22.355 16.1835L22.7324 17.1096ZM22.6169 19.9926L22.1423 20.8728L22.1423 20.8728L22.6169 19.9926ZM24.4882 17.3544L23.867 18.138L23.8672 18.1381L24.4882 17.3544ZM101.412 17.3095L102.044 18.0843L102.044 18.0843L101.412 17.3095ZM87.7641 46.6053L88.5522 47.2207L88.5523 47.2207L87.7641 46.6053ZM92.8079 48.5463L92.0197 47.9308L92.0197 47.9309L92.8079 48.5463ZM96.6836 46.467L97.4274 47.1353L97.4274 47.1353L96.6836 46.467ZM106.475 49.1321V50.1321H106.963L107.264 49.7474L106.475 49.1321ZM106.933 48.5463L106.144 47.9308L106.144 47.931L106.933 48.5463ZM106.933 46.6053L106.144 47.2206L106.144 47.2208L106.933 46.6053ZM106.475 46.0194L107.264 45.4041L106.963 45.0194H106.475V46.0194ZM51.6528 60.3394L52.0546 61.2551L52.0548 61.2551L51.6528 60.3394ZM49.6765 62.7566L50.6606 62.9341L50.6606 62.9341L49.6765 62.7566ZM50.1327 87.2885L50.936 86.693L50.936 86.6929L50.1327 87.2885ZM102.866 88.926L102.864 89.926L103.132 89.9266L103.364 89.7929L102.866 88.926ZM103.732 88.428L104.23 89.2949L104.23 89.2948L103.732 88.428ZM105.111 86.9499L105.997 87.4138L105.997 87.4137L105.111 86.9499ZM105.624 85.9698L106.51 86.4337L106.624 86.2158V85.9698H105.624ZM105.624 62.987H106.624V62.741L106.51 62.5231L105.624 62.987ZM105.111 62.0069L105.997 61.5431L105.997 61.5431L105.111 62.0069ZM103.732 60.5304L104.229 59.6629L104.229 59.6628L103.732 60.5304ZM102.866 60.0339L103.363 59.1663L103.132 59.0339L102.866 59.0339L102.866 60.0339ZM77.5958 60.039L77.596 61.039H77.596L77.5958 60.039ZM101.965 63.2742L102.326 62.3415L102.325 62.3415L101.965 63.2742ZM52.7673 78.1469L51.7674 78.155L51.7754 79.1444L52.7648 79.1469L52.7673 78.1469ZM52.7091 70.9475L51.7091 70.9556V70.9556L52.7091 70.9475ZM52.9015 63.4437L52.1298 62.8077L52.1293 62.8083L52.9015 63.4437ZM57.1453 67.025L57.7218 67.8421L57.7219 67.8421L57.1453 67.025ZM57.69 70.1511L57.0035 70.8782L57.0035 70.8782L57.69 70.1511ZM58.5055 70.921L59.192 71.6481L59.9621 70.921L59.192 70.1939L58.5055 70.921ZM57.69 71.691L57.0035 70.9639L57.0035 70.9639L57.69 71.691ZM15.8005 70.921L16.5102 71.6255L15.8005 70.921ZM15.8005 76.9241L15.0908 76.2196L15.8005 76.9241ZM15.8005 81.5931L15.0908 80.8886L15.8005 81.5931ZM101.965 85.6826L102.325 86.6153L102.326 86.6153L101.965 85.6826ZM52.9218 85.5507L52.2121 86.2552L52.9218 85.5507ZM52.8042 81.5191L53.5136 82.2239L53.5149 82.2226L52.8042 81.5191ZM15.8005 86.2622L15.0908 85.5577L15.8005 86.2622ZM63.9141 78.1752L63.9654 77.1765L63.941 77.1752L63.9166 77.1752L63.9141 78.1752ZM63.9141 81.3717L63.9176 82.3717L63.9491 82.3716L63.9806 82.3695L63.9141 81.3717ZM86.0483 12.4181L85.1432 12.8434L85.1432 12.8434L86.0483 12.4181ZM86.0416 10.7002L85.1353 10.2776V10.2776L86.0416 10.7002ZM115.087 11.214L115.796 10.5093V10.5093L115.087 11.214ZM115.239 34.1225L114.768 33.2402V33.2402L115.239 34.1225ZM16.009 43.9625L15.223 43.3443L16.009 43.9625ZM38.9859 43.9625L38.1999 44.5807L38.9859 43.9625ZM114.972 95.6986L114.381 94.8921H114.381L114.972 95.6986ZM38.8786 65.9037L39.6426 66.5489L38.8786 65.9037ZM16.1163 65.9037L16.8803 65.2585H16.8803L16.1163 65.9037ZM42.6893 94.3441L41.7659 94.728L41.7659 94.728L42.6893 94.3441ZM42.6933 95.9644L41.7678 95.5855L41.7678 95.5855L42.6933 95.9644ZM50.5835 87.9727L51.3638 87.3473L50.5835 87.9727ZM39.5522 77.1881L40.4485 76.7447L40.4485 76.7447L39.5522 77.1881ZM39.5522 78.8834L40.4485 79.3269L40.4485 79.3269L39.5522 78.8834ZM15.4427 78.8834L16.339 78.4399H16.339L15.4427 78.8834ZM39.5522 81.8572L40.4485 81.4137H40.4485L39.5522 81.8572ZM39.5522 83.5524L40.4485 83.9959H40.4485L39.5522 83.5524ZM15.4427 83.5524L16.339 83.109H16.339L15.4427 83.5524ZM39.5522 86.5262L40.4485 86.0828H40.4485L39.5522 86.5262ZM39.5522 88.2215L40.4485 88.665H40.4485L39.5522 88.2215ZM15.4427 88.2215L16.339 87.778L16.339 87.778L15.4427 88.2215ZM64.3555 85.7074L64.5217 84.7213L64.4428 84.708L64.3628 84.7074L64.3555 85.7074ZM64.3555 88.8202L64.353 89.8201L64.4739 89.8204L64.5914 89.7919L64.3555 88.8202ZM99.999 85.7631L100.014 86.7629L100.017 86.7629L99.999 85.7631ZM99.999 88.92L99.7306 89.8833L99.8613 89.9197L99.9969 89.92L99.999 88.92ZM67.0039 93.6014L67.1565 92.6131L67.0804 92.6013L67.0033 92.6014L67.0039 93.6014ZM67.0039 96.712V97.712H67.0972L67.1888 97.6947L67.0039 96.712ZM107.393 93.535L107.399 94.5349H107.399L107.393 93.535ZM107.393 96.712L107.24 97.7003L107.316 97.712H107.393V96.712ZM15.3581 78.192L16.3581 78.2013V78.2013L15.3581 78.192ZM26.2774 79.5922L26.2776 80.5922H26.2776L26.2774 79.5922ZM28.7175 79.5922L28.7173 80.5922H28.7173L28.7175 79.5922ZM39.6368 78.192L38.6368 78.2013V78.2013L39.6368 78.192ZM39.6368 77.8796L38.6368 77.8702V77.8702L39.6368 77.8796ZM28.7175 76.4793L28.7173 75.4793H28.7173L28.7175 76.4793ZM15.3581 82.8611L16.3581 82.8704V82.8704L15.3581 82.8611ZM26.2774 84.2613L26.2776 85.2613H26.2776L26.2774 84.2613ZM28.7175 84.2613L28.7173 85.2613H28.7173L28.7175 84.2613ZM39.6368 82.861L38.6368 82.8704V82.8704L39.6368 82.861ZM39.6368 82.5486L38.6368 82.5393V82.5393L39.6368 82.5486ZM28.7175 81.1483L28.7173 80.1483H28.7173L28.7175 81.1483ZM15.3581 87.5301L16.3581 87.5394V87.5394L15.3581 87.5301ZM26.2774 88.9303L26.2776 89.9303H26.2776L26.2774 88.9303ZM28.7175 88.9303L28.7173 89.9303H28.7173L28.7175 88.9303ZM39.6368 87.5301L38.6368 87.5394V87.5394L39.6368 87.5301ZM39.6368 87.2177L38.6368 87.2083V87.2083L39.6368 87.2177ZM28.7175 85.8174L28.7173 84.8174H28.7173L28.7175 85.8174ZM115.997 23.4497H114.997V23.4498L115.997 23.4497ZM115.997 22.8315L114.997 22.8315V22.8315H115.997ZM114.171 10.5748L113.663 11.436L113.663 11.436L114.171 10.5748ZM4.32294 9.70404C3.5608 10.1644 2.9436 10.84 2.55914 11.6406L4.36205 12.5063C4.57613 12.0605 4.92425 11.6774 5.35697 11.416L4.32294 9.70404ZM2.5593 11.6402L2.09871 12.5985L3.90129 13.4649L4.36189 12.5067L2.5593 11.6402ZM2 13.0317V53.3565H4V13.0317H2ZM2 53.3565V93.6813H4V53.3565H2ZM2.09869 94.1145L2.56127 95.077L4.36389 94.2106L3.90131 93.2481L2.09869 94.1145ZM2.5613 95.077C2.9571 95.9005 3.56151 96.5532 4.35304 97.0204L5.36969 95.2981C4.91295 95.0285 4.58513 94.6709 4.36387 94.2106L2.5613 95.077ZM4.35296 97.0204L5.28916 97.5731L6.30596 95.8508L5.36977 95.2981L4.35296 97.0204ZM5.79756 97.712H23.8202V95.712H5.79756V97.712ZM24.4258 92.5993C19.6379 92.5993 15.2469 92.5841 12.03 92.5597C10.4211 92.5474 9.10822 92.5329 8.18689 92.5169C7.72548 92.5088 7.36667 92.5005 7.11949 92.492C6.99483 92.4877 6.90573 92.4837 6.84873 92.4801C6.81914 92.4782 6.80778 92.477 6.80856 92.4771C6.8095 92.4772 6.81263 92.4776 6.8175 92.4782C6.82213 92.4788 6.83061 92.48 6.84187 92.4819C6.8436 92.4822 6.92331 92.4941 7.02033 92.5316L6.29889 94.397C6.40191 94.4368 6.49143 94.451 6.50673 94.4536C6.54075 94.4594 6.57108 94.4631 6.59201 94.4653C6.63488 94.47 6.68048 94.4734 6.72234 94.4761C6.80822 94.4815 6.91992 94.4864 7.05096 94.4908C7.31516 94.4999 7.68728 94.5085 8.15206 94.5166C9.08312 94.5328 10.4036 94.5474 12.0148 94.5596C15.2381 94.5841 19.6343 94.5993 24.4258 94.5993V92.5993ZM7.02007 92.5315C7.22127 92.6093 7.35011 92.7401 7.42146 92.8415C7.48436 92.9308 7.5058 93.0007 7.50727 93.0053C7.50875 93.01 7.4894 92.9423 7.46715 92.7236C7.42443 92.3035 7.39088 91.5509 7.36686 90.2197C7.31912 87.5736 7.31047 82.7782 7.31047 74.1164H5.31047C5.31047 82.7693 5.31903 87.587 5.36718 90.2558C5.39111 91.582 5.42518 92.4123 5.47742 92.9259C5.50266 93.1741 5.53763 93.411 5.60123 93.6111C5.65169 93.7699 5.81137 94.2086 6.29915 94.3971L7.02007 92.5315ZM7.31047 74.1164V54.9038H5.31047V74.1164H7.31047ZM6.29704 55.9037L10.7662 55.9637L10.793 53.9639L6.3239 53.9038L6.29704 55.9037ZM10.7661 55.9637L15.2352 56.0239L15.2622 54.0241L10.7931 53.9639L10.7661 55.9637ZM14.249 55.0464L14.3593 59.9778L16.3588 59.9331L16.2485 55.0017L14.249 55.0464ZM40.6356 59.9778L40.7459 55.0464L38.7464 55.0017L38.6361 59.9331L40.6356 59.9778ZM39.7477 56.024L76.218 55.9678L76.2149 53.9678L39.7446 54.024L39.7477 56.024ZM76.218 55.9678L112.688 55.9115L112.685 53.9115L76.2149 53.9678L76.218 55.9678ZM111.687 54.9115V74.1204H113.687V54.9115H111.687ZM111.687 74.1204C111.687 82.7803 111.678 87.5747 111.63 90.2203C111.606 91.5512 111.573 92.3037 111.53 92.7236C111.508 92.9423 111.489 93.01 111.49 93.0053C111.491 93.0006 111.513 92.9307 111.576 92.8414C111.647 92.7401 111.776 92.6093 111.977 92.5315L112.698 94.3971C113.186 94.2086 113.346 93.77 113.396 93.6112C113.46 93.4111 113.495 93.1742 113.52 92.9261C113.572 92.4125 113.606 91.5823 113.63 90.2564C113.678 87.5882 113.687 82.7714 113.687 74.1204H111.687ZM46.8712 93.3394C45.8981 94.3198 45.9461 95.9211 46.8554 96.9043L48.3237 95.5463C48.0872 95.2906 48.1277 94.9126 48.2907 94.7484L46.8712 93.3394ZM46.8553 96.9042L47.3053 97.3909L48.7738 96.0331L48.3238 95.5464L46.8553 96.9042ZM113.708 97.5731L114.644 97.0204L113.627 95.2981L112.691 95.8508L113.708 97.5731ZM116.997 66.7276V39.7738H114.997V66.7276H116.997ZM116.707 39.0692L116.165 38.5236L114.746 39.9328L115.288 40.4784L116.707 39.0692ZM116.165 38.5238C115.675 38.03 115.048 37.7064 114.342 37.7064C113.636 37.7064 113.009 38.03 112.519 38.5238L113.938 39.9326C114.139 39.7307 114.28 39.7064 114.342 39.7064C114.404 39.7064 114.545 39.7307 114.746 39.9326L116.165 38.5238ZM112.519 38.5236L111.977 39.0692L113.396 40.4784L113.938 39.9328L112.519 38.5236ZM111.687 39.7738V45.7878H113.687V39.7738H111.687ZM111.687 45.7878V51.8015H113.687V45.7878H111.687ZM112.688 50.8015L76.218 50.7453L76.2149 52.7452L112.685 52.8015L112.688 50.8015ZM76.218 50.7453L39.7477 50.689L39.7446 52.689L76.2149 52.7452L76.218 50.7453ZM40.7456 51.6563L40.6353 48.281L38.6364 48.3464L38.7467 51.7217L40.7456 51.6563ZM14.3596 48.281L14.2493 51.6563L16.2482 51.7217L16.3585 48.3464L14.3596 48.281ZM15.2352 50.6891L10.7661 50.7493L10.7931 52.7492L15.2622 52.6889L15.2352 50.6891ZM10.7662 50.7493L6.29703 50.8094L6.3239 52.8092L10.793 52.7492L10.7662 50.7493ZM7.31047 51.8093V39.4652H5.31047V51.8093H7.31047ZM7.31047 39.4652V27.1209H5.31047V39.4652H7.31047ZM6.31047 28.1209H59.4986V26.1209H6.31047V28.1209ZM59.4986 28.1209H112.687V26.1209H59.4986V28.1209ZM111.687 27.1209V30.0924H113.687V27.1209H111.687ZM111.687 30.0924C111.687 30.9649 111.704 31.6908 111.755 32.2851C111.805 32.8688 111.892 33.3944 112.067 33.8328C112.254 34.3007 112.556 34.7029 113.027 34.956C113.462 35.1896 113.935 35.2357 114.342 35.2357V33.2357C114.058 33.2357 113.978 33.1964 113.973 33.1938C113.973 33.1938 113.974 33.1942 113.975 33.195C113.976 33.1959 113.978 33.197 113.979 33.1981C113.982 33.2008 113.983 33.2019 113.981 33.1994C113.977 33.1943 113.955 33.1658 113.925 33.0908C113.859 32.926 113.792 32.632 113.747 32.1144C113.704 31.6075 113.687 30.9503 113.687 30.0924H111.687ZM114.644 9.69267L113.708 9.13995L112.691 10.8622L113.627 11.4149L114.644 9.69267ZM113.2 9.00107H99.9563V11.0011H113.2V9.00107ZM99.3891 14.1138C102.851 14.1138 106.037 14.1289 108.38 14.1533C109.551 14.1656 110.509 14.1801 111.184 14.196C111.523 14.204 111.784 14.2123 111.965 14.2206C112.056 14.2247 112.118 14.2285 112.155 14.2316C112.174 14.2332 112.177 14.2338 112.169 14.2327C112.165 14.2322 112.149 14.2301 112.127 14.2256C112.115 14.2231 112.054 14.2111 111.977 14.1814L112.698 12.3161C112.568 12.2656 112.445 12.2518 112.438 12.2509C112.396 12.2452 112.354 12.2413 112.319 12.2383C112.246 12.2324 112.156 12.2272 112.056 12.2227C111.854 12.2134 111.575 12.2047 111.232 12.1966C110.544 12.1803 109.575 12.1657 108.4 12.1535C106.049 12.129 102.856 12.1138 99.3891 12.1138V14.1138ZM111.977 14.1815C111.848 14.1317 111.733 14.0459 111.65 13.939C111.581 13.8495 111.562 13.7808 111.565 13.7897C111.575 13.823 111.604 13.964 111.629 14.3408C111.675 15.0686 111.687 16.3636 111.687 18.6959H113.687C113.687 16.3893 113.676 15.0195 113.625 14.2129C113.6 13.8226 113.561 13.479 113.477 13.2047C113.383 12.8967 113.174 12.4996 112.698 12.3159L111.977 14.1815ZM111.687 18.6959V24.0082H113.687V18.6959H111.687ZM112.687 23.0082H59.4986V25.0082H112.687V23.0082ZM59.4986 23.0082H6.31047V25.0082H59.4986V23.0082ZM7.31047 24.0082V18.6959H5.31047V24.0082H7.31047ZM7.31047 18.6959C7.31047 16.3636 7.32198 15.0686 7.36862 14.3408C7.39276 13.964 7.42247 13.823 7.43266 13.7897C7.43536 13.7808 7.41673 13.8495 7.3474 13.939C7.26455 14.0459 7.14901 14.1317 7.02 14.1815L6.29922 12.3159C5.82371 12.4996 5.61432 12.8967 5.5201 13.2047C5.43623 13.479 5.39772 13.8226 5.37271 14.2129C5.32102 15.0195 5.31047 16.3893 5.31047 18.6959H7.31047ZM7.02033 14.1814C6.91817 14.2209 6.83238 14.2332 6.82964 14.2337C6.80618 14.2376 6.78926 14.2394 6.78474 14.2398C6.77454 14.2409 6.7729 14.2408 6.78604 14.24C6.8101 14.2385 6.85293 14.2366 6.91897 14.2344C7.04896 14.2302 7.24211 14.2258 7.4983 14.2215C8.00924 14.2128 8.75408 14.2043 9.70911 14.1963C11.6183 14.1802 14.3582 14.1656 17.7264 14.1534C24.4621 14.1289 33.7057 14.1138 43.8311 14.1138V12.1138C33.7041 12.1138 24.458 12.1289 17.7191 12.1534C14.3499 12.1656 11.6062 12.1802 9.69223 12.1963C8.73565 12.2044 7.98396 12.2129 7.46428 12.2218C7.20515 12.2262 6.99946 12.2307 6.85344 12.2355C6.78148 12.2379 6.71701 12.2405 6.66527 12.2436C6.64051 12.2451 6.60886 12.2473 6.57661 12.2507C6.56106 12.2523 6.53511 12.2553 6.50462 12.2603C6.49486 12.2619 6.40405 12.2754 6.29889 12.3161L7.02033 14.1814ZM43.8311 14.1138H80.6536V12.1138H43.8311V14.1138ZM81.4419 13.7291L81.8992 13.1432L80.3226 11.9126L79.8653 12.4985L81.4419 13.7291ZM81.899 13.1434C82.2315 12.7177 82.5437 12.196 82.5437 11.5574C82.5437 10.9189 82.2315 10.3971 81.899 9.97145L80.3227 11.2024C80.5674 11.5158 80.5437 11.595 80.5437 11.5574C80.5437 11.5198 80.5674 11.5991 80.3227 11.9124L81.899 13.1434ZM81.8992 9.97163L81.4419 9.38577L79.8653 10.6164L80.3226 11.2022L81.8992 9.97163ZM80.6536 9.00107L43.206 9.00307L43.2061 11.0031L80.6537 11.0011L80.6536 9.00107ZM43.206 9.00307L5.75866 9.00529L5.75878 11.0053L43.2061 11.0031L43.206 9.00307ZM5.24185 9.14923L4.32309 9.70396L5.35683 11.4161L6.27559 10.8614L5.24185 9.14923ZM11.66 16.7348C10.0757 18.3309 11.1494 21.2285 13.4831 21.2285V19.2285C13.2611 19.2285 13.0624 19.0957 12.9598 18.8387C12.8567 18.5806 12.9033 18.3213 13.0794 18.1438L11.66 16.7348ZM13.4831 21.2285C14.2266 21.2285 14.8809 20.7958 15.2964 20.3772C15.7129 19.9576 16.1384 19.3017 16.1384 18.561H14.1384C14.1384 18.5458 14.1405 18.5858 14.0928 18.679C14.0475 18.7678 13.9739 18.8706 13.877 18.9682C13.78 19.0659 13.6784 19.1395 13.5916 19.1846C13.5001 19.232 13.4635 19.2285 13.4831 19.2285V21.2285ZM16.1384 18.561C16.1384 17.8203 15.7129 17.1644 15.2964 16.7448C14.8809 16.3262 14.2266 15.8935 13.4831 15.8935V17.8935C13.4635 17.8935 13.5001 17.8899 13.5916 17.9374C13.6784 17.9825 13.78 18.0561 13.877 18.1537C13.9739 18.2514 14.0475 18.3542 14.0928 18.4429C14.1405 18.5362 14.1384 18.5762 14.1384 18.561H16.1384ZM13.4831 15.8935C13.1084 15.8935 12.7453 16.0259 12.48 16.1559C12.1968 16.2948 11.9008 16.4923 11.66 16.7348L13.0794 18.1438C13.1366 18.0862 13.2401 18.0107 13.3604 17.9517C13.4172 17.9239 13.4643 17.9064 13.4962 17.8972C13.533 17.8866 13.5262 17.8935 13.4831 17.8935V15.8935ZM16.8645 16.5706C15.555 17.6082 15.555 19.5138 16.8645 20.5514L18.1065 18.9838C17.8076 18.747 17.8076 18.375 18.1065 18.1382L16.8645 16.5706ZM16.8643 20.5513C17.5012 21.0561 18.2851 21.3508 19.086 21.1831C19.9084 21.011 20.4902 20.4064 20.8054 19.6512L18.9596 18.8809C18.8306 19.1902 18.6988 19.2208 18.6762 19.2255C18.6322 19.2348 18.4397 19.2479 18.1067 18.9839L16.8643 20.5513ZM20.8053 19.6513C21.3159 18.4283 20.965 17.1924 20.0884 16.4933C19.2028 15.7871 17.9145 15.7385 16.8644 16.5706L18.1066 18.1381C18.2932 17.9903 18.4466 17.9557 18.5496 17.9551C18.6577 17.9544 18.7582 17.9906 18.8414 18.057C18.9889 18.1746 19.1414 18.4454 18.9597 18.8808L20.8053 19.6513ZM22.355 16.1835C21.3312 16.6008 20.9259 17.6388 20.8928 18.4666C20.8595 19.2976 21.1807 20.3543 22.1423 20.8728L23.0916 19.1124C23.0293 19.0789 22.8766 18.9107 22.8912 18.5466C22.9059 18.1791 23.0702 18.0517 23.1098 18.0356L22.355 16.1835ZM22.1423 20.8728C23.5303 21.6212 24.9082 21.0097 25.5863 20.0536C25.9257 19.5752 26.1304 18.9664 26.0782 18.3259C26.0243 17.6639 25.7003 17.0389 25.1093 16.5706L23.8672 18.1381C24.0387 18.2741 24.0774 18.3971 24.0848 18.4882C24.094 18.6009 24.0587 18.7503 23.955 18.8965C23.8517 19.0422 23.7103 19.1416 23.571 19.1822C23.4483 19.218 23.2916 19.2203 23.0915 19.1124L22.1423 20.8728ZM25.1095 16.5708C24.7437 16.2808 24.3213 16.0179 23.7936 15.9443C23.2678 15.871 22.7885 16.007 22.3552 16.1835L23.1096 18.0357C23.4164 17.9107 23.5054 17.9235 23.5175 17.9252C23.5278 17.9266 23.6133 17.9368 23.867 18.138L25.1095 16.5708ZM100.779 16.5346C100.247 16.9688 99.8311 17.5128 99.7056 18.1602C99.5724 18.8471 99.8 19.4764 100.223 19.953C101.001 20.829 102.434 21.2285 104.004 21.2285V19.2285C102.643 19.2285 101.929 18.8619 101.719 18.625C101.677 18.5779 101.669 18.5515 101.668 18.5495C101.668 18.548 101.668 18.5484 101.668 18.5496C101.668 18.5508 101.668 18.5483 101.669 18.5409C101.675 18.511 101.726 18.3435 102.044 18.0843L100.779 16.5346ZM104.004 21.2285C105.174 21.2285 106.185 21.126 106.923 20.7377C107.323 20.527 107.658 20.2249 107.881 19.8128C108.097 19.4117 108.169 18.9781 108.169 18.561H106.169C106.169 18.7548 106.135 18.8352 106.121 18.8613C106.113 18.8764 106.092 18.9148 105.99 18.9682C105.725 19.1082 105.154 19.2285 104.004 19.2285V21.2285ZM108.169 18.561C108.169 17.6822 107.579 17.068 107.046 16.7046C106.488 16.3237 105.779 16.0609 105.071 15.907C104.356 15.7516 103.577 15.6932 102.848 15.7683C102.137 15.8417 101.369 16.0537 100.779 16.5346L102.044 18.0843C102.212 17.9469 102.543 17.8104 103.053 17.7578C103.546 17.707 104.111 17.7451 104.646 17.8614C105.189 17.9792 105.635 18.1632 105.919 18.357C106.229 18.5683 106.169 18.6567 106.169 18.561H108.169ZM35.5715 46.7684C35.4388 46.6347 35.3846 46.5 35.3745 46.4755C35.356 46.4308 35.3482 46.3999 35.3473 46.3966C35.3453 46.3886 35.3499 46.406 35.3582 46.4634C35.3739 46.5734 35.3913 46.7475 35.4085 46.9897C35.4427 47.469 35.4719 48.1468 35.4955 48.9658C35.5427 50.6001 35.5664 52.7541 35.5664 54.9129C35.5664 57.0716 35.5427 59.2257 35.4955 60.8599C35.4719 61.6789 35.4427 62.3567 35.4085 62.836C35.3913 63.0783 35.3739 63.2523 35.3582 63.3623C35.3499 63.4197 35.3453 63.4372 35.3473 63.4292C35.3482 63.4258 35.356 63.395 35.3745 63.3502C35.3846 63.3257 35.4388 63.1911 35.5715 63.0573L36.9909 64.4663C37.1356 64.3206 37.2015 64.1659 37.2231 64.1135C37.2531 64.0409 37.2722 63.9744 37.2842 63.9277C37.3085 63.8331 37.3254 63.7337 37.338 63.646C37.3638 63.4657 37.3851 63.2363 37.4035 62.9782C37.4406 62.4567 37.4708 61.7458 37.4947 60.9176C37.5426 59.2575 37.5664 57.0828 37.5664 54.9129C37.5664 52.7429 37.5426 50.5682 37.4947 48.9081C37.4708 48.0799 37.4406 47.3691 37.4035 46.8476C37.3851 46.5894 37.3638 46.36 37.338 46.1798C37.3254 46.092 37.3085 45.9926 37.2842 45.898C37.2722 45.8514 37.2531 45.7848 37.2231 45.7122C37.2015 45.6599 37.1356 45.5051 36.9909 45.3594L35.5715 46.7684ZM35.5715 63.0573C35.7047 62.9231 35.8396 62.8679 35.865 62.8572C35.9104 62.8382 35.9418 62.8301 35.9457 62.8291C35.9547 62.8267 35.9382 62.8313 35.8816 62.8396C35.7731 62.8553 35.6009 62.8728 35.3607 62.8901C34.8854 62.9245 34.2129 62.9539 33.4001 62.9777C31.7781 63.0252 29.6402 63.0491 27.4975 63.0491C25.3547 63.0491 23.2168 63.0252 21.5948 62.9777C20.782 62.9539 20.1095 62.9245 19.6342 62.8901C19.394 62.8728 19.2218 62.8553 19.1134 62.8396C19.0567 62.8313 19.0402 62.8267 19.0492 62.8291C19.0531 62.8301 19.0845 62.8382 19.1299 62.8572C19.1553 62.8679 19.2902 62.9231 19.4234 63.0573L18.004 64.4663C18.1491 64.6125 18.3038 64.6795 18.3569 64.7018C18.43 64.7324 18.4969 64.7519 18.5437 64.7641C18.6386 64.7889 18.7381 64.806 18.8256 64.8188C19.0053 64.8449 19.2336 64.8664 19.49 64.8849C20.0081 64.9224 20.7141 64.9528 21.5363 64.9769C23.1845 65.0251 25.3434 65.0491 27.4975 65.0491C29.6516 65.0491 31.8104 65.0251 33.4586 64.9769C34.2808 64.9528 34.9868 64.9224 35.5049 64.8849C35.7613 64.8664 35.9896 64.8449 36.1693 64.8188C36.2568 64.806 36.3563 64.7889 36.4512 64.7641C36.498 64.7519 36.5649 64.7324 36.638 64.7018C36.6911 64.6795 36.8458 64.6125 36.9909 64.4663L35.5715 63.0573ZM19.4234 63.0573C19.5561 63.1911 19.6103 63.3257 19.6204 63.3502C19.6389 63.395 19.6467 63.4258 19.6476 63.4292C19.6496 63.4372 19.645 63.4197 19.6367 63.3623C19.621 63.2523 19.6036 63.0783 19.5864 62.836C19.5522 62.3567 19.523 61.6789 19.4994 60.8599C19.4522 59.2257 19.4285 57.0716 19.4285 54.9129C19.4285 52.7541 19.4522 50.6001 19.4994 48.9658C19.523 48.1468 19.5522 47.469 19.5864 46.9897C19.6036 46.7475 19.621 46.5734 19.6367 46.4634C19.645 46.406 19.6496 46.3886 19.6476 46.3966C19.6467 46.3999 19.6389 46.4308 19.6204 46.4755C19.6103 46.5 19.5561 46.6347 19.4234 46.7684L18.004 45.3594C17.8593 45.5051 17.7934 45.6599 17.7718 45.7122C17.7418 45.7848 17.7227 45.8514 17.7107 45.898C17.6864 45.9926 17.6695 46.092 17.6569 46.1798C17.6311 46.36 17.6098 46.5894 17.5914 46.8476C17.5543 47.3691 17.5241 48.0799 17.5002 48.9081C17.4523 50.5682 17.4285 52.7429 17.4285 54.9129C17.4285 57.0828 17.4523 59.2575 17.5002 60.9176C17.5241 61.7458 17.5543 62.4567 17.5914 62.9782C17.6098 63.2363 17.6311 63.4657 17.6569 63.646C17.6695 63.7337 17.6864 63.8331 17.7107 63.9277C17.7227 63.9744 17.7418 64.0409 17.7718 64.1135C17.7934 64.1659 17.8593 64.3206 18.004 64.4663L19.4234 63.0573ZM19.4234 46.7684C19.2902 46.9026 19.1553 46.9579 19.1299 46.9685C19.0845 46.9875 19.0531 46.9956 19.0492 46.9966C19.0402 46.999 19.0567 46.9944 19.1134 46.9862C19.2218 46.9704 19.394 46.953 19.6342 46.9356C20.1095 46.9012 20.782 46.8718 21.5948 46.848C23.2168 46.8005 25.3547 46.7766 27.4975 46.7766C29.6402 46.7766 31.7781 46.8005 33.4001 46.848C34.2129 46.8718 34.8854 46.9012 35.3607 46.9356C35.6009 46.953 35.7731 46.9704 35.8816 46.9862C35.9382 46.9944 35.9547 46.999 35.9457 46.9966C35.9418 46.9956 35.9104 46.9875 35.865 46.9685C35.8396 46.9579 35.7047 46.9026 35.5715 46.7684L36.9909 45.3594C36.8458 45.2132 36.6911 45.1462 36.638 45.1239C36.5649 45.0933 36.498 45.0738 36.4512 45.0616C36.3563 45.0368 36.2568 45.0197 36.1693 45.007C35.9896 44.9808 35.7613 44.9594 35.5049 44.9408C34.9868 44.9033 34.2808 44.8729 33.4586 44.8489C31.8104 44.8006 29.6516 44.7766 27.4975 44.7766C25.3434 44.7766 23.1845 44.8006 21.5363 44.8489C20.7141 44.8729 20.0081 44.9033 19.49 44.9408C19.2336 44.9594 19.0053 44.9808 18.8256 45.007C18.7381 45.0197 18.6386 45.0368 18.5437 45.0616C18.4969 45.0738 18.43 45.0933 18.3569 45.1239C18.3038 45.1462 18.1491 45.2132 18.004 45.3594L19.4234 46.7684ZM86.9759 45.9899C86.6146 46.4525 86.3338 46.9762 86.2721 47.5408C86.2049 48.1556 86.4103 48.7217 86.84 49.1523C87.235 49.548 87.7695 49.7825 88.3215 49.9229C88.8849 50.0662 89.5478 50.1321 90.286 50.1321V48.1321C89.6554 48.1321 89.1684 48.0746 88.8145 47.9846C88.4493 47.8917 88.2991 47.783 88.2556 47.7394C88.2468 47.7306 88.2599 47.7612 88.2602 47.758C88.2661 47.7045 88.3126 47.5276 88.5522 47.2207L86.9759 45.9899ZM90.286 50.1321C91.2107 50.1321 91.8771 50.1319 92.3476 50.0226C92.6328 49.9564 92.8894 49.8445 93.1247 49.6595C93.3335 49.4953 93.488 49.3002 93.5961 49.1617L92.0197 47.9309C91.9099 48.0715 91.8861 48.0892 91.8886 48.0872C91.9176 48.0644 91.9398 48.0641 91.895 48.0745C91.825 48.0908 91.6889 48.1092 91.4104 48.1198C91.1382 48.1303 90.7811 48.1321 90.286 48.1321V50.1321ZM93.5961 49.1617C93.9573 48.6991 94.2382 48.1754 94.2998 47.6108C94.367 46.9959 94.1616 46.4298 93.7319 45.9993C93.3369 45.6036 92.8024 45.3691 92.2504 45.2287C91.687 45.0854 91.0242 45.0194 90.286 45.0194V47.0194C90.9165 47.0194 91.4035 47.077 91.7574 47.167C92.1227 47.2599 92.2728 47.3686 92.3164 47.4122C92.3251 47.421 92.312 47.3904 92.3117 47.3936C92.3058 47.4471 92.2593 47.624 92.0197 47.9308L93.5961 49.1617ZM90.286 45.0194C89.3612 45.0194 88.6948 45.0196 88.2243 45.129C87.9391 45.1952 87.6826 45.3071 87.4473 45.4921C87.2385 45.6562 87.084 45.8514 86.9758 45.9899L88.5523 47.2207C88.6621 47.08 88.6859 47.0624 88.6833 47.0644C88.6543 47.0872 88.6321 47.0875 88.6769 47.0771C88.7469 47.0608 88.883 47.0424 89.1615 47.0317C89.4338 47.0213 89.7909 47.0194 90.286 47.0194V45.0194ZM95.9397 45.7987C95.7139 46.05 95.5581 46.3644 95.4595 46.6366C95.3589 46.9141 95.2817 47.2475 95.2817 47.5758H97.2817C97.2817 47.5404 97.2948 47.4424 97.3398 47.318C97.3603 47.2615 97.3827 47.2129 97.403 47.1761C97.4247 47.1367 97.4355 47.1263 97.4274 47.1353L95.9397 45.7987ZM95.2817 47.5758C95.2817 47.9175 95.2838 48.4331 95.5115 48.8893C95.7885 49.4443 96.2801 49.7235 96.7998 49.8706C97.284 50.0077 97.9116 50.0655 98.6775 50.0961C99.4612 50.1274 100.478 50.1321 101.78 50.1321V48.1321C100.471 48.1321 99.4944 48.1271 98.7574 48.0977C98.0025 48.0675 97.5819 48.0134 97.3445 47.9462C97.1425 47.889 97.2388 47.8715 97.301 47.9962C97.3139 48.0219 97.2817 47.9733 97.2817 47.5758H95.2817ZM101.78 50.1321H106.475V48.1321H101.78V50.1321ZM107.264 49.7474L107.721 49.1616L106.144 47.931L105.687 48.5168L107.264 49.7474ZM107.721 49.1618C107.895 48.9385 108.048 48.6847 108.16 48.446C108.253 48.2489 108.39 47.9164 108.39 47.5758H106.39C106.39 47.5249 106.396 47.4914 106.398 47.4817C106.4 47.4702 106.401 47.4686 106.398 47.4781C106.392 47.4982 106.377 47.5376 106.351 47.5932C106.298 47.7063 106.222 47.8319 106.144 47.9308L107.721 49.1618ZM108.39 47.5758C108.39 47.2351 108.253 46.9027 108.16 46.7055C108.048 46.4669 107.895 46.2131 107.721 45.9898L106.144 47.2208C106.222 47.3197 106.298 47.4453 106.351 47.5584C106.377 47.614 106.392 47.6533 106.398 47.6735C106.401 47.683 106.4 47.6814 106.398 47.6699C106.396 47.6601 106.39 47.6267 106.39 47.5758H108.39ZM107.721 45.99L107.264 45.4041L105.687 46.6347L106.144 47.2206L107.721 45.99ZM106.475 45.0194H101.78V47.0194H106.475V45.0194ZM101.78 45.0194C99.5928 45.0194 98.3566 45.0249 97.6274 45.0889C97.262 45.121 96.9297 45.1739 96.6369 45.2944C96.2968 45.4345 96.0893 45.6321 95.9397 45.7987L97.4274 47.1353C97.4672 47.091 97.4386 47.1273 97.3983 47.1438C97.3966 47.1445 97.4199 47.1347 97.4874 47.1216C97.5555 47.1083 97.6554 47.0941 97.8024 47.0812C98.4209 47.0269 99.5435 47.0194 101.78 47.0194V45.0194ZM51.251 59.4237C50.6212 59.7001 50.0479 60.2007 49.6181 60.7264C49.1919 61.2477 48.8133 61.9081 48.6923 62.5792L50.6606 62.9341C50.7005 62.7127 50.8665 62.3592 51.1665 61.9923C51.4628 61.6298 51.7973 61.3681 52.0546 61.2551L51.251 59.4237ZM48.6923 62.5792C48.6267 62.9433 48.5883 63.602 48.5622 64.3943C48.5351 65.2154 48.5195 66.2585 48.5136 67.4412C48.5018 69.8079 48.5288 72.7551 48.5826 75.6487C48.6364 78.542 48.7172 81.3889 48.8133 83.5546C48.8613 84.6359 48.9136 85.5566 48.969 86.2313C48.9965 86.5667 49.026 86.8559 49.0582 87.0792C49.0741 87.1892 49.0932 87.3013 49.1174 87.4027C49.1295 87.4531 49.1464 87.5162 49.1703 87.5826C49.189 87.6347 49.2355 87.7574 49.3294 87.8841L50.936 86.6929C51.0156 86.8004 51.0479 86.8936 51.0524 86.9061C51.0621 86.9331 51.0648 86.9467 51.0627 86.938C51.0587 86.9212 51.0497 86.8764 51.0377 86.7932C51.0141 86.6302 50.9886 86.3884 50.9623 86.0677C50.9099 85.4302 50.859 84.5387 50.8114 83.4659C50.7163 81.3235 50.6359 78.495 50.5823 75.6115C50.5287 72.7285 50.5019 69.7977 50.5136 67.4512C50.5195 66.2773 50.5349 65.255 50.5611 64.4602C50.5883 63.6365 50.6255 63.1288 50.6606 62.9341L48.6923 62.5792ZM103.364 89.7929L104.23 89.2949L103.234 87.561L102.367 88.0591L103.364 89.7929ZM104.23 89.2948C104.952 88.8801 105.6 88.1729 105.997 87.4138L104.225 86.486C103.985 86.9457 103.59 87.3559 103.233 87.5611L104.23 89.2948ZM105.997 87.4137L106.51 86.4337L104.739 85.506L104.225 86.486L105.997 87.4137ZM106.624 85.9698V74.4784H104.624V85.9698H106.624ZM106.624 74.4784V62.987H104.624V74.4784H106.624ZM106.51 62.5231L105.997 61.5431L104.225 62.4708L104.739 63.4508L106.51 62.5231ZM105.997 61.5431C105.599 60.7822 104.952 60.0774 104.229 59.6629L103.234 61.3979C103.592 61.6028 103.984 62.0101 104.225 62.4708L105.997 61.5431ZM104.229 59.6628L103.363 59.1663L102.368 60.9015L103.235 61.398L104.229 59.6628ZM102.866 59.0339L77.5956 59.039L77.596 61.039L102.866 61.0339L102.866 59.0339ZM77.5956 59.039C67.3384 59.041 60.9833 59.0561 57.1237 59.1008C55.1958 59.1231 53.8791 59.153 53.006 59.1929C52.5709 59.2128 52.2313 59.2358 51.975 59.2636C51.7651 59.2864 51.4801 59.3231 51.2508 59.4238L52.0548 61.2551C51.9622 61.2957 51.9492 61.2782 52.1908 61.2519C52.3861 61.2308 52.6777 61.21 53.0974 61.1908C53.9341 61.1525 55.222 61.123 57.1469 61.1007C60.9929 61.0562 67.3362 61.041 77.596 61.039L77.5956 59.039ZM101.604 64.2069C101.194 64.0482 101.146 63.6816 101.176 63.8108C101.2 63.9135 101.232 64.1571 101.256 64.6831C101.304 65.7089 101.314 67.5416 101.314 70.8345H103.314C103.314 67.5617 103.304 65.6739 103.254 64.5909C103.23 64.0625 103.194 63.6545 103.123 63.3544C103.059 63.0807 102.89 62.56 102.326 62.3415L101.604 64.2069ZM101.314 70.8345V78.2601H103.314V70.8345H101.314ZM53.7673 78.1388L53.709 70.9394L51.7091 70.9556L51.7674 78.155L53.7673 78.1388ZM53.709 70.9394C53.6883 68.3767 53.6919 66.5696 53.7225 65.3799C53.7378 64.7824 53.7595 64.3593 53.7858 64.0809C53.7992 63.9397 53.8118 63.8584 53.8197 63.82C53.8237 63.8006 53.8227 63.8111 53.8128 63.8394C53.8081 63.8526 53.772 63.9596 53.6737 64.079L52.1293 62.8083C52.0088 62.9548 51.9513 63.1041 51.9262 63.1754C51.8958 63.2616 51.8754 63.3457 51.8609 63.4162C51.8318 63.5574 51.811 63.7205 51.7948 63.8924C51.7618 64.2402 51.7388 64.7181 51.7231 65.3286C51.6917 66.5547 51.6884 68.391 51.7091 70.9556L53.709 70.9394ZM53.6733 64.0796C53.5426 64.2381 53.3978 64.3125 53.3533 64.3347C53.2916 64.3655 53.2406 64.3826 53.216 64.3903C53.1659 64.4061 53.1298 64.4123 53.1259 64.413C53.1129 64.4154 53.1195 64.4136 53.1599 64.4097C53.2348 64.4024 53.3585 64.3939 53.5372 64.3848C53.8905 64.3669 54.4097 64.3493 55.077 64.3322C56.4091 64.2982 58.303 64.267 60.576 64.2394C65.1208 64.1843 71.1665 64.1437 77.2308 64.1227C83.2951 64.1018 89.3752 64.1006 93.9886 64.1241C96.2959 64.1358 98.2331 64.1538 99.617 64.1785C100.31 64.1909 100.858 64.2048 101.243 64.2203C101.437 64.228 101.58 64.2359 101.676 64.2433C101.726 64.2471 101.752 64.25 101.762 64.2513C101.807 64.2573 101.718 64.251 101.604 64.207L102.325 62.3415C102.186 62.2877 102.049 62.2718 102.023 62.2685C101.963 62.2605 101.896 62.2543 101.831 62.2493C101.698 62.239 101.526 62.23 101.323 62.2219C100.916 62.2055 100.35 62.1913 99.6527 62.1788C98.2559 62.1539 96.3088 62.1359 93.9988 62.1241C89.3777 62.1005 83.2915 62.1018 77.2239 62.1227C71.1563 62.1437 65.1044 62.1843 60.5518 62.2396C58.2762 62.2672 56.3716 62.2985 55.0259 62.3329C54.3543 62.3501 53.8149 62.3682 53.4361 62.3874C53.2488 62.3969 53.088 62.4072 52.966 62.4191C52.9079 62.4248 52.8379 62.4327 52.7708 62.4448C52.7399 62.4504 52.6825 62.4616 52.6167 62.4822C52.5842 62.4924 52.5269 62.5119 52.4603 62.5452C52.4108 62.5699 52.2625 62.6467 52.1298 62.8077L53.6733 64.0796ZM56.5688 66.208C56.2062 66.4638 55.8901 66.7906 55.6912 67.2056C55.4871 67.6312 55.4364 68.0878 55.5151 68.5392C55.6629 69.3877 56.2555 70.1719 57.0035 70.8782L58.3765 69.424C57.7218 68.8058 57.5201 68.3952 57.4854 68.1959C57.4728 68.1234 57.4838 68.0928 57.4946 68.0702C57.5105 68.0369 57.5626 67.9545 57.7218 67.8421L56.5688 66.208ZM57.0035 70.8782L57.819 71.6481L59.192 70.1939L58.3765 69.424L57.0035 70.8782ZM57.819 70.1939L57.0035 70.9639L58.3765 72.4181L59.192 71.6481L57.819 70.1939ZM57.0035 70.9639C56.0199 71.8926 55.3819 73.0644 55.5565 74.1926C55.6485 74.7876 55.9657 75.3084 56.4774 75.6616C56.9708 76.0023 57.5811 76.1454 58.2245 76.1454V74.1454C57.8622 74.1454 57.6833 74.0639 57.6137 74.0158C57.5622 73.9803 57.5424 73.9482 57.5329 73.8868C57.5044 73.7021 57.6049 73.1467 58.3765 72.4181L57.0035 70.9639ZM58.2245 76.1454C58.5954 76.1454 58.9314 75.9839 59.1265 75.8797C59.363 75.7535 59.6132 75.5865 59.8587 75.4049C60.3529 75.0395 60.906 74.5573 61.42 74.0596C61.934 73.5621 62.4326 73.0263 62.8109 72.5469C62.9987 72.3089 63.1725 72.065 63.3046 71.8333C63.4109 71.6466 63.5884 71.3055 63.5884 70.921H61.5884C61.5884 70.7418 61.656 70.6867 61.5668 70.8433C61.5032 70.9548 61.3958 71.1116 61.2408 71.3081C60.9333 71.6977 60.5 72.1667 60.029 72.6226C59.5581 73.0785 59.0732 73.4984 58.6697 73.7967C58.4664 73.9471 58.3027 74.0523 58.1846 74.1154C58.0251 74.2006 58.0657 74.1454 58.2245 74.1454V76.1454ZM63.5884 70.921C63.5884 70.1386 63.1184 69.4034 62.6711 68.8635C62.1851 68.2769 61.5455 67.708 60.884 67.2345C60.2252 66.763 59.4964 66.3514 58.8162 66.1129C58.477 65.9939 58.1115 65.9043 57.7504 65.8905C57.3943 65.8769 56.9557 65.9349 56.5688 66.208L57.7219 67.8421C57.625 67.9105 57.574 67.8852 57.6742 67.889C57.7694 67.8927 57.9289 67.9211 58.1543 68.0002C58.6035 68.1577 59.1629 68.4621 59.7199 68.8608C60.2741 69.2575 60.7777 69.713 61.131 70.1395C61.3074 70.3524 61.431 70.5396 61.5067 70.6919C61.5857 70.8507 61.5884 70.9226 61.5884 70.921H63.5884ZM15.0908 70.2165C14.6427 70.6679 14.2841 71.2075 14.1962 71.8231C14.1 72.4962 14.3508 73.0938 14.8027 73.5309C15.2219 73.9362 15.7934 74.1912 16.3987 74.3488C17.0169 74.5098 17.7463 74.5891 18.5592 74.5891V72.5891C17.8669 72.5891 17.3145 72.5205 16.9027 72.4133C16.4782 72.3028 16.2717 72.1692 16.1932 72.0933C16.1599 72.0611 16.1624 72.052 16.1693 72.0705C16.1772 72.092 16.1756 72.1089 16.1761 72.106C16.1795 72.0821 16.221 71.9169 16.5102 71.6255L15.0908 70.2165ZM18.5592 74.5891C19.224 74.5891 19.7938 74.5712 20.2711 74.5185C20.7397 74.4668 21.1894 74.3749 21.5763 74.1867C21.9961 73.9825 22.3295 73.6705 22.5329 73.2349C22.7189 72.8363 22.7593 72.41 22.7593 72.0327H20.7593C20.7593 72.2907 20.7263 72.3767 20.7205 72.389C20.7201 72.39 20.7213 72.3872 20.7247 72.3823C20.7283 72.3773 20.7322 72.3728 20.7355 72.3695C20.7431 72.362 20.7378 72.3705 20.7016 72.3881C20.6151 72.4301 20.428 72.4891 20.0517 72.5306C19.6841 72.5712 19.2007 72.5891 18.5592 72.5891V74.5891ZM22.7593 72.0327C22.7593 71.6554 22.7189 71.2292 22.5328 70.8305C22.3295 70.395 21.9961 70.0829 21.5763 69.8788C21.1894 69.6906 20.7397 69.5986 20.2711 69.5469C19.7938 69.4942 19.224 69.4764 18.5592 69.4764V71.4764C19.2007 71.4764 19.6841 71.4942 20.0517 71.5348C20.428 71.5764 20.6152 71.6353 20.7016 71.6773C20.7378 71.6949 20.7431 71.7034 20.7355 71.6959C20.7322 71.6926 20.7283 71.6881 20.7247 71.6831C20.7213 71.6782 20.7201 71.6754 20.7205 71.6764C20.7263 71.6887 20.7593 71.7747 20.7593 72.0327H22.7593ZM18.5592 69.4764C17.571 69.4764 16.8904 69.4879 16.4065 69.5659C16.1463 69.6078 15.8967 69.6751 15.659 69.7951C15.4151 69.9181 15.2356 70.0707 15.0908 70.2165L16.5102 71.6255C16.5363 71.5993 16.55 71.588 16.5556 71.5837C16.5583 71.5817 16.5594 71.5809 16.5595 71.5809C16.5595 71.5809 16.5596 71.5808 16.5602 71.5805C16.5608 71.5802 16.5701 71.5755 16.5942 71.5683C16.6195 71.5608 16.6606 71.5507 16.7248 71.5404C17.0182 71.4931 17.5243 71.4764 18.5592 71.4764V69.4764ZM15.0908 76.2196C14.844 76.4682 14.6701 76.7833 14.5584 77.0645C14.4454 77.3492 14.3591 77.6924 14.3591 78.0358H16.3591C16.3591 78.0085 16.3709 77.9194 16.4172 77.8026C16.4382 77.7499 16.4612 77.7045 16.4822 77.6699C16.5044 77.6335 16.5162 77.6225 16.5102 77.6286L15.0908 76.2196ZM27.4974 75.4794C22.0297 75.4794 19.1864 75.4821 17.6617 75.5401C16.9143 75.5685 16.4033 75.6117 16.0365 75.6991C15.8374 75.7465 15.6481 75.8138 15.4694 75.919C15.2887 76.0254 15.1659 76.1439 15.0908 76.2196L16.5102 77.6286C16.5425 77.596 16.5234 77.6194 16.4844 77.6423C16.4476 77.664 16.4383 77.6593 16.4996 77.6447C16.6536 77.6081 16.9847 77.5672 17.7376 77.5386C19.2135 77.4825 22.0038 77.4794 27.4974 77.4794V75.4794ZM15.0908 80.8886C14.844 81.1372 14.6701 81.4524 14.5584 81.7336C14.4454 82.0182 14.3591 82.3615 14.3591 82.7048H16.3591C16.3591 82.6775 16.3709 82.5885 16.4172 82.4717C16.4382 82.4189 16.4612 82.3735 16.4822 82.339C16.5044 82.3025 16.5162 82.2915 16.5102 82.2976L15.0908 80.8886ZM27.4974 80.1485C22.0297 80.1485 19.1864 80.1512 17.6617 80.2091C16.9143 80.2375 16.4033 80.2808 16.0365 80.3681C15.8374 80.4155 15.6481 80.4828 15.4694 80.588C15.2887 80.6945 15.1659 80.813 15.0908 80.8886L16.5102 82.2976C16.5425 82.2651 16.5234 82.2884 16.4844 82.3113C16.4476 82.333 16.4383 82.3284 16.4996 82.3138C16.6536 82.2771 16.9847 82.2363 17.7376 82.2077C19.2135 82.1516 22.0038 82.1485 27.4974 82.1485V80.1485ZM101.314 83.4592C101.314 84.3245 101.296 84.7728 101.258 85.0118C101.24 85.1296 101.229 85.1062 101.27 85.0328C101.335 84.9188 101.455 84.8076 101.604 84.7499L102.326 86.6153C102.617 86.5026 102.851 86.2985 103.008 86.0228C103.142 85.7878 103.201 85.5339 103.234 85.3221C103.3 84.9016 103.314 84.2932 103.314 83.4592H101.314ZM53.6315 84.8462C53.7056 84.9208 53.7477 84.9894 53.7666 85.0229C53.7874 85.0598 53.7985 85.087 53.8025 85.097C53.8097 85.1155 53.8069 85.1127 53.7983 85.0764C53.7815 85.0055 53.7609 84.8868 53.7405 84.7187C53.7004 84.3877 53.6711 83.9497 53.658 83.4996C53.6449 83.0495 53.6486 82.613 53.6694 82.2849C53.6799 82.1179 53.6935 82.0024 53.7056 81.9359C53.7119 81.9014 53.7136 81.9036 53.7051 81.9284C53.7006 81.9416 53.6887 81.9745 53.6659 82.0181C53.6451 82.0576 53.5986 82.1383 53.5136 82.2239L52.0948 80.8143C51.9126 80.9977 51.8383 81.2065 51.8125 81.282C51.7765 81.3873 51.7535 81.4919 51.7378 81.5787C51.7058 81.7547 51.6861 81.9572 51.6734 82.1586C51.6475 82.5672 51.6446 83.069 51.6589 83.558C51.6731 84.0472 51.7054 84.5495 51.755 84.9592C51.7795 85.1615 51.8109 85.3633 51.8523 85.538C51.8728 85.6245 51.9008 85.7258 51.9402 85.8265C51.9701 85.9028 52.0471 86.089 52.2121 86.2552L53.6315 84.8462ZM101.314 81.3708V83.4592H103.314V81.3708H101.314ZM15.0908 85.5577C14.844 85.8063 14.6701 86.1214 14.5584 86.4026C14.4454 86.6873 14.3591 87.0305 14.3591 87.3739H16.3591C16.3591 87.3466 16.3709 87.2575 16.4172 87.1407C16.4382 87.088 16.4612 87.0426 16.4822 87.008C16.5044 86.9716 16.5162 86.9606 16.5102 86.9667L15.0908 85.5577ZM27.4974 84.8175C22.0297 84.8175 19.1864 84.8202 17.6617 84.8782C16.9143 84.9066 16.4033 84.9498 16.0365 85.0372C15.8374 85.0846 15.6481 85.1519 15.4694 85.2571C15.2887 85.3635 15.1659 85.482 15.0908 85.5577L16.5102 86.9667C16.5425 86.9341 16.5234 86.9575 16.4844 86.9804C16.4476 87.0021 16.4383 86.9974 16.4996 86.9828C16.6536 86.9462 16.9847 86.9053 17.7376 86.8767C19.2135 86.8206 22.0038 86.8175 27.4974 86.8175V84.8175ZM63.9166 77.1752L52.7699 77.1469L52.7648 79.1469L63.9115 79.1752L63.9166 77.1752ZM53.5149 82.2226C53.4031 82.3355 53.2915 82.3936 53.2463 82.4158C53.1908 82.443 53.1442 82.4592 53.118 82.4678C53.0657 82.4847 53.0247 82.4929 53.0107 82.4956C52.9789 82.5018 52.9592 82.5036 52.9653 82.5029C52.9723 82.5022 52.9991 82.4998 53.0549 82.4965C53.1622 82.4903 53.3299 82.4834 53.5632 82.4763C54.0272 82.4622 54.7214 82.448 55.6472 82.4346C57.4973 82.4079 60.2574 82.3846 63.9176 82.3717L63.9105 80.3717C60.2465 80.3846 57.4785 80.4079 55.6183 80.4348C54.6888 80.4483 53.9822 80.4627 53.5024 80.4772C53.2639 80.4845 53.074 80.492 52.9384 80.4999C52.8727 80.5038 52.8066 80.5084 52.7494 80.5146C52.7235 80.5174 52.6789 80.5227 52.6293 80.5323C52.6064 80.5368 52.5584 80.5467 52.5009 80.5653C52.4967 80.5667 52.2811 80.6261 52.0935 80.8156L53.5149 82.2226ZM63.8627 79.1739C63.9393 79.1778 64.011 79.2076 64.0894 79.3077C64.1787 79.4218 64.2505 79.6041 64.2615 79.8093C64.2726 80.0152 64.2192 80.1618 64.1634 80.238C64.127 80.2877 64.0572 80.3599 63.8475 80.3739L63.9806 82.3695C64.7511 82.3181 65.3749 81.9686 65.7769 81.4197C66.1595 80.8974 66.289 80.2688 66.2587 79.7023C66.2025 78.6531 65.4953 77.2551 63.9654 77.1765L63.8627 79.1739ZM101.314 78.2601V81.3708H103.314V78.2601H101.314ZM99.3891 12.1138C93.8739 12.1138 90.6581 12.1248 88.7685 12.0447C87.8129 12.0042 87.2744 11.9424 86.9715 11.8681C86.6656 11.7932 86.8467 11.7659 86.9534 11.9928L85.1432 12.8434C85.424 13.4408 85.9854 13.6857 86.4956 13.8107C87.0087 13.9364 87.722 14.0022 88.6837 14.0429C90.6287 14.1254 93.9091 14.1138 99.3891 14.1138V12.1138ZM86.9534 11.9928C86.9913 12.0736 86.9812 12.1169 86.9784 12.0279C86.9771 11.9873 86.9774 11.9369 86.9788 11.8602C86.9801 11.79 86.9824 11.6948 86.9824 11.5961H84.9824C84.9824 11.6859 84.9748 11.9481 84.9794 12.0916C84.9852 12.2751 85.0081 12.5558 85.1432 12.8434L86.9534 11.9928ZM86.9824 11.5961C86.9824 11.483 86.9791 11.3782 86.9766 11.296C86.974 11.2074 86.9725 11.1497 86.9731 11.1004C86.9745 10.9924 86.9878 11.0374 86.9479 11.1229L85.1353 10.2776C84.9921 10.5847 84.9757 10.8861 84.9733 11.0749C84.972 11.174 84.9751 11.2748 84.9775 11.3555C84.9801 11.4425 84.9824 11.5177 84.9824 11.5961H86.9824ZM86.9479 11.1229C86.8397 11.3549 86.6539 11.3222 86.9822 11.2439C87.3029 11.1675 87.8687 11.1055 88.8661 11.0655C90.8392 10.9866 94.1979 11.0011 99.9563 11.0011V9.00107C94.2335 9.00107 90.8117 8.98607 88.7861 9.06715C87.7842 9.10725 87.0461 9.17265 86.5185 9.2984C85.9987 9.42231 85.4203 9.66655 85.1353 10.2776L86.9479 11.1229ZM114.768 33.2402C114.821 33.2117 114.841 33.2208 114.759 33.2281C114.72 33.2316 114.668 33.2339 114.596 33.235C114.521 33.2361 114.444 33.2357 114.342 33.2357V35.2357C114.508 35.2357 114.732 35.2385 114.937 35.2202C115.152 35.201 115.431 35.1535 115.71 35.0047L114.768 33.2402ZM16.3585 48.3464C16.3964 47.1892 16.4014 46.3681 16.4716 45.7063C16.5411 45.0507 16.6605 44.7517 16.795 44.5807L15.223 43.3443C14.733 43.9673 14.5638 44.7306 14.4827 45.4954C14.4023 46.2539 14.3946 47.2114 14.3596 48.281L16.3585 48.3464ZM16.795 44.5807C16.9979 44.3228 17.498 44.0321 19.2974 43.8981C21.027 43.7694 23.5913 43.7956 27.4974 43.7956V41.7956C23.6539 41.7956 20.9755 41.7677 19.149 41.9036C17.3923 42.0344 16.0231 42.3271 15.223 43.3443L16.795 44.5807ZM27.4974 43.7956C31.4036 43.7956 33.968 43.7694 35.6975 43.8981C37.4969 44.0321 37.997 44.3228 38.1999 44.5807L39.7719 43.3443C38.9718 42.3271 37.6026 42.0344 35.846 41.9036C34.0194 41.7677 31.341 41.7956 27.4974 41.7956V43.7956ZM38.1999 44.5807C38.3344 44.7517 38.4538 45.0507 38.5233 45.7063C38.5935 46.3681 38.5985 47.1892 38.6364 48.3464L40.6353 48.281C40.6003 47.2114 40.5926 46.2539 40.5122 45.4954C40.4311 44.7306 40.2619 43.9673 39.7719 43.3443L38.1999 44.5807ZM114.997 66.7276C114.997 79.5377 115.024 86.5486 114.91 90.4693C114.852 92.4418 114.76 93.5619 114.629 94.2265C114.565 94.5523 114.5 94.716 114.457 94.7969C114.425 94.8578 114.405 94.8743 114.381 94.8921L115.563 96.5052C116.131 96.089 116.418 95.4927 116.591 94.6141C116.758 93.7674 116.852 92.4951 116.909 90.5275C117.024 86.5683 116.997 79.509 116.997 66.7276H114.997ZM114.381 94.8921C114.342 94.9203 114.285 94.9536 114.146 95.0232C114.022 95.0856 113.832 95.1776 113.627 95.2981L114.644 97.0204C114.775 96.9431 114.89 96.8876 115.044 96.8105C115.183 96.7407 115.376 96.6425 115.563 96.5052L114.381 94.8921ZM38.6361 59.9331C38.5988 61.5993 38.6133 62.7727 38.5375 63.6977C38.4616 64.624 38.3066 65.0312 38.1146 65.2585L39.6426 66.5489C40.2613 65.8163 40.4488 64.8623 40.5308 63.8609C40.613 62.8582 40.6007 61.5374 40.6356 59.9778L38.6361 59.9331ZM38.1146 65.2585C37.8625 65.557 37.2914 65.84 35.4969 65.9593C33.7634 66.0746 31.2538 66.0302 27.4974 66.0302V68.0302C31.1789 68.0302 33.808 68.076 35.6296 67.9549C37.3903 67.8378 38.7909 67.5575 39.6426 66.5489L38.1146 65.2585ZM27.4974 66.0302C23.7411 66.0302 21.2315 66.0746 19.498 65.9593C17.7035 65.84 17.1324 65.557 16.8803 65.2585L15.3523 66.5489C16.204 67.5575 17.6046 67.8378 19.3653 67.9549C21.1869 68.076 23.816 68.0302 27.4974 68.0302V66.0302ZM16.8803 65.2585C16.6883 65.0312 16.5333 64.624 16.4574 63.6977C16.3816 62.7727 16.3961 61.5993 16.3588 59.9331L14.3593 59.9778C14.3942 61.5374 14.3819 62.8582 14.4641 63.8609C14.5461 64.8623 14.7336 65.8163 15.3523 66.5489L16.8803 65.2585ZM24.4258 94.5993C32.2001 94.5993 36.6556 94.5833 39.2179 94.6676C40.5115 94.7102 41.2501 94.777 41.6713 94.8651C42.132 94.9614 41.8861 95.0171 41.7659 94.728L43.6127 93.9603C43.3242 93.2664 42.6511 93.0267 42.0806 92.9074C41.4706 92.7799 40.5741 92.7111 39.2837 92.6687C36.6781 92.5829 32.1701 92.5993 24.4258 92.5993V94.5993ZM41.7659 94.728C41.728 94.6368 41.7412 94.5858 41.7399 94.688C41.7393 94.7353 41.7368 94.7857 41.733 94.8711C41.7296 94.9491 41.7256 95.0476 41.7256 95.1556H43.7256C43.7256 95.0943 43.7279 95.0327 43.7311 94.9593C43.734 94.8932 43.7386 94.8008 43.7397 94.7135C43.7419 94.5466 43.7369 94.2591 43.6127 93.9603L41.7659 94.728ZM41.7256 95.1556C41.7256 95.2647 41.7299 95.3639 41.7336 95.4427C41.7378 95.5294 41.7405 95.5792 41.7414 95.6275C41.7434 95.7314 41.7297 95.6787 41.7678 95.5855L43.6187 96.3433C43.7417 96.0428 43.7442 95.7543 43.7411 95.5899C43.7395 95.504 43.7344 95.4115 43.7313 95.3474C43.7279 95.2754 43.7256 95.2151 43.7256 95.1556H41.7256ZM41.7678 95.5855C41.8898 95.2875 42.1455 95.3466 41.6651 95.4451C41.2298 95.5343 40.467 95.6014 39.1321 95.644C36.4873 95.7285 31.8779 95.712 23.8202 95.712V97.712C31.8486 97.712 36.5091 97.7288 39.196 97.643C40.5269 97.6005 41.4453 97.5317 42.0666 97.4043C42.6427 97.2863 43.33 97.0484 43.6187 96.3433L41.7678 95.5855ZM51.3638 87.3473C51.3382 87.3154 51.3102 87.2719 51.2341 87.1461C51.1656 87.033 51.0685 86.8717 50.936 86.693L49.3293 87.884C49.3999 87.9792 49.4539 88.0674 49.523 88.1815C49.5844 88.2831 49.6803 88.4447 49.8032 88.5981L51.3638 87.3473ZM64.3628 84.7074C60.8793 84.682 58.0478 84.666 56.0733 84.6447C55.0854 84.6341 54.3192 84.6222 53.7963 84.6074C53.5331 84.6 53.3423 84.5921 53.2192 84.584C53.1894 84.582 53.1659 84.5802 53.1481 84.5787C53.1394 84.5779 53.1327 84.5772 53.1278 84.5767C53.1229 84.5762 53.1209 84.5759 53.1212 84.5759C53.1213 84.5759 53.126 84.5766 53.1341 84.578C53.1414 84.5792 53.158 84.5823 53.1804 84.5877C53.1992 84.5923 53.2438 84.6038 53.2999 84.6262C53.332 84.639 53.4853 84.6989 53.6315 84.8462L52.2121 86.2552C52.3612 86.4054 52.5195 86.4681 52.5587 86.4838C52.6217 86.5089 52.6755 86.5232 52.7055 86.5305C52.7672 86.5456 52.8228 86.5538 52.8565 86.5583C52.9289 86.568 53.0105 86.5746 53.0886 86.5797C53.2498 86.5903 53.4707 86.599 53.7398 86.6066C54.2816 86.6219 55.0629 86.6339 56.0518 86.6446C58.0309 86.6659 60.8704 86.682 64.3482 86.7073L64.3628 84.7074ZM64.358 87.8202C58.0669 87.8045 54.8143 87.7808 53.0537 87.6695C52.161 87.6131 51.7472 87.5381 51.5403 87.4696C51.4249 87.4314 51.4239 87.4223 51.3638 87.3473L49.8032 88.5981C50.0452 88.9001 50.3483 89.1816 50.9113 89.3681C51.3826 89.5243 52.0212 89.6082 52.9275 89.6655C54.7648 89.7816 58.096 89.8046 64.353 89.8201L64.358 87.8202ZM64.1893 86.6935C64.1539 86.6875 64.2017 86.68 64.2875 86.8C64.3709 86.9169 64.4396 87.0912 64.458 87.2785C64.4765 87.4656 64.4395 87.6003 64.3947 87.6763C64.363 87.7301 64.3022 87.804 64.1196 87.8484L64.5914 89.7919C65.2785 89.6251 65.801 89.2294 66.118 88.6913C66.4219 88.1753 66.499 87.5958 66.4484 87.0825C66.3979 86.5694 66.2146 86.0572 65.9149 85.6376C65.6175 85.2211 65.1509 84.8273 64.5217 84.7213L64.1893 86.6935ZM101.604 84.7499C101.722 84.7044 101.817 84.6974 101.776 84.7027C101.771 84.7033 101.752 84.7055 101.712 84.7085C101.634 84.7145 101.516 84.721 101.353 84.7275C101.031 84.7405 100.568 84.7524 99.9806 84.7632L100.017 86.7629C100.61 86.752 101.089 86.7397 101.434 86.7259C101.605 86.719 101.751 86.7114 101.865 86.7027C101.921 86.6984 101.98 86.6931 102.034 86.6859C102.052 86.6836 102.187 86.6687 102.325 86.6153L101.604 84.7499ZM99.9969 89.92L102.864 89.926L102.868 87.926L100.001 87.92L99.9969 89.92ZM99.984 84.7632C99.2874 84.7737 98.7463 85.1377 98.4012 85.5835C98.0647 86.0185 97.8834 86.5604 97.8432 87.0886C97.763 88.1436 98.2601 89.4735 99.7306 89.8833L100.267 87.9567C100.08 87.9044 99.9874 87.8131 99.9305 87.716C99.8633 87.6014 99.8227 87.4338 99.8374 87.2404C99.8524 87.0434 99.9195 86.8896 99.9829 86.8076C100.038 86.7365 100.049 86.7624 100.014 86.7629L99.984 84.7632ZM67.0033 92.6014C57.616 92.6066 52.8365 92.6248 50.3593 92.6883C49.1354 92.7197 48.4178 92.7628 47.974 92.8323C47.7484 92.8677 47.5285 92.9188 47.3259 93.0137C47.0906 93.1241 46.9488 93.2613 46.8712 93.3394L48.2907 94.7484C48.3048 94.7342 48.2518 94.7886 48.1747 94.8247C48.1305 94.8454 48.1386 94.8309 48.2834 94.8083C48.5803 94.7618 49.1729 94.7194 50.4105 94.6876C52.8563 94.6249 57.6048 94.6066 67.0045 94.6014L67.0033 92.6014ZM48.0396 97.712H67.0039V95.712H48.0396V97.712ZM66.8513 94.5897C66.9112 94.5989 66.9811 94.6315 67.0548 94.7307C67.1345 94.8378 67.1954 94.9979 67.2057 95.1735C67.2159 95.3483 67.1734 95.4806 67.1206 95.5591C67.08 95.6194 67.0058 95.6941 66.819 95.7292L67.1888 97.6947C67.8848 97.5638 68.4313 97.1942 68.7805 96.6748C69.1174 96.1735 69.2334 95.5904 69.2023 95.0568C69.1439 94.0569 68.4965 92.8199 67.1565 92.6131L66.8513 94.5897ZM111.977 92.5316C112.048 92.504 112.107 92.4914 112.125 92.4875C112.151 92.482 112.171 92.4789 112.181 92.4774C112.192 92.4757 112.201 92.4747 112.205 92.4742C112.21 92.4736 112.213 92.4733 112.214 92.4732C112.216 92.4731 112.207 92.4739 112.181 92.4752C112.131 92.4778 112.052 92.4807 111.941 92.4837C111.721 92.4898 111.398 92.4958 110.977 92.5017C110.137 92.5135 108.92 92.5247 107.386 92.535L107.399 94.5349C108.935 94.5246 110.158 94.5134 111.006 94.5015C111.429 94.4956 111.762 94.4894 111.996 94.483C112.112 94.4798 112.209 94.4764 112.283 94.4726C112.319 94.4708 112.358 94.4684 112.395 94.465C112.413 94.4634 112.44 94.4607 112.472 94.4561C112.474 94.4557 112.58 94.4428 112.698 94.397L111.977 92.5316ZM107.393 97.712H113.2V95.712H107.393V97.712ZM107.386 92.535C106.609 92.5398 106.113 93.0672 105.861 93.4995C105.601 93.9464 105.469 94.4851 105.442 94.9892C105.415 95.4923 105.486 96.0658 105.737 96.5696C106.001 97.0992 106.492 97.585 107.24 97.7003L107.545 95.7236C107.542 95.7231 107.554 95.7263 107.564 95.7342C107.569 95.7383 107.552 95.7268 107.527 95.6769C107.471 95.5655 107.425 95.3598 107.439 95.0971C107.453 94.8355 107.522 94.6218 107.589 94.5069C107.665 94.3774 107.624 94.5335 107.399 94.5349L107.386 92.535ZM14.3591 78.0358C14.3591 78.0843 14.3586 78.1318 14.3582 78.1827L16.3581 78.2013C16.3585 78.1517 16.3591 78.0951 16.3591 78.0358H14.3591ZM14.3582 78.1827C14.3563 78.3862 14.3287 78.8867 14.5464 79.3269L16.339 78.4399C16.3696 78.5017 16.3662 78.5347 16.3619 78.487C16.3599 78.4645 16.3582 78.4316 16.3576 78.3816C16.3569 78.3308 16.3574 78.2748 16.3581 78.2013L14.3582 78.1827ZM14.5464 79.3269C14.8129 79.8654 15.3048 80.1195 15.7848 80.256C16.2498 80.3882 16.8706 80.4584 17.6671 80.5032C19.2784 80.5938 21.9373 80.5929 26.2776 80.5922L26.2773 78.5922C21.9013 78.5929 19.3186 78.5929 17.7794 78.5063C17.0008 78.4625 16.5692 78.3997 16.3317 78.3322C16.1091 78.2689 16.2483 78.2567 16.339 78.4399L14.5464 79.3269ZM26.2776 80.5922C26.67 80.5922 27.0764 80.5921 27.4974 80.5921V78.5921C27.0763 78.5921 26.6697 78.5922 26.2773 78.5922L26.2776 80.5922ZM27.4974 80.5921C27.9185 80.5921 28.3249 80.5922 28.7173 80.5922L28.7176 78.5922C28.3252 78.5922 27.9186 78.5921 27.4974 78.5921V80.5921ZM28.7173 80.5922C33.0576 80.5929 35.7165 80.5938 37.3278 80.5032C38.1243 80.4584 38.7451 80.3882 39.2101 80.256C39.6901 80.1195 40.182 79.8654 40.4485 79.3269L38.6559 78.4399C38.7466 78.2567 38.8858 78.2689 38.6632 78.3322C38.4257 78.3997 37.9941 78.4625 37.2155 78.5063C35.6763 78.5929 33.0936 78.5929 28.7176 78.5922L28.7173 80.5922ZM40.4485 79.3269C40.6662 78.8867 40.6386 78.3862 40.6367 78.1826L38.6368 78.2013C38.6375 78.2748 38.638 78.3308 38.6373 78.3816C38.6367 78.4316 38.635 78.4645 38.633 78.487C38.6287 78.5347 38.6253 78.5016 38.6559 78.4399L40.4485 79.3269ZM40.6367 78.1827C40.6363 78.1318 40.6358 78.0843 40.6358 78.0358H38.6358C38.6358 78.0951 38.6364 78.1517 38.6368 78.2013L40.6367 78.1827ZM40.6358 78.0358C40.6358 77.9872 40.6363 77.9397 40.6367 77.8889L38.6368 77.8702C38.6364 77.9199 38.6358 77.9765 38.6358 78.0358H40.6358ZM40.6367 77.8889C40.6386 77.6854 40.6662 77.1848 40.4485 76.7447L38.6559 77.6316C38.6253 77.5699 38.6287 77.5368 38.633 77.5845C38.635 77.6071 38.6367 77.6399 38.6373 77.6899C38.638 77.7408 38.6375 77.7967 38.6368 77.8702L40.6367 77.8889ZM40.4485 76.7447C40.182 76.2062 39.6901 75.952 39.2101 75.8156C38.7451 75.6834 38.1243 75.6132 37.3278 75.5684C35.7165 75.4778 33.0576 75.4786 28.7173 75.4793L28.7176 77.4793C33.0936 77.4786 35.6763 77.4787 37.2155 77.5652C37.9941 77.609 38.4257 77.6718 38.6632 77.7394C38.8858 77.8026 38.7466 77.8149 38.6559 77.6316L40.4485 76.7447ZM28.7173 75.4793C28.3249 75.4794 27.9185 75.4794 27.4974 75.4794V77.4794C27.9186 77.4794 28.3252 77.4794 28.7176 77.4793L28.7173 75.4793ZM14.3591 82.7048C14.3591 82.7534 14.3586 82.8009 14.3582 82.8517L16.3581 82.8704C16.3585 82.8207 16.3591 82.7641 16.3591 82.7048H14.3591ZM14.3582 82.8517C14.3563 83.0552 14.3287 83.5558 14.5464 83.9959L16.339 83.109C16.3696 83.1707 16.3662 83.2038 16.3619 83.1561C16.3599 83.1335 16.3582 83.1007 16.3576 83.0507C16.3569 82.9998 16.3574 82.9439 16.3581 82.8704L14.3582 82.8517ZM14.5464 83.9959C14.8129 84.5344 15.3048 84.7886 15.7848 84.925C16.2498 85.0572 16.8706 85.1274 17.6671 85.1722C19.2784 85.2628 21.9373 85.262 26.2776 85.2613L26.2773 83.2613C21.9013 83.262 19.3186 83.2619 17.7794 83.1754C17.0008 83.1316 16.5692 83.0688 16.3317 83.0012C16.1091 82.938 16.2483 82.9257 16.339 83.109L14.5464 83.9959ZM26.2776 85.2613C26.67 85.2612 27.0764 85.2612 27.4974 85.2612V83.2612C27.0763 83.2612 26.6697 83.2612 26.2773 83.2613L26.2776 85.2613ZM27.4974 85.2612C27.9185 85.2612 28.3249 85.2612 28.7173 85.2613L28.7176 83.2613C28.3252 83.2612 27.9186 83.2612 27.4974 83.2612V85.2612ZM28.7173 85.2613C33.0576 85.262 35.7165 85.2628 37.3278 85.1722C38.1243 85.1274 38.7451 85.0572 39.2101 84.925C39.6901 84.7886 40.182 84.5344 40.4485 83.9959L38.6559 83.109C38.7466 82.9257 38.8858 82.938 38.6632 83.0012C38.4257 83.0688 37.9941 83.1316 37.2155 83.1754C35.6763 83.2619 33.0936 83.262 28.7176 83.2613L28.7173 85.2613ZM40.4485 83.9959C40.6662 83.5558 40.6386 83.0552 40.6367 82.8517L38.6368 82.8704C38.6375 82.9439 38.638 82.9998 38.6373 83.0507C38.6367 83.1007 38.635 83.1335 38.633 83.1561C38.6287 83.2038 38.6253 83.1707 38.6559 83.109L40.4485 83.9959ZM40.6367 82.8517C40.6363 82.8009 40.6358 82.7534 40.6358 82.7048H38.6358C38.6358 82.7641 38.6364 82.8207 38.6368 82.8704L40.6367 82.8517ZM40.6358 82.7048C40.6358 82.6563 40.6363 82.6088 40.6367 82.5579L38.6368 82.5393C38.6364 82.5889 38.6358 82.6455 38.6358 82.7048H40.6358ZM40.6367 82.558C40.6386 82.3544 40.6662 81.8539 40.4485 81.4137L38.6559 82.3007C38.6253 82.2389 38.6287 82.2059 38.633 82.2536C38.635 82.2761 38.6367 82.309 38.6373 82.359C38.638 82.4098 38.6375 82.4658 38.6368 82.5393L40.6367 82.558ZM40.4485 81.4137C40.182 80.8752 39.6901 80.6211 39.2101 80.4846C38.7451 80.3524 38.1243 80.2822 37.3278 80.2374C35.7165 80.1468 33.0576 80.1477 28.7173 80.1483L28.7176 82.1483C33.0936 82.1477 35.6763 82.1477 37.2155 82.2343C37.9941 82.278 38.4257 82.3409 38.6632 82.4084C38.8858 82.4717 38.7466 82.4839 38.6559 82.3007L40.4485 81.4137ZM28.7173 80.1483C28.3249 80.1484 27.9185 80.1485 27.4974 80.1485V82.1485C27.9186 82.1485 28.3252 82.1484 28.7176 82.1483L28.7173 80.1483ZM14.3591 87.3739C14.3591 87.4224 14.3586 87.4699 14.3582 87.5208L16.3581 87.5394C16.3585 87.4898 16.3591 87.4332 16.3591 87.3739H14.3591ZM14.3582 87.5208C14.3563 87.7243 14.3287 88.2248 14.5464 88.665L16.339 87.778C16.3696 87.8398 16.3662 87.8728 16.3619 87.8251C16.3599 87.8026 16.3582 87.7697 16.3576 87.7197C16.3569 87.6689 16.3574 87.6129 16.3581 87.5394L14.3582 87.5208ZM14.5464 88.665C14.8129 89.2035 15.3048 89.4576 15.7848 89.5941C16.2498 89.7263 16.8706 89.7965 17.6671 89.8413C19.2784 89.9319 21.9373 89.931 26.2776 89.9303L26.2773 87.9303C21.9013 87.931 19.3186 87.931 17.7794 87.8444C17.0008 87.8006 16.5692 87.7378 16.3317 87.6703C16.1091 87.607 16.2483 87.5947 16.339 87.778L14.5464 88.665ZM26.2776 89.9303C26.67 89.9303 27.0764 89.9302 27.4974 89.9302V87.9302C27.0763 87.9302 26.6697 87.9303 26.2773 87.9303L26.2776 89.9303ZM27.4974 89.9302C27.9185 89.9302 28.3249 89.9303 28.7173 89.9303L28.7176 87.9303C28.3252 87.9303 27.9186 87.9302 27.4974 87.9302V89.9302ZM28.7173 89.9303C33.0576 89.931 35.7165 89.9319 37.3278 89.8413C38.1243 89.7965 38.7451 89.7263 39.2101 89.5941C39.6901 89.4576 40.182 89.2035 40.4485 88.665L38.6559 87.778C38.7466 87.5947 38.8858 87.607 38.6632 87.6703C38.4257 87.7378 37.9941 87.8006 37.2155 87.8444C35.6763 87.931 33.0936 87.931 28.7176 87.9303L28.7173 89.9303ZM40.4485 88.665C40.6662 88.2248 40.6386 87.7243 40.6367 87.5207L38.6368 87.5394C38.6375 87.6129 38.638 87.6689 38.6373 87.7197C38.6367 87.7697 38.635 87.8026 38.633 87.8251C38.6287 87.8728 38.6253 87.8397 38.6559 87.778L40.4485 88.665ZM40.6367 87.5208C40.6363 87.4699 40.6358 87.4224 40.6358 87.3739H38.6358C38.6358 87.4332 38.6364 87.4898 38.6368 87.5394L40.6367 87.5208ZM40.6358 87.3739C40.6358 87.3253 40.6363 87.2778 40.6367 87.227L38.6368 87.2083C38.6364 87.258 38.6358 87.3146 38.6358 87.3739H40.6358ZM40.6367 87.227C40.6386 87.0235 40.6662 86.5229 40.4485 86.0828L38.6559 86.9697C38.6253 86.908 38.6287 86.8749 38.633 86.9226C38.635 86.9452 38.6367 86.978 38.6373 87.028C38.638 87.0789 38.6375 87.1348 38.6368 87.2083L40.6367 87.227ZM40.4485 86.0828C40.182 85.5443 39.6901 85.2901 39.2101 85.1537C38.7451 85.0215 38.1243 84.9513 37.3278 84.9065C35.7165 84.8159 33.0576 84.8167 28.7173 84.8174L28.7176 86.8174C33.0936 86.8167 35.6763 86.8168 37.2155 86.9033C37.9941 86.9471 38.4257 87.0099 38.6632 87.0775C38.8858 87.1407 38.7466 87.153 38.6559 86.9697L40.4485 86.0828ZM28.7173 84.8174C28.3249 84.8175 27.9185 84.8175 27.4974 84.8175V86.8175C27.9186 86.8175 28.3252 86.8175 28.7176 86.8174L28.7173 84.8174ZM115.71 35.0047C116.23 34.727 116.491 34.2454 116.637 33.751C116.777 33.2742 116.853 32.6466 116.901 31.8522C116.998 30.2485 116.997 27.6408 116.997 23.4497L114.997 23.4498C114.997 27.6785 114.997 30.2048 114.904 31.7313C114.858 32.5019 114.791 32.9385 114.718 33.1852C114.651 33.4143 114.627 33.3155 114.768 33.2402L115.71 35.0047ZM116.997 23.4497V23.0479H114.997V23.4497H116.997ZM116.997 23.0479V22.8315H114.997V23.0479H116.997ZM116.997 22.8315C116.997 18.4193 116.998 15.6991 116.881 13.9745C116.767 12.2906 116.536 11.2539 115.796 10.5093L114.377 11.9186C114.548 12.0912 114.772 12.4304 114.886 14.1096C114.997 15.7481 114.997 18.3782 114.997 22.8315L116.997 22.8315ZM115.796 10.5093C115.45 10.161 115.029 9.91961 114.68 9.71355L113.663 11.436C114.07 11.6759 114.248 11.7882 114.377 11.9186L115.796 10.5093ZM114.68 9.7136L114.644 9.69261L113.628 11.415L113.663 11.436L114.68 9.7136Z" fill="#F5A16F" mask="url(#path-2-inside-1_2030_2639)"/>
</svg>
