<svg width="120" height="120" viewBox="0 0 120 120" fill="none" xmlns="http://www.w3.org/2000/svg">
<path fill-rule="evenodd" clip-rule="evenodd" d="M53.6636 3.63006C46.3251 6.03024 40.8848 11.7849 38.837 19.3134C38.455 20.7174 38.3657 21.8365 38.2806 26.2817C38.1926 30.872 38.1276 31.651 37.7915 32.1299C35.556 35.3151 36.0039 39.3142 38.8866 41.9079C40.0056 42.9147 41.9451 43.827 42.9662 43.827C43.4108 43.827 43.5221 43.9645 43.6368 44.6545C44.2206 48.1637 46.1109 51.5903 48.8137 54.0379L50.1501 55.2482L50.0875 57.7289L50.0249 60.2096L39.1038 64.4439C27.2875 69.0252 26.2108 69.5575 23.83 71.9943C21.8329 74.0383 20.725 75.936 19.8951 78.7332C19.447 80.2437 19.4088 80.9228 19.3169 89.0125C19.243 95.5113 19.1528 97.6744 18.9559 97.6744C18.8112 97.6744 18.3593 97.9534 17.9511 98.2941C17.3034 98.8353 17.196 99.0743 17.1048 100.177L17 101.439L19.6038 104.077L22.2076 106.715L21.7244 109.533C21.4587 111.082 21.2423 112.727 21.2436 113.189C21.2485 114.981 22.4993 116.139 24.2045 115.93C24.7276 115.866 26.2605 115.2 27.8617 114.342L30.6183 112.865L33.7057 114.433C37.4708 116.344 38.0718 116.419 39.3552 115.135C40.3739 114.115 40.4076 113.741 39.8016 110.198L39.3956 107.826H45.6077H51.8195L51.4279 109.978C50.7643 113.623 50.92 114.688 52.2449 115.562C53.3727 116.306 54.2079 116.126 57.4845 114.435L60.5 112.878L63.5155 114.435C66.8499 116.156 67.616 116.31 68.7992 115.499C70.1043 114.604 70.239 113.642 69.5721 109.978L69.1805 107.826H75.3923H81.6044L81.1984 110.198C80.5924 113.741 80.6261 114.115 81.6448 115.135C82.9282 116.419 83.5292 116.344 87.2943 114.433L90.3817 112.865L93.1383 114.342C94.7395 115.2 96.2724 115.866 96.7955 115.93C98.5007 116.139 99.7515 114.981 99.7564 113.189C99.7577 112.727 99.5413 111.082 99.2756 109.533L98.7924 106.715L101.396 104.077L104 101.439L103.895 100.177C103.804 99.0743 103.697 98.8353 103.049 98.2941C102.641 97.9534 102.186 97.6744 102.038 97.6744C101.842 97.6744 101.751 96.7568 101.699 94.2593C101.634 91.0874 101.594 90.8098 101.145 90.3605C100.449 89.6657 99.3801 89.7176 98.7269 90.4776C98.2402 91.0439 98.2105 91.2509 98.2105 94.0744V97.0702L97.3835 96.9334C96.9287 96.8581 96.3315 96.7954 96.0565 96.7941C95.6356 96.7921 95.3286 96.3302 94.1124 93.8676C92.5063 90.6153 92.0738 90.0427 91.0003 89.7461C89.7258 89.3939 88.5815 89.9025 87.8108 91.1642L87.4061 91.8263L87.4054 88.7199C87.4045 85.7589 87.3807 85.5912 86.8942 85.1337C86.2161 84.4964 85.1906 84.5101 84.576 85.1646C84.1101 85.6612 84.0966 85.8309 84.0966 91.2293V96.7833L83.6004 96.8914C83.3274 96.9508 82.0263 97.1525 80.7086 97.3397C78.0812 97.7128 77.2831 98.0982 76.8198 99.2177C76.2916 100.494 76.6445 101.568 78.0636 103.003L79.3413 104.295H75.3857H71.4301L72.7078 103.003C73.7386 101.961 74.0094 101.534 74.1077 100.8C74.3827 98.7476 73.3862 97.8168 70.4472 97.3814C69.3414 97.2176 68.3839 97.0309 68.3195 96.9663C68.2551 96.9018 67.5964 93.2561 66.8559 88.8646C65.4072 80.2738 65.42 80.6483 66.5271 79.2811L67.0056 78.6901L68.1082 79.2564C68.9467 79.687 69.3942 79.7887 69.9752 79.6814C71.5207 79.3961 71.8356 78.9549 75.0101 72.6299L78.0321 66.6091L84.756 69.2355C88.454 70.6801 91.977 72.1958 92.5848 72.6036C96.0607 74.9371 98.1933 78.8135 98.2067 82.8229C98.2116 84.2878 98.539 84.9951 99.372 85.3405C100.169 85.6706 101.006 85.3052 101.467 84.4266C102.104 83.2111 101.261 78.352 99.9839 75.8708C99.0469 74.0511 98.6083 73.4588 97.0011 71.8427C94.6776 69.506 93.1533 68.7628 81.3951 64.2325L70.6443 60.0905V57.6702V55.2499L72.469 53.3313C74.6452 51.0428 76.1236 48.3786 76.7398 45.6353L77.1358 43.8722L77.9549 43.7623C79.9123 43.4995 82.4821 41.7053 83.3753 39.9782C83.8606 39.039 84.3114 37.2558 84.3145 36.2614C84.3176 35.265 83.568 32.9374 82.9761 32.1054C82.6078 31.5879 82.5529 31.1137 82.5527 28.4553C82.5522 22.3059 81.9425 18.7983 80.2565 15.2481C77.5828 9.61794 72.7828 5.47897 66.7185 3.57489C65.7115 3.25864 64.5908 3 64.2276 3C63.4282 3 62.4848 3.86399 62.4848 4.596C62.4848 5.6052 63.0456 6.00442 65.6445 6.84502C72.0943 8.93139 76.3549 13.2692 78.2768 19.7066C78.7704 21.36 78.8732 22.2015 78.9695 25.3778L79.0827 29.1079L78.3644 28.964C77.9694 28.885 77.5592 28.8203 77.4532 28.8203C77.3471 28.8203 77.2598 28.5967 77.2593 28.3238C77.2589 28.0508 77.0736 27.5293 76.8476 27.1652C76.173 26.0783 71.5088 21.0985 70.8424 20.7536C69.7086 20.167 68.4743 20.3446 66.7815 21.3386C63.3177 23.3724 60.3606 24.6006 56.7907 25.4882C53.8369 26.2226 52.0906 26.4329 49.0325 26.4228C45.5534 26.4111 44.5445 26.7289 43.8276 28.0614C43.5737 28.5332 43.192 28.8872 42.8577 28.9607C42.5545 29.0275 42.1182 29.1337 41.8885 29.197C41.4871 29.3071 41.4752 29.1712 41.5927 25.811C41.7773 20.5342 42.5141 17.8385 44.6788 14.5203C47.2559 10.5698 51.573 7.51921 55.9871 6.52922C56.5891 6.39416 57.305 6.07372 57.578 5.81728C58.6773 4.78359 57.8589 2.99095 56.2958 3.00839C55.879 3.01302 54.6946 3.29285 53.6636 3.63006ZM71.5906 26.3051L73.7317 28.6451L73.7284 36.0705C73.7249 44.2873 73.6285 45.1072 72.3563 47.7431C71.3192 49.8919 68.6558 52.543 66.4543 53.6182C61.172 56.1982 54.9162 55.1972 50.7775 51.1098C49.0301 49.3841 47.8619 47.3633 47.2676 45.0383C46.8748 43.5017 46.8272 42.5894 46.8272 36.6194V29.9237L49.0876 29.9198C55.1365 29.9089 62.3236 27.959 67.3492 24.9649C68.2518 24.4273 69.0936 23.9824 69.2199 23.9762C69.3461 23.9703 70.413 25.0181 71.5906 26.3051ZM43.2039 40.2437C42.9274 40.5207 41.7936 39.9515 40.9598 39.1169C39.9546 38.111 39.5767 36.8259 39.8797 35.4449C40.0854 34.5069 41.2203 33.2546 42.3044 32.7684L43.1885 32.3722L43.2489 36.2552C43.282 38.391 43.2619 40.1859 43.2039 40.2437ZM78.5393 32.6627C80.5845 33.7319 81.3519 36.1233 80.3286 38.2385C79.8371 39.255 79.1301 39.8599 77.9769 40.2508L77.2602 40.4937V36.4225C77.2602 31.9695 77.2531 31.9902 78.5393 32.6627ZM67.3296 58.8888L67.3227 60.7095L64.0066 64.7922C62.1826 67.0377 60.6197 68.9007 60.5333 68.9323C60.4471 68.9638 58.8659 67.1149 57.0201 64.8237L53.6636 60.6576V58.9731C53.6636 58.0469 53.7227 57.2888 53.7948 57.2888C53.8669 57.2888 54.5863 57.4886 55.3937 57.7329C58.526 58.6803 62.6678 58.65 65.497 57.6587C66.3268 57.3681 67.0799 57.1163 67.171 57.0993C67.2621 57.0821 67.3333 57.8876 67.3296 58.8888ZM54.654 67.3354C56.3512 69.4502 57.771 71.2751 57.8096 71.3905C57.8642 71.5551 53.0243 75.1565 51.7263 75.9168C51.5214 76.0368 50.744 74.6491 48.9145 70.8975C47.5239 68.0458 46.3861 65.6184 46.3861 65.5037C46.3861 65.2841 50.669 63.5144 51.2378 63.499C51.4197 63.4939 52.957 65.2203 54.654 67.3354ZM72.2246 64.3846C73.5388 64.8886 74.6139 65.3858 74.6139 65.4898C74.6139 65.6506 69.6048 75.813 69.4312 76.0044C69.3975 76.0417 67.9327 75.0435 66.1762 73.7863L62.9825 71.5006L66.2071 67.4892C67.9803 65.283 69.5223 63.4756 69.6334 63.4729C69.7444 63.4703 70.9105 63.8805 72.2246 64.3846ZM49.5699 79.0865C50.7034 79.9787 51.8429 79.8911 53.9106 78.753C53.9858 78.7115 54.3686 79.1787 54.7614 79.7911L55.4752 80.9045L54.1287 88.8845C53.3879 93.2737 52.7328 96.914 52.6728 96.9742C52.6126 97.0342 51.6586 97.2176 50.5528 97.3814C47.6138 97.8168 46.6173 98.7476 46.8923 100.8C46.9906 101.534 47.2614 101.961 48.2922 103.003L49.5699 104.295H45.6143H41.6587L42.9364 103.003C44.3555 101.568 44.7084 100.494 44.1802 99.2177C43.7169 98.0982 42.9188 97.7128 40.2914 97.3397C38.9737 97.1525 37.6726 96.9508 37.3996 96.8914L36.9034 96.7833V91.2293C36.9034 85.8309 36.8899 85.6612 36.424 85.1646C35.8094 84.5101 34.7839 84.4964 34.1058 85.1337C33.6193 85.5912 33.5955 85.7589 33.5946 88.7199L33.5939 91.8263L33.1893 91.1642C32.4185 89.9025 31.2742 89.3939 29.9997 89.7461C28.9262 90.0427 28.4937 90.6153 26.8876 93.8676C25.6714 96.3302 25.3644 96.7921 24.9435 96.7941C24.6685 96.7954 24.0715 96.8581 23.6165 96.9334L22.7895 97.0702L22.7929 89.2621C22.7964 80.5293 22.8941 79.7106 24.2358 77.1555C25.0998 75.51 26.7372 73.73 28.4357 72.5901C29.0638 72.1684 32.5224 70.6812 36.2645 69.2236L42.9679 66.6124L45.9883 72.6285C47.8322 76.3012 49.2272 78.8168 49.5699 79.0865ZM62.5796 75.4323L64.1883 76.5854L63.5021 77.6363L62.8156 78.6875L60.4777 78.6914L58.1401 78.6954L57.4704 77.6174L56.8006 76.5393L58.5953 75.2984C59.5822 74.616 60.5205 74.1076 60.6802 74.1685C60.8398 74.2294 61.6946 74.7981 62.5796 75.4323ZM62.3533 82.8333C62.5564 83.8248 64.0289 92.7664 64.0223 92.9663C64.0188 93.0676 63.6963 92.5618 63.3056 91.8424C62.4257 90.2227 61.7114 89.6695 60.5 89.6695C59.2886 89.6695 58.5743 90.2227 57.6944 91.8424C57.3037 92.5618 56.9812 93.0676 56.9777 92.9663C56.9711 92.7664 58.4436 83.8248 58.6467 82.8333C58.7693 82.2335 58.7907 82.2264 60.5 82.2264C62.2093 82.2264 62.2307 82.2335 62.3533 82.8333ZM32.0489 96.5651C32.8357 98.1363 33.5939 99.3528 33.9188 99.5657C34.3433 99.844 39.0097 100.749 40.0878 100.762C40.2019 100.763 39.2838 101.792 38.0479 103.049C35.4439 105.697 35.5002 105.495 36.2105 109.647C36.4339 110.952 36.59 112.019 36.5576 112.019C36.5252 112.019 35.3652 111.423 33.9796 110.695C32.2952 109.81 31.2113 109.373 30.7085 109.379C30.2346 109.383 29.0221 109.868 27.4275 110.691C26.0364 111.409 24.8826 111.976 24.8634 111.952C24.8442 111.928 25.0314 110.665 25.2791 109.146C25.5499 107.485 25.6648 106.124 25.5667 105.733C25.4685 105.341 24.5624 104.226 23.2835 102.924C22.1174 101.736 21.2562 100.763 21.37 100.762C22.6246 100.746 27.051 99.852 27.5126 99.5205C27.8571 99.2729 28.5837 98.0759 29.3364 96.5158C30.0244 95.0898 30.6185 93.9228 30.6563 93.9228C30.6942 93.9228 31.3207 95.1118 32.0489 96.5651ZM92.9178 98.8962C93.5685 99.7489 94.0429 99.9294 96.7148 100.341C98.2045 100.571 99.5164 100.76 99.63 100.762C99.7438 100.763 98.8826 101.736 97.7165 102.924C96.4376 104.226 95.5315 105.341 95.4333 105.733C95.3352 106.124 95.4501 107.485 95.7209 109.146C95.9686 110.665 96.1558 111.928 96.1366 111.952C96.1174 111.976 94.9636 111.409 93.5725 110.691C91.9779 109.868 90.7654 109.383 90.2915 109.379C89.7887 109.373 88.7048 109.81 87.0204 110.695C85.6348 111.423 84.4748 112.019 84.4424 112.019C84.41 112.019 84.5661 110.952 84.7895 109.647C85.4998 105.495 85.5561 105.697 82.9521 103.049C81.7162 101.792 80.7981 100.763 80.9122 100.762C81.9603 100.749 86.6505 99.848 87.0574 99.5812C87.3501 99.3894 88.1905 98.0434 88.9657 96.5253L90.351 93.8124L91.4691 96.1376C92.0839 97.4165 92.7358 98.6578 92.9178 98.8962ZM61.8821 96.6593C62.6691 98.2153 63.3755 99.3188 63.7356 99.5549C64.193 99.8548 68.7348 100.748 69.8683 100.762C69.9874 100.763 69.1081 101.745 67.9146 102.944C65.34 105.53 65.2912 105.695 65.9779 109.481C66.2201 110.816 66.3939 111.932 66.3641 111.962C66.3345 111.992 65.1765 111.423 63.791 110.699C62.1114 109.82 61.0147 109.381 60.5 109.381C59.9853 109.381 58.8886 109.82 57.209 110.699C55.8235 111.423 54.6655 111.992 54.6359 111.962C54.6061 111.932 54.7799 110.816 55.0221 109.481C55.7088 105.695 55.6601 105.53 53.0854 102.944C51.8919 101.745 51.0126 100.763 51.1317 100.762C52.2652 100.748 56.807 99.8548 57.2644 99.5549C57.6245 99.3188 58.3309 98.2153 59.1179 96.6593C59.8175 95.2767 60.4394 94.1454 60.5 94.1454C60.5606 94.1454 61.1825 95.2767 61.8821 96.6593Z" fill="#F5A16F"/>
</svg>
