<svg width="120" height="120" viewBox="0 0 120 120" fill="none" xmlns="http://www.w3.org/2000/svg">
<path fill-rule="evenodd" clip-rule="evenodd" d="M52.7124 3.21699C43.7742 4.04264 36.0947 6.58643 33.4828 9.58637C31.9825 11.3099 31.9639 11.429 31.9586 19.3787L31.9537 26.5514L21.6296 26.6174C11.6951 26.6808 11.268 26.7009 10.3118 27.1488C9.76518 27.4047 8.95096 28.0252 8.50222 28.5275C6.91065 30.3098 6.99898 28.3404 7.00163 61.9707C7.00296 78.5779 7.0659 92.5434 7.14165 93.0049C7.36602 94.3747 8.52055 96.0748 9.74222 96.835L10.829 97.5112L30.0877 97.5715L49.3464 97.6319L49.4835 98.3233C49.7068 99.4487 49.6361 101.219 49.3206 102.411C48.8789 104.079 48.2168 105.238 46.8651 106.711L45.6469 108.038L43.6035 108.134C40.2965 108.291 39.1475 109.137 37.934 112.312C37.0409 114.647 37.0522 115.282 38.0047 116.243L38.7555 117H60H81.2445L81.9953 116.243C82.9478 115.282 82.9591 114.647 82.066 112.312C80.8536 109.14 79.7024 108.291 76.406 108.135L74.372 108.038L73.1762 106.774C71.2786 104.767 70.3842 102.585 70.3851 99.9612C70.3857 97.4199 69.9569 97.6226 75.3353 97.6226C79.9457 97.6226 80.0266 97.6145 80.4994 97.1072C81.1104 96.451 81.1288 95.3231 80.5378 94.7271C80.1001 94.2856 79.8009 94.2816 46.4738 94.2803C24.0178 94.2796 12.5784 94.2028 12.0296 94.0491C10.5476 93.6337 10.5326 93.5613 10.5326 86.7705V80.6951H60H109.467V86.7705C109.467 93.5613 109.452 93.6337 107.97 94.0491C107.456 94.193 103.053 94.2796 96.2004 94.2803L85.2524 94.2816L84.7721 94.797C84.1324 95.4839 84.16 96.396 84.8415 97.0833L85.3907 97.6373L97.281 97.5742L109.171 97.5112L110.258 96.835C111.479 96.0748 112.634 94.3745 112.858 93.0049C112.934 92.5434 112.997 78.5779 112.998 61.9707C113.001 28.3404 113.089 30.3098 111.498 28.5275C111.049 28.0252 110.235 27.4047 109.688 27.1488C108.732 26.7009 108.305 26.6808 98.3704 26.6174L88.0463 26.5514V19.3666V12.1821L87.4756 11.027C86.719 9.49595 85.3006 8.27806 82.8369 7.04459C80.9446 6.0971 80.771 6.05055 80.186 6.33408C79.2422 6.79179 78.846 7.63772 79.1867 8.46761C79.393 8.96964 79.8715 9.34137 81.1319 9.97793C85.6815 12.2765 85.7321 14.0528 81.3107 16.2752C74.5458 19.6756 60.0099 20.9246 48.5165 19.0933C41.9007 18.0392 36.6437 15.9166 35.598 13.8775C35.1665 13.0358 35.4189 12.3694 36.5193 11.4455C41.476 7.28335 58.0487 5.15674 70.3793 7.10049C74.5478 7.75754 74.7501 7.76111 75.3554 7.18758C76.0411 6.53788 76.0601 5.62024 75.4034 4.86986C74.9734 4.37897 74.5344 4.24332 72.146 3.86491C70.6278 3.62436 68.2427 3.32323 66.8459 3.19583C63.8808 2.92543 55.7374 2.93746 52.7124 3.21699ZM39.1309 20.2415C44.0459 22.1345 50.1831 23.1684 57.7916 23.3853C68.3913 23.6874 78.6552 21.9049 83.7887 18.8708L84.7337 18.3122V23.1214C84.7337 28.4328 84.6628 28.7738 83.3537 29.7654C77.7822 33.9852 61.5205 35.8655 48.5165 33.7935C43.2782 32.9587 38.9015 31.4735 36.6463 29.7654C35.3374 28.7741 35.2663 28.4322 35.2663 23.1288V18.3272L36.4257 18.9867C37.0632 19.3493 38.2807 19.9141 39.1309 20.2415ZM52.5116 26.5918C51.3081 27.0775 51.0201 28.4491 51.9295 29.3661C53.0145 30.4606 54.9208 29.734 54.9208 28.2261C54.9208 27.4996 54.3117 26.5719 53.8347 26.5719C53.7232 26.5719 53.4995 26.5281 53.3378 26.4746C53.1759 26.4209 52.8043 26.4737 52.5116 26.5918ZM59.205 26.6666C58.0838 27.1599 57.8769 28.46 58.7755 29.3661C59.8664 30.4666 61.7667 29.6884 61.7667 28.1411C61.7667 27.4978 61.1258 26.5719 60.6806 26.5719C60.5691 26.5719 60.3454 26.5254 60.1837 26.4686C60.0219 26.412 59.5815 26.5009 59.205 26.6666ZM66.0509 26.6666C64.3463 27.4165 64.9883 29.9129 66.8857 29.9129C67.7255 29.9129 68.6126 29.0242 68.6126 28.1832C68.6126 27.5767 67.93 26.5719 67.5179 26.5719C67.4111 26.5719 67.1913 26.5254 67.0297 26.4686C66.8678 26.412 66.4274 26.5009 66.0509 26.6666ZM31.9537 31.3606V32.5856H22.9953C17.5742 32.5856 13.8774 32.6718 13.6329 32.8037C13.4108 32.9235 13.1193 33.3393 12.985 33.7278C12.6462 34.7082 12.6462 54.5178 12.985 55.4982C13.4269 56.7767 15.0105 57.0872 15.8165 56.0535C16.264 55.48 16.2743 55.2434 16.2743 45.6966V35.9266H24.114H31.9537L31.9586 47.1187C31.9641 59.912 31.8919 59.3942 33.9453 61.3409C40.1382 67.2116 61.4847 69.4313 76.32 65.7473C82.3942 64.239 86.1773 62.1173 87.4747 59.4915L88.0463 58.3347V47.1307V35.9266H95.886H103.726V56.6404V77.3542H60H16.2743V69.2146V61.0747L15.7322 60.5281C15.0123 59.8018 14.079 59.8129 13.3867 60.5557L12.8514 61.1304L12.7882 69.2422L12.7253 77.3542H11.6288H10.5326V54.3959V31.4377L11.1781 30.7866L11.8236 30.1356H21.8887H31.9537V31.3606ZM108.822 30.7866L109.467 31.4377V54.3959V77.3542H108.363H107.259V55.894C107.259 40.8001 107.187 34.2245 107.015 33.7278C106.881 33.3393 106.589 32.9235 106.367 32.8037C106.123 32.6718 102.426 32.5856 97.0047 32.5856H88.0463V31.3606V30.1356H98.1113H108.176L108.822 30.7866ZM39.1309 34.9416C44.0459 36.8346 50.1831 37.8685 57.7916 38.0855C68.3913 38.3875 78.6552 36.605 83.7887 33.571L84.7337 33.0124V37.8215C84.7337 43.133 84.6628 43.474 83.3537 44.4655C77.7822 48.6854 61.5205 50.5657 48.5165 48.4936C43.2782 47.6588 38.9015 46.1737 36.6463 44.4655C35.3374 43.4742 35.2663 43.1323 35.2663 37.8289V33.0273L36.4257 33.6868C37.0632 34.0494 38.2807 34.6142 39.1309 34.9416ZM51.9295 42.2643C50.8077 43.3956 51.5777 45.0585 53.2234 45.0585C54.2748 45.0585 54.9208 44.4288 54.9208 43.4042C54.9208 41.8964 53.0145 41.1698 51.9295 42.2643ZM58.7755 42.2643C57.662 43.3871 58.3769 45.0585 59.9702 45.0585C60.9734 45.0585 61.7667 44.3346 61.7667 43.4192C61.7667 42.5859 60.865 41.7175 60 41.7175C59.5698 41.7175 59.1171 41.9195 58.7755 42.2643ZM65.6611 42.1792C65.2347 42.5173 65.0792 42.8447 65.0792 43.4042C65.0792 44.4417 65.7236 45.0585 66.8075 45.0585C68.4249 45.0585 69.1815 43.3846 68.0705 42.2643C67.4 41.5879 66.4487 41.5543 65.6611 42.1792ZM39.1309 49.6393C44.1832 51.5773 50.0851 52.5651 57.9021 52.7814C68.4265 53.0725 78.2499 51.3893 83.5743 48.3822L84.7337 47.7274V52.529C84.7337 57.8324 84.6626 58.1743 83.3537 59.1657C79.3959 62.1634 70.5458 63.9924 60 63.9924C49.4542 63.9924 40.6041 62.1634 36.6463 59.1657C35.3374 58.1743 35.2663 57.8324 35.2663 52.529V47.7274L36.4257 48.3869C37.0632 48.7495 38.2807 49.3133 39.1309 49.6393ZM52.3734 57.0751C51.1718 57.5663 50.9313 59.0519 51.9149 59.9051C52.8493 60.7157 54.1896 60.4653 54.6756 59.3895C55.0499 58.5607 54.9777 58.2226 54.2752 57.5141C53.6172 56.8506 53.1733 56.748 52.3734 57.0751ZM59.2193 57.0702C58.6279 57.3184 58.3024 57.7331 58.118 58.4734C57.9961 58.9637 58.0946 59.2076 58.6354 59.753C59.6005 60.7263 60.9971 60.5504 61.5216 59.3895C61.8747 58.6077 61.829 58.2948 61.2698 57.6634C60.708 57.0295 59.8847 56.7912 59.2193 57.0702ZM66.0414 57.0792C65.4619 57.3208 64.8584 58.1536 64.8584 58.7115C64.8584 59.335 66.0534 60.4268 66.7355 60.4268C67.4362 60.4268 68.6126 59.3285 68.6126 58.6746C68.6126 57.6126 67.065 56.6522 66.0414 57.0792ZM56.9083 86.2634C56.6349 86.5391 56.4666 87.0057 56.4666 87.4884C56.4666 88.9268 56.9573 89.1588 60 89.1588C63.0427 89.1588 63.5334 88.9268 63.5334 87.4884C63.5334 86.05 63.0427 85.8179 60 85.8179C57.6443 85.8179 57.3009 85.8674 56.9083 86.2634ZM66.9575 99.0146C66.6907 101.586 67.4937 104.804 68.9461 106.98L69.687 108.091H60H50.313L51.0539 106.98C52.5063 104.804 53.3093 101.586 53.0425 99.0146L52.8981 97.6226H60H67.1019L66.9575 99.0146ZM78.1676 112.044C78.359 112.259 78.5841 112.71 78.6673 113.047L78.819 113.659H60H41.181L41.3327 113.047C41.4159 112.71 41.641 112.259 41.8324 112.044C42.1586 111.679 43.3092 111.654 60 111.654C76.6908 111.654 77.8414 111.679 78.1676 112.044Z" fill="#F5A16F"/>
</svg>
