<svg width="120" height="120" viewBox="0 0 120 120" fill="none" xmlns="http://www.w3.org/2000/svg">
<path fill-rule="evenodd" clip-rule="evenodd" d="M12.2679 7.45343C10.7221 8.05246 9.02456 9.78783 8.43936 11.3671L8 12.5525V48.5283V84.5041L8.43936 85.6895C9.03939 87.3086 10.7219 89.0073 12.3255 89.6131C13.4797 90.0491 13.7003 90.0566 25.3357 90.0566H37.172L37.0849 91.898L36.9975 93.7392L37.7383 94.4871C38.4267 95.1822 38.5463 95.2277 39.4387 95.1336C39.9973 95.0745 41.9495 94.3651 44.1089 93.4365C46.1497 92.559 47.8596 91.8814 47.9088 91.9311C47.9577 91.9807 48.245 93.1478 48.547 94.5247C48.8488 95.9016 49.2602 97.3006 49.4609 97.6339C49.9236 98.4023 50.8049 98.8635 52.1084 99.0194C53.1137 99.1396 53.1301 99.1529 53.0131 99.7435C52.827 100.682 52.1699 101.452 51.1358 101.943C49.586 102.679 45.3691 102.832 42.226 102.266C41.1315 102.07 40.2969 102.684 40.2969 103.687C40.2969 105.223 41.3086 105.617 45.6797 105.786C48.3595 105.889 48.9319 105.851 50.431 105.468C52.305 104.989 53.5242 104.356 54.5325 103.338C55.2656 102.598 56.0393 101.027 56.2509 99.8491L56.389 99.0801H60.0057H63.6225L63.8472 100.138C64.7261 104.275 68.1534 106.08 74.5807 105.789C77.4462 105.66 79.0198 105.298 81.772 104.134C82.7421 103.724 84.1132 103.251 84.8188 103.083C87.6896 102.399 91.1868 102.873 93.8983 104.311C95.2922 105.051 97.9943 107.121 99.0888 108.288L99.6853 108.924L59.9872 108.914L20.2891 108.904L21.7044 107.578C24.2181 105.223 26.7259 103.737 29.3281 103.061C30.3767 102.788 31.1613 102.743 33.1408 102.843C35.4465 102.959 35.6632 102.938 36.0353 102.562C36.467 102.127 36.5655 101.14 36.2386 100.524C35.9362 99.9529 34.9159 99.6738 32.6772 99.5493C31.0118 99.4568 30.3316 99.5155 28.9194 99.8737C24.851 100.906 20.4359 103.844 17.1331 107.719C16.0844 108.949 15.9219 109.251 15.9219 109.97C15.9219 110.615 16.0547 110.935 16.5156 111.401L17.1093 112H60H102.891L103.484 111.401C103.946 110.934 104.078 110.616 104.078 109.966C104.078 109.226 103.92 108.95 102.684 107.534C98.6833 102.951 93.6466 99.9266 89.4107 99.5651C86.66 99.3303 83.5672 99.9658 79.3265 101.637C77.1084 102.511 74.861 102.781 71.7685 102.547C68.8343 102.324 67.3227 101.438 66.9869 99.7435C66.8699 99.1529 66.8863 99.1396 67.8916 99.0194C69.1951 98.8635 70.0764 98.4023 70.5391 97.6339C70.7398 97.3006 71.1512 95.9016 71.453 94.5247C71.755 93.1478 72.0427 91.9801 72.0926 91.9298C72.1926 91.8287 72.3451 91.8894 76.8594 93.8258C80.6365 95.4461 81.2422 95.5164 82.2903 94.4582L83.0086 93.7331L82.9048 91.8948L82.801 90.0566H94.6507C106.3 90.0566 106.52 90.0491 107.674 89.6131C109.278 89.0073 110.961 87.3086 111.561 85.6895L112 84.5041V48.5283V12.5525L111.561 11.3671C110.961 9.74805 109.278 8.04938 107.674 7.44358C106.563 7.02338 106.163 7 100.124 7H93.7482L93.3273 7.54038C92.7687 8.25713 92.7955 8.95768 93.4049 9.57271L93.9034 10.0762L99.651 10.0774C103.217 10.078 105.705 10.1644 106.206 10.3048C107.242 10.5952 108.439 11.804 108.727 12.8494C108.861 13.3386 108.951 15.6149 108.952 18.5356L108.953 23.4062H60H11.0469L11.0481 18.5356C11.0487 15.6149 11.1389 13.3386 11.2734 12.8494C11.561 11.804 12.7582 10.5952 13.7937 10.3048C14.3694 10.1436 25.1793 10.0782 51.4031 10.0774L88.2049 10.0762L88.6258 9.53579C89.16 8.85021 89.16 8.22596 88.6258 7.54038L88.2049 7L50.7938 7.01066L13.3828 7.02133L12.2679 7.45343ZM22.1909 11.8573C21.8962 11.9053 21.1735 12.2395 20.5848 12.5999C17.4445 14.5217 17.5798 19.2883 20.8219 20.9582C25.0032 23.112 29.4604 18.6361 27.3192 14.4335C26.3918 12.6128 24.2266 11.525 22.1909 11.8573ZM33.7605 12.006C32.5178 12.3398 31.5024 13.1411 30.8053 14.3385C30.3423 15.1336 30.2436 15.5427 30.2497 16.6387C30.2619 18.8119 31.4138 20.4626 33.4723 21.2562C35.6882 22.1106 38.4501 20.8729 39.3883 18.6054C39.7925 17.6286 39.8106 15.6918 39.4242 14.761C38.5185 12.5785 36.0676 11.3864 33.7605 12.006ZM45.8828 11.9042C42.7596 12.6944 41.2134 16.0729 42.6836 18.8941C44.0346 21.4863 47.1804 22.2992 49.5844 20.6773C51.6914 19.2555 52.3064 16.2706 50.949 14.0539C49.9991 12.5029 47.5777 11.4752 45.8828 11.9042ZM24.121 15.4232C24.8141 15.9734 24.8588 17.1124 24.2147 17.8047C23.1346 18.9653 21.2334 18.0108 21.4832 16.4336C21.6959 15.0914 23.0501 14.5725 24.121 15.4232ZM36.142 15.5015C37.1566 16.5257 36.4767 18.2793 35.0648 18.2793C34.0859 18.2793 33.3906 17.6218 33.3906 16.6961C33.3906 15.7937 34.1521 14.998 35.0156 14.998C35.4113 14.998 35.8277 15.1841 36.142 15.5015ZM47.6876 15.2298C49.1996 15.9252 48.6236 18.2793 46.9415 18.2793C46.1154 18.2793 45.6525 17.9696 45.4042 17.2506C45.142 16.491 45.3663 15.7864 46.0167 15.3264C46.5649 14.9388 47.0002 14.9136 47.6876 15.2298ZM108.952 54.937C108.951 75.0648 108.885 83.6303 108.727 84.2072C108.439 85.2527 107.242 86.4614 106.206 86.7518C105.661 86.9046 101.661 86.9786 93.8949 86.9792L82.3915 86.9805L81.8209 85.8013C81.2266 84.5726 79.8926 83.1154 76.8685 80.3909L75.1509 78.8436L75.5986 76.4009C77.8455 64.1419 76.9845 55.3601 72.677 46.603C70.0618 41.2868 65.5689 35.1775 62.0589 32.1649C60.0995 30.4833 59.6783 30.5542 57.1311 32.9953C50.5978 39.2563 45.5948 48.2636 43.7193 57.1416C43.3017 59.1192 43.2428 59.954 43.2426 63.9092C43.2422 68.6131 43.4768 71.0482 44.4347 76.2822L44.8977 78.8114L42.1756 81.2922C39.4819 83.7474 38.5214 84.8768 37.9469 86.2649L37.6508 86.9805L26.1263 86.9792C18.3443 86.9786 14.3391 86.9046 13.7937 86.7518C12.7582 86.4614 11.561 85.2527 11.2734 84.2072C11.1147 83.6303 11.0489 75.0648 11.0481 54.937L11.0469 26.4824H60H108.953L108.952 54.937ZM61.4853 35.9673C62.1424 36.6723 63.312 38.0334 64.0844 38.9922L65.4886 40.7354L62.7444 40.7924C61.235 40.8237 58.765 40.8237 57.2556 40.7924L54.5114 40.7354L55.9111 38.9922C57.7112 36.7505 59.6831 34.6855 60.024 34.6855C60.1706 34.6855 60.8281 35.2624 61.4853 35.9673ZM17.4727 36.3411C16.7795 36.8916 16.7236 38.1179 17.3651 38.7041C17.7736 39.0773 18.246 39.0947 27.9219 39.0947C37.926 39.0947 38.0564 39.0894 38.4759 38.6661C39.1094 38.0263 39.0692 36.9863 38.3877 36.3945L37.8366 35.916H27.9223C18.1997 35.916 17.9976 35.9242 17.4727 36.3411ZM18.0547 42.626C16.8414 42.9244 16.491 44.5551 17.4727 45.3346C17.9915 45.7468 18.2304 45.7598 25.3022 45.7598H32.5966L33.0951 45.2563C33.9551 44.3882 33.6642 43.1395 32.4975 42.6916C31.9436 42.4789 18.8936 42.4197 18.0547 42.626ZM68.9602 46.2245C70.8769 49.5837 72.3602 53.7623 73.1265 57.9619C73.6482 60.8199 73.6551 68.6178 73.1391 72.0098C72.652 75.211 71.5552 80.5939 70.5062 84.9297L69.6381 88.5186H60.0022H50.3666L49.5941 85.3398C47.3967 76.2984 46.6202 71.5818 46.4536 66.2676C46.2803 60.7331 46.8261 56.7025 48.3536 52.2386C49.0993 50.0592 50.6435 46.7343 51.6731 45.0908L52.2849 44.1142L60.0512 44.168L67.8175 44.2217L68.9602 46.2245ZM90.7643 45.2378C90.1549 45.8529 90.1281 46.5534 90.6867 47.2702L91.1076 47.8105H96.6789C101.979 47.8105 102.27 47.7907 102.656 47.4004C103.215 46.8364 103.195 45.6956 102.618 45.1525C102.194 44.7532 101.927 44.7344 96.7181 44.7344H91.2628L90.7643 45.2378ZM90.6867 52.0423C90.1281 52.7591 90.1549 53.4596 90.7643 54.0747L91.2628 54.5781H96.7181C101.927 54.5781 102.194 54.5593 102.618 54.16C103.195 53.6169 103.215 52.4761 102.656 51.9121C102.27 51.5218 101.979 51.502 96.6789 51.502H91.1076L90.6867 52.0423ZM17.4345 56.6888C16.6586 57.3627 16.6586 58.3561 17.4345 59.03L17.9992 59.5205L22.8696 59.459C27.7088 59.3979 27.7421 59.3944 28.1277 58.9133C28.6231 58.295 28.6231 57.4238 28.1277 56.8055C27.7421 56.3244 27.7088 56.3209 22.8696 56.2598L17.9992 56.1982L17.4345 56.6888ZM58.0197 57.7661C54.8349 58.6319 52.8335 60.8681 52.2502 64.2127C51.5216 68.3879 54.6584 72.6449 58.8909 73.2247C64.0903 73.9371 68.6367 69.2958 67.7452 64.1854C67.1626 60.847 65.122 58.605 61.8931 57.7558C60.4717 57.382 59.4223 57.3848 58.0197 57.7661ZM91.1421 58.271C89.8244 58.807 90.1052 60.8863 91.5445 61.251C91.795 61.3145 94.2966 61.3385 97.1038 61.3047C101.789 61.2483 102.243 61.2112 102.635 60.8525C103.276 60.2662 103.22 59.04 102.527 58.4896C102.016 58.0837 101.756 58.0651 96.789 58.0774C93.9274 58.0846 91.3863 58.1717 91.1421 58.271ZM62.4377 61.397C65.5309 63.2722 65.3767 67.8928 62.1639 69.5985C61.0073 70.2125 59.0012 70.2186 57.8672 69.6114C54.6101 67.8672 54.4401 63.2898 57.5623 61.397C58.5062 60.8248 58.8511 60.7305 60 60.7305C61.1489 60.7305 61.4938 60.8248 62.4377 61.397ZM46.389 85.4953C46.7792 87.1581 47.0991 88.5546 47.0999 88.5989C47.103 88.7523 40.459 91.519 40.3503 91.4095C40.1549 91.2123 40.6781 87.8303 41.0109 87.1398C41.2865 86.5679 45.2824 82.4874 45.5781 82.4759C45.634 82.4737 45.9988 83.8323 46.389 85.4953ZM76.5457 84.3893C77.6205 85.3891 78.683 86.5695 78.9069 87.0125C79.2969 87.7846 79.8733 91.1835 79.6521 91.4071C79.4955 91.565 72.8938 88.7062 72.9242 88.4935C73.068 87.4936 74.3528 82.4841 74.4558 82.5217C74.5303 82.5489 75.4708 83.3893 76.5457 84.3893ZM68.7344 92.0266C68.7344 92.2077 68.6068 92.8767 68.4508 93.5134C68.295 94.15 68.1104 94.9248 68.0407 95.2349L67.9142 95.7988H60H52.0858L51.9593 95.2349C51.8896 94.9248 51.705 94.15 51.5492 93.5134C51.3932 92.8767 51.2656 92.2077 51.2656 92.0266C51.2656 91.7293 52.1161 91.6973 60 91.6973C67.8839 91.6973 68.7344 91.7293 68.7344 92.0266Z" fill="#F5A16F"/>
</svg>
