<svg width="120" height="120" viewBox="0 0 120 120" fill="none" xmlns="http://www.w3.org/2000/svg">
<path fill-rule="evenodd" clip-rule="evenodd" d="M36.7173 10.538C34.9768 11.2185 33.2159 13.0356 32.5559 14.8324C32.1552 15.923 32.0546 16.7156 32.0546 18.7833V21.3698L26.5083 21.4409L20.962 21.5123L19.8237 22.2296C19.1188 22.6738 18.4169 23.3889 17.9807 24.1071L17.2765 25.2674L17.1601 47.0329L17.0438 68.7983L15.606 70.0755C10.4876 74.6216 7.17872 80.7644 6.20895 87.5202C5.77724 90.5278 6.03859 95.6326 6.77098 98.5005C10.0205 111.222 21.106 120.002 33.9165 120C41.4296 119.999 48.3599 117.092 53.5397 111.769C56.0895 109.15 57.2326 107.503 58.8827 104.072L60.3309 101.061L85.2511 100.99L110.171 100.92L111.31 100.202C112.015 99.7582 112.718 99.0433 113.154 98.3256L113.858 97.1662L113.929 92.1119L114 87.0575L113.416 86.4628C112.647 85.6799 111.583 85.6744 110.822 86.4498C110.256 87.0258 110.251 87.0751 110.251 91.4456V95.8599L109.571 96.5528L108.89 97.2456H85.1261H61.3621L61.5448 96.0012C61.6451 95.3169 61.7135 92.9967 61.6968 90.8456C61.6705 87.4674 61.5848 86.6181 61.0677 84.613C59.804 79.7129 57.1516 74.998 53.6619 71.4479C51.4894 69.238 48.6036 67.1419 47.7337 67.1419C46.8926 67.1419 46.0182 68.1403 46.0182 69.1006C46.0182 70.0563 46.2419 70.3569 47.7911 71.4842C49.6623 72.846 49.6571 72.8168 48.2754 74.2063L47.0564 75.4328L45.8972 74.5764C43.5423 72.8367 40.0095 71.4039 36.651 70.8262L35.7783 70.6759V68.909C35.7783 66.8404 35.5232 66.9487 38.995 67.5435C41.73 68.0119 42.4173 67.84 42.8266 66.5854C43.2991 65.1366 42.374 64.2738 39.7295 63.6971C34.3719 62.5285 27.7995 63.2235 22.7151 65.4962C21.857 65.8799 21.0939 66.1938 21.0192 66.1938C20.9447 66.1938 20.8838 60.3804 20.8838 53.2753V40.3567H47.3087H73.7339L74.305 39.7748C74.6653 39.4081 74.8763 38.9222 74.8763 38.4604C74.8763 37.9987 74.6653 37.5128 74.305 37.1461L73.7339 36.5641H47.3087H20.8838V31.5681V26.5721L21.564 25.8792L22.2443 25.1864H27.1495H32.0546V26.3303C32.0546 27.2559 31.9394 27.5838 31.4507 28.0488C28.9349 30.4424 30.5091 34.6679 33.9165 34.6679C37.3238 34.6679 38.898 30.4424 36.3822 28.0488C35.8935 27.5838 35.7783 27.2559 35.7783 26.3303V25.1864H60.9127H86.0472V26.3303C86.0472 27.2559 85.932 27.5838 85.4433 28.0488C82.9275 30.4424 84.5017 34.6679 87.909 34.6679C91.3164 34.6679 92.8905 30.4424 90.3748 28.0488C89.886 27.5838 89.7708 27.2559 89.7708 26.3303V25.1864H99.3305H108.89L109.571 25.8792L110.251 26.5721V31.5681V36.5641H94.9967H79.7424L79.1713 37.1461C78.811 37.5128 78.6 37.9987 78.6 38.4604C78.6 38.9222 78.811 39.4081 79.1713 39.7748L79.7424 40.3567H94.9967H110.251V60.6341V80.9116L110.822 81.4933C111.579 82.2644 112.647 82.2632 113.406 81.4905L113.98 80.906L113.919 53.0868L113.858 25.2677L113.154 24.1074C112.718 23.3892 112.016 22.6738 111.311 22.2296L110.173 21.5123L105.557 21.4393L100.942 21.366V18.7814C100.942 15.446 100.452 13.9902 98.7459 12.2524C95.7975 9.24919 91.1914 9.24919 88.243 12.2524C86.5345 13.9923 86.0472 15.4446 86.0472 18.7954V21.3938H66.4982H46.9491V18.7954C46.9491 15.4446 46.4618 13.9923 44.7534 12.2524C42.6358 10.0954 39.5389 9.43478 36.7173 10.538ZM41.0488 14.2995C42.6349 15.0815 43.0845 16.0609 43.1899 18.9632L43.2783 21.3938H39.5282H35.7783V19.1791C35.7783 16.3721 36.3054 15.1557 37.8742 14.3419C39.1477 13.6813 39.7779 13.6728 41.0488 14.2995ZM95.0414 14.2995C96.6274 15.0815 97.0771 16.0609 97.1825 18.9632L97.2709 21.3938H93.5208H89.7708V19.1791C89.7708 16.3721 90.298 15.1557 91.8668 14.3419C93.1403 13.6813 93.7705 13.6728 95.0414 14.2995ZM27.0405 46.6276C26.4739 47.2045 26.4692 47.246 26.4692 51.7345C26.4692 57.8273 26.0726 57.4234 32.0546 57.4234C36.4615 57.4234 36.5023 57.4187 37.0687 56.8415C37.6354 56.2645 37.6401 56.2231 37.6401 51.7345C37.6401 45.6417 38.0366 46.0456 32.0546 46.0456C27.6477 46.0456 27.607 46.0504 27.0405 46.6276ZM43.7969 46.6276C43.2302 47.2045 43.2255 47.246 43.2255 51.7345C43.2255 57.8273 42.8289 57.4234 48.811 57.4234C53.2179 57.4234 53.2586 57.4187 53.825 56.8415C54.3917 56.2645 54.3964 56.2231 54.3964 51.7345C54.3964 45.6417 54.793 46.0456 48.811 46.0456C44.404 46.0456 44.3633 46.0504 43.7969 46.6276ZM60.5532 46.6276C59.9865 47.2045 59.9818 47.246 59.9818 51.7345C59.9818 57.8273 59.5853 57.4234 65.5673 57.4234C71.5493 57.4234 71.1527 57.8273 71.1527 51.7345C71.1527 45.6417 71.5493 46.0456 65.5673 46.0456C61.1604 46.0456 61.1196 46.0504 60.5532 46.6276ZM77.3095 46.6276C76.7428 47.2045 76.7381 47.246 76.7381 51.7345C76.7381 57.8273 76.3416 57.4234 82.3236 57.4234C88.3056 57.4234 87.909 57.8273 87.909 51.7345C87.909 45.6417 88.3056 46.0456 82.3236 46.0456C77.9167 46.0456 77.8759 46.0504 77.3095 46.6276ZM33.9165 51.7345V53.6308H32.0546H30.1928V51.7345V49.8382H32.0546H33.9165V51.7345ZM50.6728 51.7345V53.6308H48.811H46.9491V51.7345V49.8382H48.811H50.6728V51.7345ZM67.4291 51.7345V53.6308H65.5673H63.7055V51.7345V49.8382H65.5673H67.4291V51.7345ZM84.1854 51.7345V53.6308H82.3236H80.4618V51.7345V49.8382H82.3236H84.1854V51.7345ZM60.5532 63.6942C59.9865 64.2712 59.9818 64.3127 59.9818 68.8012C59.9818 74.894 59.5853 74.4901 65.5673 74.4901C69.9742 74.4901 70.0149 74.4853 70.5814 73.9082C71.1481 73.3312 71.1527 73.2897 71.1527 68.8012C71.1527 62.7084 71.5493 63.1123 65.5673 63.1123C61.1604 63.1123 61.1196 63.117 60.5532 63.6942ZM77.3095 63.6942C76.7428 64.2712 76.7381 64.3127 76.7381 68.8012C76.7381 74.894 76.3416 74.4901 82.3236 74.4901C86.7305 74.4901 86.7712 74.4853 87.3377 73.9082C87.9044 73.3312 87.909 73.2897 87.909 68.8012C87.909 62.7084 88.3056 63.1123 82.3236 63.1123C77.9167 63.1123 77.8759 63.117 77.3095 63.6942ZM94.0658 63.6942C93.4991 64.2712 93.4945 64.3127 93.4945 68.8012C93.4945 74.894 93.0979 74.4901 99.0799 74.4901C103.487 74.4901 103.528 74.4853 104.094 73.9082C104.661 73.3312 104.665 73.2897 104.665 68.8012C104.665 62.7084 105.062 63.1123 99.0799 63.1123C94.673 63.1123 94.6323 63.117 94.0658 63.6942ZM67.4291 68.8012V70.6975H65.5673H63.7055V68.8012V66.9049H65.5673H67.4291V68.8012ZM84.1854 68.8012V70.6975H82.3236H80.4618V68.8012V66.9049H82.3236H84.1854V68.8012ZM100.942 68.8012V70.6975H99.0799H97.2181V68.8012V66.9049H99.0799H100.942V68.8012ZM32.0546 68.909V70.6759L31.1819 70.8262C27.8234 71.4039 24.2906 72.8367 21.9357 74.5764L20.7765 75.4328L19.5502 74.199C18.8756 73.5206 18.3268 72.9086 18.3305 72.8389C18.3431 72.6054 20.9848 70.7579 22.5128 69.9143C25.0005 68.5409 29.2405 67.2121 31.2983 67.1607L32.0546 67.1419V68.909ZM38.0441 75.0962C38.7818 75.2858 40.3662 75.931 41.565 76.53C43.3484 77.4213 44.0947 77.9759 45.6724 79.583C47.2491 81.1887 47.7956 81.9513 48.6708 83.7665C50.1021 86.7345 50.5203 88.4961 50.5203 91.5567C50.5203 94.62 50.1021 96.379 48.6657 99.3579C47.7569 101.242 47.2622 101.919 45.4776 103.721C43.6684 105.548 43.3652 105.967 43.3652 106.635C43.3652 108.232 45.0447 109.095 46.3054 108.146L47.0052 107.619L48.308 108.946C49.8014 110.467 49.919 110.153 47.1393 112.07C44.3917 113.965 40.3623 115.505 37.1974 115.869L35.7783 116.033V114.24C35.7783 112.228 35.6801 112.332 37.8607 112.049C40.2147 111.744 41.141 110.019 39.7253 108.577C39.1291 107.97 38.9003 107.881 38.2708 108.011C34.7294 108.744 32.5743 108.715 29.5414 107.893C23.7684 106.33 19.2505 101.631 17.7075 95.5864C17.1797 93.5182 17.1743 89.5633 17.6963 87.5271C19.7448 79.5401 26.8783 74.1589 34.7859 74.6356C35.8399 74.6994 37.3061 74.9065 38.0441 75.0962ZM16.8743 76.9244L18.0857 78.1734L17.2448 79.3541C15.5369 81.7526 14.13 85.3509 13.5629 88.7716L13.4153 89.6604H11.6506H9.88556L10.0461 88.215C10.2758 86.1461 11.2226 82.9713 12.2659 80.7716C13.0865 79.0407 15.2404 75.6904 15.539 75.6798C15.6074 75.6772 16.2083 76.2373 16.8743 76.9244ZM53.543 77.2798C55.6661 80.2913 57.4041 84.7697 57.7868 88.215L57.9473 89.6604H56.1823H54.4176L54.27 88.7716C53.7029 85.3509 52.296 81.7526 50.5881 79.3541L49.7472 78.1734L50.9586 76.9244C51.6246 76.2373 52.2255 75.6772 52.2939 75.6798C52.3624 75.6821 52.9244 76.4023 53.543 77.2798ZM32.626 78.8646C32.1484 79.3508 32.0546 79.676 32.0546 80.845V82.2436L30.9922 82.9276C26.4701 85.8389 28.008 92.6976 33.3484 93.4357C34.801 93.6365 35.7783 94.4187 35.7783 95.3809C35.7783 96.0152 34.5497 97.2456 33.9165 97.2456C33.2115 97.2456 32.0546 95.9981 32.0546 95.2382C32.0546 94.378 31.09 93.453 30.1928 93.453C29.7395 93.453 29.2624 93.668 28.9024 94.035C27.4711 95.4925 28.8789 99.1407 31.3811 100.459C32.0109 100.79 32.0546 100.906 32.0546 102.24C32.0546 103.439 32.1459 103.76 32.626 104.249C32.986 104.616 33.4631 104.831 33.9165 104.831C34.3698 104.831 34.8469 104.616 35.2069 104.249C35.6845 103.763 35.7783 103.438 35.7783 102.268V100.87L36.8407 100.186C41.3628 97.2745 39.8249 90.4159 34.4845 89.6777C33.0319 89.477 32.0546 88.6948 32.0546 87.7326C32.0546 87.0983 33.2832 85.8679 33.9165 85.8679C34.6214 85.8679 35.7783 87.1154 35.7783 87.8753C35.7783 88.7355 36.7429 89.6604 37.6401 89.6604C38.0934 89.6604 38.5705 89.4455 38.9305 89.0785C40.3618 87.621 38.954 83.9727 36.4518 82.6548C35.822 82.3232 35.7783 82.2073 35.7783 80.8732C35.7783 79.6743 35.687 79.3534 35.2069 78.8646C34.8469 78.4977 34.3698 78.2827 33.9165 78.2827C33.4631 78.2827 32.986 78.4977 32.626 78.8646ZM77.3095 80.7609C76.7428 81.3378 76.7381 81.3793 76.7381 85.8679C76.7381 91.9607 76.3416 91.5567 82.3236 91.5567C86.7305 91.5567 86.7712 91.552 87.3377 90.9748C87.9044 90.3979 87.909 90.3564 87.909 85.8679C87.909 79.7751 88.3056 80.179 82.3236 80.179C77.9167 80.179 77.8759 80.1837 77.3095 80.7609ZM94.0658 80.7609C93.4991 81.3378 93.4945 81.3793 93.4945 85.8679C93.4945 91.9607 93.0979 91.5567 99.0799 91.5567C103.487 91.5567 103.528 91.552 104.094 90.9748C104.661 90.3979 104.665 90.3564 104.665 85.8679C104.665 79.7751 105.062 80.179 99.0799 80.179C94.673 80.179 94.6323 80.1837 94.0658 80.7609ZM84.1854 85.8679V87.7641H82.3236H80.4618V85.8679V83.9716H82.3236H84.1854V85.8679ZM100.942 85.8679V87.7641H99.0799H97.2181V85.8679V83.9716H99.0799H100.942V85.8679ZM13.5629 94.3419C14.1421 97.8356 15.5983 101.534 17.2625 103.738L18.1376 104.897L16.839 106.219C15.3507 107.735 15.6583 107.855 13.7763 105.024C11.9161 102.226 10.4041 98.122 10.0461 94.8985L9.88556 93.453H11.6506H13.4153L13.5629 94.3419ZM57.8873 94.1487C57.8873 95.2922 57.2643 97.9572 56.483 100.156C55.7606 102.19 53.6968 105.861 52.6882 106.906L52.1722 107.441L50.9597 106.19L49.7472 104.94L50.5881 103.759C52.296 101.361 53.7029 97.7626 54.27 94.3419L54.4176 93.453H56.1523H57.8873V94.1487ZM22.3113 108.791C24.5001 110.385 27.8907 111.721 31.1819 112.287L32.0546 112.438V114.235V116.033L30.6355 115.869C27.4706 115.505 23.4412 113.965 20.6936 112.07C17.9244 110.16 18.0452 110.466 19.4793 108.987C20.1672 108.278 20.8433 107.767 20.9815 107.852C21.1197 107.937 21.7181 108.36 22.3113 108.791Z" fill="#F5A16F"/>
</svg>
