<svg width="120" height="120" viewBox="0 0 120 120" fill="none" xmlns="http://www.w3.org/2000/svg">
<path fill-rule="evenodd" clip-rule="evenodd" d="M56.8074 9.23201C51.982 9.92223 46.3993 12.6535 46.3993 14.3239C46.3993 15.9221 47.668 16.3077 49.4207 15.2425C67.7529 4.10054 88.7174 26.0651 76.0724 43.1658L75.2886 44.2261L74.0131 42.2977C72.3148 39.7302 68.7313 36.0699 67.2735 35.4136C67.245 35.401 67.6394 34.5792 68.15 33.5872C71.5919 26.8994 66.1446 19.3203 58.6293 20.3407C52.1936 21.2145 48.5894 29.0213 52.2002 34.2668C52.9246 35.3194 52.9441 35.2672 51.4059 36.3992C49.1981 38.0241 46.6865 40.949 44.9697 43.8954C44.7745 44.2304 44.6286 44.1145 43.8472 43.0044C39.2291 36.4436 39.0709 27.7793 43.448 21.1314C45.4628 18.0712 44.0703 15.7209 41.7056 18.19C30.5172 29.8714 40.1354 52.3338 57.1908 54.3548L58.4507 54.504V60.8767V67.2494L52.0516 71.3474C44.4323 76.2269 45.4696 75.882 43.8422 74.0776C33.0544 62.116 13.2201 65.0363 6.18419 79.6221C0.120986 92.1915 7.23376 107.694 20.6968 111.253C24.5931 112.283 25.2713 109.397 21.4199 108.177C18.3919 107.217 14.189 104.916 14.189 104.218C14.189 102.455 18.407 97.5862 21.9782 95.2271C24.5055 93.5578 24.6203 93.0968 22.9292 91.4093C18.8805 87.3687 21.3309 80.9027 26.911 80.9027C32.5453 80.9027 34.9811 87.2597 30.9458 91.4336C29.3776 93.0557 29.5261 93.7425 31.7462 95.1316C34.6975 96.9784 37.3997 99.8137 39.0514 102.797L39.8459 104.231L38.4663 105.203C35.7878 107.09 31.2808 108.836 29.0905 108.836C27.5052 108.836 26.7212 110.717 27.9174 111.651C28.6069 112.189 29.5185 112.126 32.7984 111.312C46.2115 107.982 53.5675 92.6546 47.7826 80.0911C47.3476 79.1466 47.031 78.3387 47.079 78.2956C47.4679 77.9469 59.8397 70.116 60.0017 70.116C60.1761 70.116 72.2159 77.7155 72.7554 78.166C72.8498 78.2449 72.6206 78.9865 72.2462 79.814C65.3711 95.0093 76.3487 111.949 93.0713 111.949C113.214 111.949 123.509 88.1446 109.638 73.6449C106.475 70.3383 104.202 69.5787 103.998 71.7589C103.911 72.6804 104.083 72.9395 105.575 74.1361C113.479 80.4759 115.173 93.6624 109.009 100.862L108.293 101.698L107.27 100.101C105.793 97.7956 103.871 95.6465 101.965 94.1699C101.05 93.4616 100.302 92.8532 100.302 92.818C100.302 92.7827 100.588 92.3066 100.937 91.7597C103.639 87.531 102.047 81.3101 97.6561 78.9378C89.5941 74.5818 80.7541 82.9727 84.9182 91.0288L85.8582 92.8476L85.1373 93.387C83.291 94.7685 80.4469 97.7663 79.2084 99.6364C77.6956 101.921 77.8172 101.915 76.4092 99.7734C66.8158 85.1841 80.9125 65.8842 97.9384 70.2978C100.399 70.9356 101.168 70.6506 101.175 69.0986C101.183 67.4917 98.5596 66.7415 92.9618 66.7499C86.2206 66.7602 81.4872 68.7303 76.6691 73.5311C74.7487 75.4445 74.5892 75.5552 74.1492 75.2787C73.8909 75.1165 70.9431 73.2351 67.5989 71.0981L61.5184 67.2124V60.8632V54.5138L62.7713 54.3676C74.9871 52.9424 84.1554 41.5668 82.791 29.5284C81.3229 16.5773 69.5804 7.40457 56.8074 9.23201ZM62.08 23.7122C66.2445 25.1209 67.3988 30.6415 64.1642 33.6801C62.4477 35.2927 62.5283 36.1341 64.5207 37.3924C68.3367 39.8027 73.1483 45.35 72.6165 46.7261C71.4422 49.7634 60.5987 52.29 55.1206 50.8026C52.1121 49.9858 47.2757 47.3659 47.2757 46.5532C47.2757 45.0372 52.0814 39.5621 55.0939 37.6461C57.5478 36.0851 57.6453 35.64 55.9377 33.7963C51.3281 28.8184 55.7438 21.5689 62.08 23.7122ZM29.4567 69.9137C43.3275 71.7964 50.9567 87.1003 44.0043 99.0954C42.6495 101.433 42.2461 101.875 41.9341 101.364C39.7285 97.7504 37.4948 95.2756 34.4843 93.109C34.0873 92.8232 34.093 92.7832 34.6511 91.9459C38.4685 86.2191 34.568 78.3083 27.6717 77.7905C20.4553 77.2487 15.4537 84.6664 18.7447 91.0297L19.6847 92.8476L18.9638 93.3755C17.2827 94.6065 13.7998 98.351 12.7297 100.078L11.6192 101.87L10.7407 100.621C0.947059 86.7061 12.5783 67.6224 29.4567 69.9137ZM95.6107 81.4141C99.5717 83.1515 100.306 88.494 97.0008 91.5296C95.5504 92.8619 95.6615 93.8184 97.3818 94.8103C100.645 96.6919 103.836 100.026 105.52 103.314L105.978 104.21L104.729 105.132C97.9986 110.095 88.1892 110.081 81.3669 105.098C80.1366 104.199 80.137 104.163 81.4033 102.027C82.7585 99.7403 85.6099 96.8453 88.0599 95.268C90.5512 93.6642 90.796 92.791 89.1272 91.4597C83.7851 87.1979 89.3036 78.6476 95.6107 81.4141Z" fill="#F5A16F"/>
</svg>
